%FSLAX45Y45*%
G04 Gerber Fmt 4.5, Leading zero omitted, Abs format (unit mm)*
G04 Created by KiCad (PCBNEW (5.0.2)-1) date 16.02.2020 18:45:13*
%MOMM*%
%LPD*%
G01*
G04 APERTURE LIST*
%ADD10C,0.200000*%
%ADD11C,0.300000*%
G04 APERTURE END LIST*
D10*
X27044500Y-16438600D02*
G75*
G03X27044500Y-16438600I-9650000J0D01*
G01*
D10*
X21345510Y-13651240D02*
X21385510Y-13691240D01*
X21385510Y-13651240D02*
X21345510Y-13691240D01*
X21849460Y-15745370D02*
X21889460Y-15785370D01*
X21889460Y-15745370D02*
X21849460Y-15785370D01*
X17100100Y-18440200D02*
G75*
G03X17100100Y-18440200I-30000J0D01*
G01*
X17194558Y-18212158D02*
G75*
G03X17194558Y-18212158I-30000J0D01*
G01*
X17194558Y-18668242D02*
G75*
G03X17194558Y-18668242I-30000J0D01*
G01*
X17422600Y-18117700D02*
G75*
G03X17422600Y-18117700I-30000J0D01*
G01*
X17422600Y-18762700D02*
G75*
G03X17422600Y-18762700I-30000J0D01*
G01*
X17650642Y-18212158D02*
G75*
G03X17650642Y-18212158I-30000J0D01*
G01*
X17650642Y-18668242D02*
G75*
G03X17650642Y-18668242I-30000J0D01*
G01*
X17745100Y-18440200D02*
G75*
G03X17745100Y-18440200I-30000J0D01*
G01*
X19100100Y-16440200D02*
G75*
G03X19100100Y-16440200I-30000J0D01*
G01*
X19194558Y-16212158D02*
G75*
G03X19194558Y-16212158I-30000J0D01*
G01*
X19194558Y-16668242D02*
G75*
G03X19194558Y-16668242I-30000J0D01*
G01*
X19422600Y-16117700D02*
G75*
G03X19422600Y-16117700I-30000J0D01*
G01*
X19422600Y-16762700D02*
G75*
G03X19422600Y-16762700I-30000J0D01*
G01*
X19650642Y-16212158D02*
G75*
G03X19650642Y-16212158I-30000J0D01*
G01*
X19650642Y-16668242D02*
G75*
G03X19650642Y-16668242I-30000J0D01*
G01*
X19745100Y-16440200D02*
G75*
G03X19745100Y-16440200I-30000J0D01*
G01*
X15100100Y-16440200D02*
G75*
G03X15100100Y-16440200I-30000J0D01*
G01*
X15194558Y-16212158D02*
G75*
G03X15194558Y-16212158I-30000J0D01*
G01*
X15194558Y-16668242D02*
G75*
G03X15194558Y-16668242I-30000J0D01*
G01*
X15422600Y-16117700D02*
G75*
G03X15422600Y-16117700I-30000J0D01*
G01*
X15422600Y-16762700D02*
G75*
G03X15422600Y-16762700I-30000J0D01*
G01*
X15650642Y-16212158D02*
G75*
G03X15650642Y-16212158I-30000J0D01*
G01*
X15650642Y-16668242D02*
G75*
G03X15650642Y-16668242I-30000J0D01*
G01*
X15745100Y-16440200D02*
G75*
G03X15745100Y-16440200I-30000J0D01*
G01*
X17024500Y-25046100D02*
G75*
G03X17024500Y-25046100I-30000J0D01*
G01*
X17140925Y-24765025D02*
G75*
G03X17140925Y-24765025I-30000J0D01*
G01*
X17140925Y-25327175D02*
G75*
G03X17140925Y-25327175I-30000J0D01*
G01*
X17422000Y-24648600D02*
G75*
G03X17422000Y-24648600I-30000J0D01*
G01*
X17422000Y-25443600D02*
G75*
G03X17422000Y-25443600I-30000J0D01*
G01*
X17703075Y-24765025D02*
G75*
G03X17703075Y-24765025I-30000J0D01*
G01*
X17703075Y-25327175D02*
G75*
G03X17703075Y-25327175I-30000J0D01*
G01*
X17819500Y-25046100D02*
G75*
G03X17819500Y-25046100I-30000J0D01*
G01*
X17024500Y-7843600D02*
G75*
G03X17024500Y-7843600I-30000J0D01*
G01*
X17140925Y-7562525D02*
G75*
G03X17140925Y-7562525I-30000J0D01*
G01*
X17140925Y-8124675D02*
G75*
G03X17140925Y-8124675I-30000J0D01*
G01*
X17422000Y-7446100D02*
G75*
G03X17422000Y-7446100I-30000J0D01*
G01*
X17422000Y-8241100D02*
G75*
G03X17422000Y-8241100I-30000J0D01*
G01*
X17703075Y-7562525D02*
G75*
G03X17703075Y-7562525I-30000J0D01*
G01*
X17703075Y-8124675D02*
G75*
G03X17703075Y-8124675I-30000J0D01*
G01*
X17819500Y-7843600D02*
G75*
G03X17819500Y-7843600I-30000J0D01*
G01*
X17108500Y-14440200D02*
G75*
G03X17108500Y-14440200I-30000J0D01*
G01*
X17202958Y-14212158D02*
G75*
G03X17202958Y-14212158I-30000J0D01*
G01*
X17202958Y-14668242D02*
G75*
G03X17202958Y-14668242I-30000J0D01*
G01*
X17431000Y-14117700D02*
G75*
G03X17431000Y-14117700I-30000J0D01*
G01*
X17431000Y-14762700D02*
G75*
G03X17431000Y-14762700I-30000J0D01*
G01*
X17659042Y-14212158D02*
G75*
G03X17659042Y-14212158I-30000J0D01*
G01*
X17659042Y-14668242D02*
G75*
G03X17659042Y-14668242I-30000J0D01*
G01*
X17753500Y-14440200D02*
G75*
G03X17753500Y-14440200I-30000J0D01*
G01*
X8424500Y-16438900D02*
G75*
G03X8424500Y-16438900I-30000J0D01*
G01*
X8540925Y-16157825D02*
G75*
G03X8540925Y-16157825I-30000J0D01*
G01*
X8540925Y-16719975D02*
G75*
G03X8540925Y-16719975I-30000J0D01*
G01*
X8822000Y-16041400D02*
G75*
G03X8822000Y-16041400I-30000J0D01*
G01*
X8822000Y-16836400D02*
G75*
G03X8822000Y-16836400I-30000J0D01*
G01*
X9103075Y-16157825D02*
G75*
G03X9103075Y-16157825I-30000J0D01*
G01*
X9103075Y-16719975D02*
G75*
G03X9103075Y-16719975I-30000J0D01*
G01*
X9219500Y-16438900D02*
G75*
G03X9219500Y-16438900I-30000J0D01*
G01*
X17025100Y-16440200D02*
G75*
G03X17025100Y-16440200I-30000J0D01*
G01*
X17141525Y-16159125D02*
G75*
G03X17141525Y-16159125I-30000J0D01*
G01*
X17141525Y-16721275D02*
G75*
G03X17141525Y-16721275I-30000J0D01*
G01*
X17422600Y-16042700D02*
G75*
G03X17422600Y-16042700I-30000J0D01*
G01*
X17422600Y-16837700D02*
G75*
G03X17422600Y-16837700I-30000J0D01*
G01*
X17703675Y-16159125D02*
G75*
G03X17703675Y-16159125I-30000J0D01*
G01*
X17703675Y-16721275D02*
G75*
G03X17703675Y-16721275I-30000J0D01*
G01*
X17820100Y-16440200D02*
G75*
G03X17820100Y-16440200I-30000J0D01*
G01*
X25624500Y-16443600D02*
G75*
G03X25624500Y-16443600I-30000J0D01*
G01*
X25740925Y-16162525D02*
G75*
G03X25740925Y-16162525I-30000J0D01*
G01*
X25740925Y-16724675D02*
G75*
G03X25740925Y-16724675I-30000J0D01*
G01*
X26022000Y-16046100D02*
G75*
G03X26022000Y-16046100I-30000J0D01*
G01*
X26022000Y-16841100D02*
G75*
G03X26022000Y-16841100I-30000J0D01*
G01*
X26303075Y-16162525D02*
G75*
G03X26303075Y-16162525I-30000J0D01*
G01*
X26303075Y-16724675D02*
G75*
G03X26303075Y-16724675I-30000J0D01*
G01*
X26419500Y-16443600D02*
G75*
G03X26419500Y-16443600I-30000J0D01*
G01*
X16370300Y-9883700D02*
X16370300Y-9953700D01*
X16335300Y-9918700D02*
X16405300Y-9918700D01*
X16624300Y-9883700D02*
X16624300Y-9953700D01*
X16589300Y-9918700D02*
X16659300Y-9918700D01*
X17306180Y-10663895D02*
X17306180Y-10610013D01*
X17252298Y-10610013D01*
X17252298Y-10663895D01*
X17306180Y-10663895D01*
X17425425Y-10439627D02*
X17425425Y-10385745D01*
X17371543Y-10385745D01*
X17371543Y-10439627D01*
X17425425Y-10439627D01*
X17530448Y-10783141D02*
X17530448Y-10729259D01*
X17476566Y-10729259D01*
X17476566Y-10783141D01*
X17530448Y-10783141D01*
X17649694Y-10558873D02*
X17649694Y-10504991D01*
X17595812Y-10504991D01*
X17595812Y-10558873D01*
X17649694Y-10558873D01*
X17754717Y-10902387D02*
X17754717Y-10848505D01*
X17700835Y-10848505D01*
X17700835Y-10902387D01*
X17754717Y-10902387D01*
X17873963Y-10678118D02*
X17873963Y-10624236D01*
X17820081Y-10624236D01*
X17820081Y-10678118D01*
X17873963Y-10678118D01*
X17978986Y-11021633D02*
X17978986Y-10967751D01*
X17925104Y-10967751D01*
X17925104Y-11021633D01*
X17978986Y-11021633D01*
X18098231Y-10797364D02*
X18098231Y-10743482D01*
X18044349Y-10743482D01*
X18044349Y-10797364D01*
X18098231Y-10797364D01*
X18203254Y-11140879D02*
X18203254Y-11086997D01*
X18149372Y-11086997D01*
X18149372Y-11140879D01*
X18203254Y-11140879D01*
X18322500Y-10916610D02*
X18322500Y-10862728D01*
X18268618Y-10862728D01*
X18268618Y-10916610D01*
X18322500Y-10916610D01*
X18427523Y-11260124D02*
X18427523Y-11206242D01*
X18373641Y-11206242D01*
X18373641Y-11260124D01*
X18427523Y-11260124D01*
X18546769Y-11035856D02*
X18546769Y-10981974D01*
X18492887Y-10981974D01*
X18492887Y-11035856D01*
X18546769Y-11035856D01*
X18651792Y-11379370D02*
X18651792Y-11325488D01*
X18597910Y-11325488D01*
X18597910Y-11379370D01*
X18651792Y-11379370D01*
X18771037Y-11155101D02*
X18771037Y-11101219D01*
X18717155Y-11101219D01*
X18717155Y-11155101D01*
X18771037Y-11155101D01*
X18876060Y-11498616D02*
X18876060Y-11444734D01*
X18822178Y-11444734D01*
X18822178Y-11498616D01*
X18876060Y-11498616D01*
X18995306Y-11274347D02*
X18995306Y-11220465D01*
X18941424Y-11220465D01*
X18941424Y-11274347D01*
X18995306Y-11274347D01*
X19100329Y-11617862D02*
X19100329Y-11563980D01*
X19046447Y-11563980D01*
X19046447Y-11617862D01*
X19100329Y-11617862D01*
X19219575Y-11393593D02*
X19219575Y-11339711D01*
X19165693Y-11339711D01*
X19165693Y-11393593D01*
X19219575Y-11393593D01*
X19324598Y-11737107D02*
X19324598Y-11683225D01*
X19270716Y-11683225D01*
X19270716Y-11737107D01*
X19324598Y-11737107D01*
X19443843Y-11512839D02*
X19443843Y-11458957D01*
X19389961Y-11458957D01*
X19389961Y-11512839D01*
X19443843Y-11512839D01*
X19548866Y-11856353D02*
X19548866Y-11802471D01*
X19494984Y-11802471D01*
X19494984Y-11856353D01*
X19548866Y-11856353D01*
X19668112Y-11632084D02*
X19668112Y-11578202D01*
X19614230Y-11578202D01*
X19614230Y-11632084D01*
X19668112Y-11632084D01*
X19773135Y-11975599D02*
X19773135Y-11921717D01*
X19719253Y-11921717D01*
X19719253Y-11975599D01*
X19773135Y-11975599D01*
X19892381Y-11751330D02*
X19892381Y-11697448D01*
X19838499Y-11697448D01*
X19838499Y-11751330D01*
X19892381Y-11751330D01*
X19977718Y-8344631D02*
X19977718Y-8290749D01*
X19923836Y-8290749D01*
X19923836Y-8344631D01*
X19977718Y-8344631D01*
X19997404Y-12094845D02*
X19997404Y-12040963D01*
X19943522Y-12040963D01*
X19943522Y-12094845D01*
X19997404Y-12094845D01*
X20096964Y-8120363D02*
X20096964Y-8066481D01*
X20043082Y-8066481D01*
X20043082Y-8120363D01*
X20096964Y-8120363D01*
X20116650Y-11870576D02*
X20116650Y-11816694D01*
X20062768Y-11816694D01*
X20062768Y-11870576D01*
X20116650Y-11870576D01*
X20201987Y-8463877D02*
X20201987Y-8409995D01*
X20148105Y-8409995D01*
X20148105Y-8463877D01*
X20201987Y-8463877D01*
X20221672Y-12214090D02*
X20221672Y-12160208D01*
X20167790Y-12160208D01*
X20167790Y-12214090D01*
X20221672Y-12214090D01*
X20321233Y-8239608D02*
X20321233Y-8185726D01*
X20267351Y-8185726D01*
X20267351Y-8239608D01*
X20321233Y-8239608D01*
X20340918Y-11989822D02*
X20340918Y-11935940D01*
X20287036Y-11935940D01*
X20287036Y-11989822D01*
X20340918Y-11989822D01*
X20426255Y-8583123D02*
X20426255Y-8529241D01*
X20372373Y-8529241D01*
X20372373Y-8583123D01*
X20426255Y-8583123D01*
X20445941Y-12333336D02*
X20445941Y-12279454D01*
X20392059Y-12279454D01*
X20392059Y-12333336D01*
X20445941Y-12333336D01*
X20545501Y-8358854D02*
X20545501Y-8304972D01*
X20491619Y-8304972D01*
X20491619Y-8358854D01*
X20545501Y-8358854D01*
X20565187Y-12109068D02*
X20565187Y-12055186D01*
X20511305Y-12055186D01*
X20511305Y-12109068D01*
X20565187Y-12109068D01*
X20650524Y-8702369D02*
X20650524Y-8648487D01*
X20596642Y-8648487D01*
X20596642Y-8702369D01*
X20650524Y-8702369D01*
X20670210Y-12452582D02*
X20670210Y-12398700D01*
X20616328Y-12398700D01*
X20616328Y-12452582D01*
X20670210Y-12452582D01*
X20769770Y-8478100D02*
X20769770Y-8424218D01*
X20715888Y-8424218D01*
X20715888Y-8478100D01*
X20769770Y-8478100D01*
X20789456Y-12228313D02*
X20789456Y-12174431D01*
X20735574Y-12174431D01*
X20735574Y-12228313D01*
X20789456Y-12228313D01*
X20874793Y-8821614D02*
X20874793Y-8767732D01*
X20820911Y-8767732D01*
X20820911Y-8821614D01*
X20874793Y-8821614D01*
X20894479Y-12571828D02*
X20894479Y-12517946D01*
X20840597Y-12517946D01*
X20840597Y-12571828D01*
X20894479Y-12571828D01*
X20994039Y-8597346D02*
X20994039Y-8543464D01*
X20940157Y-8543464D01*
X20940157Y-8597346D01*
X20994039Y-8597346D01*
X21013724Y-12347559D02*
X21013724Y-12293677D01*
X20959842Y-12293677D01*
X20959842Y-12347559D01*
X21013724Y-12347559D01*
X21099061Y-8940860D02*
X21099061Y-8886978D01*
X21045179Y-8886978D01*
X21045179Y-8940860D01*
X21099061Y-8940860D01*
X21118747Y-12691074D02*
X21118747Y-12637192D01*
X21064865Y-12637192D01*
X21064865Y-12691074D01*
X21118747Y-12691074D01*
X21218307Y-8716592D02*
X21218307Y-8662710D01*
X21164425Y-8662710D01*
X21164425Y-8716592D01*
X21218307Y-8716592D01*
X21237993Y-12466805D02*
X21237993Y-12412923D01*
X21184111Y-12412923D01*
X21184111Y-12466805D01*
X21237993Y-12466805D01*
X21323330Y-9060106D02*
X21323330Y-9006224D01*
X21269448Y-9006224D01*
X21269448Y-9060106D01*
X21323330Y-9060106D01*
X21343016Y-12810319D02*
X21343016Y-12756437D01*
X21289134Y-12756437D01*
X21289134Y-12810319D01*
X21343016Y-12810319D01*
X21442576Y-8835837D02*
X21442576Y-8781955D01*
X21388694Y-8781955D01*
X21388694Y-8835837D01*
X21442576Y-8835837D01*
X21462262Y-12586051D02*
X21462262Y-12532169D01*
X21408380Y-12532169D01*
X21408380Y-12586051D01*
X21462262Y-12586051D01*
X21547599Y-9179352D02*
X21547599Y-9125470D01*
X21493717Y-9125470D01*
X21493717Y-9179352D01*
X21547599Y-9179352D01*
X21567285Y-12929565D02*
X21567285Y-12875683D01*
X21513403Y-12875683D01*
X21513403Y-12929565D01*
X21567285Y-12929565D01*
X21666845Y-8955083D02*
X21666845Y-8901201D01*
X21612963Y-8901201D01*
X21612963Y-8955083D01*
X21666845Y-8955083D01*
X21686530Y-12705296D02*
X21686530Y-12651414D01*
X21632648Y-12651414D01*
X21632648Y-12705296D01*
X21686530Y-12705296D01*
X21771868Y-9298598D02*
X21771868Y-9244716D01*
X21717986Y-9244716D01*
X21717986Y-9298598D01*
X21771868Y-9298598D01*
X21791553Y-13048811D02*
X21791553Y-12994929D01*
X21737671Y-12994929D01*
X21737671Y-13048811D01*
X21791553Y-13048811D01*
X21891113Y-9074329D02*
X21891113Y-9020447D01*
X21837231Y-9020447D01*
X21837231Y-9074329D01*
X21891113Y-9074329D01*
X21910799Y-12824542D02*
X21910799Y-12770660D01*
X21856917Y-12770660D01*
X21856917Y-12824542D01*
X21910799Y-12824542D01*
X21996136Y-9417843D02*
X21996136Y-9363961D01*
X21942254Y-9363961D01*
X21942254Y-9417843D01*
X21996136Y-9417843D01*
X22115382Y-9193575D02*
X22115382Y-9139693D01*
X22061500Y-9139693D01*
X22061500Y-9193575D01*
X22115382Y-9193575D01*
X22220405Y-9537089D02*
X22220405Y-9483207D01*
X22166523Y-9483207D01*
X22166523Y-9537089D01*
X22220405Y-9537089D01*
X22339651Y-9312820D02*
X22339651Y-9258938D01*
X22285769Y-9258938D01*
X22285769Y-9312820D01*
X22339651Y-9312820D01*
X22444674Y-9656335D02*
X22444674Y-9602453D01*
X22390792Y-9602453D01*
X22390792Y-9656335D01*
X22444674Y-9656335D01*
X22563919Y-9432066D02*
X22563919Y-9378184D01*
X22510037Y-9378184D01*
X22510037Y-9432066D01*
X22563919Y-9432066D01*
X22668942Y-9775581D02*
X22668942Y-9721699D01*
X22615060Y-9721699D01*
X22615060Y-9775581D01*
X22668942Y-9775581D01*
X22759742Y-10686878D02*
X22759742Y-10632996D01*
X22705860Y-10632996D01*
X22705860Y-10686878D01*
X22759742Y-10686878D01*
X22788188Y-9551312D02*
X22788188Y-9497430D01*
X22734306Y-9497430D01*
X22734306Y-9551312D01*
X22788188Y-9551312D01*
X22878988Y-10462610D02*
X22878988Y-10408728D01*
X22825106Y-10408728D01*
X22825106Y-10462610D01*
X22878988Y-10462610D01*
X22893211Y-9894826D02*
X22893211Y-9840944D01*
X22839329Y-9840944D01*
X22839329Y-9894826D01*
X22893211Y-9894826D01*
X22984011Y-10806124D02*
X22984011Y-10752242D01*
X22930129Y-10752242D01*
X22930129Y-10806124D01*
X22984011Y-10806124D01*
X22998234Y-10238341D02*
X22998234Y-10184459D01*
X22944352Y-10184459D01*
X22944352Y-10238341D01*
X22998234Y-10238341D01*
X23012457Y-9670558D02*
X23012457Y-9616676D01*
X22958575Y-9616676D01*
X22958575Y-9670558D01*
X23012457Y-9670558D01*
X23103257Y-10581855D02*
X23103257Y-10527973D01*
X23049375Y-10527973D01*
X23049375Y-10581855D01*
X23103257Y-10581855D01*
X23117480Y-10014072D02*
X23117480Y-9960190D01*
X23063598Y-9960190D01*
X23063598Y-10014072D01*
X23117480Y-10014072D01*
X23222502Y-10357587D02*
X23222502Y-10303705D01*
X23168620Y-10303705D01*
X23168620Y-10357587D01*
X23222502Y-10357587D01*
X23236725Y-9789804D02*
X23236725Y-9735922D01*
X23182843Y-9735922D01*
X23182843Y-9789804D01*
X23236725Y-9789804D01*
X23341748Y-10133318D02*
X23341748Y-10079436D01*
X23287866Y-10079436D01*
X23287866Y-10133318D01*
X23341748Y-10133318D01*
X23460994Y-9909049D02*
X23460994Y-9855167D01*
X23407112Y-9855167D01*
X23407112Y-9909049D01*
X23460994Y-9909049D01*
X23382241Y-12472941D02*
X23382241Y-12419059D01*
X23328359Y-12419059D01*
X23328359Y-12472941D01*
X23382241Y-12472941D01*
X23382241Y-13742941D02*
X23382241Y-13689059D01*
X23328359Y-13689059D01*
X23328359Y-13742941D01*
X23382241Y-13742941D01*
X23636241Y-12472941D02*
X23636241Y-12419059D01*
X23582359Y-12419059D01*
X23582359Y-12472941D01*
X23636241Y-12472941D01*
X23636241Y-13742941D02*
X23636241Y-13689059D01*
X23582359Y-13689059D01*
X23582359Y-13742941D01*
X23636241Y-13742941D01*
X23890241Y-12472941D02*
X23890241Y-12419059D01*
X23836359Y-12419059D01*
X23836359Y-12472941D01*
X23890241Y-12472941D01*
X23890241Y-13742941D02*
X23890241Y-13689059D01*
X23836359Y-13689059D01*
X23836359Y-13742941D01*
X23890241Y-13742941D01*
X24144241Y-12472941D02*
X24144241Y-12419059D01*
X24090359Y-12419059D01*
X24090359Y-12472941D01*
X24144241Y-12472941D01*
X24144241Y-13742941D02*
X24144241Y-13689059D01*
X24090359Y-13689059D01*
X24090359Y-13742941D01*
X24144241Y-13742941D01*
X24398241Y-12472941D02*
X24398241Y-12419059D01*
X24344359Y-12419059D01*
X24344359Y-12472941D01*
X24398241Y-12472941D01*
X24398241Y-13742941D02*
X24398241Y-13689059D01*
X24344359Y-13689059D01*
X24344359Y-13742941D01*
X24398241Y-13742941D01*
X24652241Y-12472941D02*
X24652241Y-12419059D01*
X24598359Y-12419059D01*
X24598359Y-12472941D01*
X24652241Y-12472941D01*
X24652241Y-13742941D02*
X24652241Y-13689059D01*
X24598359Y-13689059D01*
X24598359Y-13742941D01*
X24652241Y-13742941D01*
X24906241Y-12472941D02*
X24906241Y-12419059D01*
X24852359Y-12419059D01*
X24852359Y-12472941D01*
X24906241Y-12472941D01*
X24906241Y-13742941D02*
X24906241Y-13689059D01*
X24852359Y-13689059D01*
X24852359Y-13742941D01*
X24906241Y-13742941D01*
X25160241Y-12472941D02*
X25160241Y-12419059D01*
X25106359Y-12419059D01*
X25106359Y-12472941D01*
X25160241Y-12472941D01*
X25160241Y-13742941D02*
X25160241Y-13689059D01*
X25106359Y-13689059D01*
X25106359Y-13742941D01*
X25160241Y-13742941D01*
X25414241Y-12472941D02*
X25414241Y-12419059D01*
X25360359Y-12419059D01*
X25360359Y-12472941D01*
X25414241Y-12472941D01*
X25414241Y-13742941D02*
X25414241Y-13689059D01*
X25360359Y-13689059D01*
X25360359Y-13742941D01*
X25414241Y-13742941D01*
X25668241Y-12472941D02*
X25668241Y-12419059D01*
X25614359Y-12419059D01*
X25614359Y-12472941D01*
X25668241Y-12472941D01*
X25668241Y-13742941D02*
X25668241Y-13689059D01*
X25614359Y-13689059D01*
X25614359Y-13742941D01*
X25668241Y-13742941D01*
X13482541Y-16340141D02*
X13482541Y-16286259D01*
X13428659Y-16286259D01*
X13428659Y-16340141D01*
X13482541Y-16340141D01*
X13482541Y-16594141D02*
X13482541Y-16540259D01*
X13428659Y-16540259D01*
X13428659Y-16594141D01*
X13482541Y-16594141D01*
X13635986Y-15371325D02*
X13635986Y-15317443D01*
X13582104Y-15317443D01*
X13582104Y-15371325D01*
X13635986Y-15371325D01*
X13635986Y-17562957D02*
X13635986Y-17509075D01*
X13582104Y-17509075D01*
X13582104Y-17562957D01*
X13635986Y-17562957D01*
X13714477Y-15129757D02*
X13714477Y-15075875D01*
X13660595Y-15075875D01*
X13660595Y-15129757D01*
X13714477Y-15129757D01*
X13714477Y-17804525D02*
X13714477Y-17750643D01*
X13660595Y-17750643D01*
X13660595Y-17804525D01*
X13714477Y-17804525D01*
X13736541Y-16213141D02*
X13736541Y-16159259D01*
X13682659Y-16159259D01*
X13682659Y-16213141D01*
X13736541Y-16213141D01*
X13736541Y-16467141D02*
X13736541Y-16413259D01*
X13682659Y-16413259D01*
X13682659Y-16467141D01*
X13736541Y-16467141D01*
X13736541Y-16721141D02*
X13736541Y-16667259D01*
X13682659Y-16667259D01*
X13682659Y-16721141D01*
X13736541Y-16721141D01*
X13838309Y-15570600D02*
X13838309Y-15516718D01*
X13784427Y-15516718D01*
X13784427Y-15570600D01*
X13838309Y-15570600D01*
X13838309Y-17363682D02*
X13838309Y-17309800D01*
X13784427Y-17309800D01*
X13784427Y-17363682D01*
X13838309Y-17363682D01*
X13916800Y-15329031D02*
X13916800Y-15275149D01*
X13862918Y-15275149D01*
X13862918Y-15329031D01*
X13916800Y-15329031D01*
X13916800Y-17605251D02*
X13916800Y-17551369D01*
X13862918Y-17551369D01*
X13862918Y-17605251D01*
X13916800Y-17605251D01*
X13995290Y-15087463D02*
X13995290Y-15033581D01*
X13941408Y-15033581D01*
X13941408Y-15087463D01*
X13995290Y-15087463D01*
X13995290Y-17846819D02*
X13995290Y-17792937D01*
X13941408Y-17792937D01*
X13941408Y-17846819D01*
X13995290Y-17846819D01*
X14159792Y-14255776D02*
X14159792Y-14201894D01*
X14105910Y-14201894D01*
X14105910Y-14255776D01*
X14159792Y-14255776D01*
X14159792Y-18678506D02*
X14159792Y-18624624D01*
X14105910Y-18624624D01*
X14105910Y-18678506D01*
X14159792Y-18678506D01*
X14290634Y-14507818D02*
X14290634Y-14453936D01*
X14236752Y-14453936D01*
X14236752Y-14507818D01*
X14290634Y-14507818D01*
X14290634Y-18426464D02*
X14290634Y-18372582D01*
X14236752Y-18372582D01*
X14236752Y-18426464D01*
X14290634Y-18426464D01*
X14309090Y-14050285D02*
X14309090Y-13996403D01*
X14255208Y-13996403D01*
X14255208Y-14050285D01*
X14309090Y-14050285D01*
X14309090Y-18883997D02*
X14309090Y-18830115D01*
X14255208Y-18830115D01*
X14255208Y-18883997D01*
X14309090Y-18883997D01*
X14439931Y-14302328D02*
X14439931Y-14248446D01*
X14386049Y-14248446D01*
X14386049Y-14302328D01*
X14439931Y-14302328D01*
X14439931Y-18631954D02*
X14439931Y-18578072D01*
X14386049Y-18578072D01*
X14386049Y-18631954D01*
X14439931Y-18631954D01*
X14589229Y-14096838D02*
X14589229Y-14042956D01*
X14535347Y-14042956D01*
X14535347Y-14096838D01*
X14589229Y-14096838D01*
X14589229Y-18837444D02*
X14589229Y-18783562D01*
X14535347Y-18783562D01*
X14535347Y-18837444D01*
X14589229Y-18837444D01*
X15002685Y-13356690D02*
X15002685Y-13302808D01*
X14948803Y-13302808D01*
X14948803Y-13356690D01*
X15002685Y-13356690D01*
X15002685Y-19577592D02*
X15002685Y-19523710D01*
X14948803Y-19523710D01*
X14948803Y-19577592D01*
X15002685Y-19577592D01*
X15049238Y-13636829D02*
X15049238Y-13582947D01*
X14995356Y-13582947D01*
X14995356Y-13636829D01*
X15049238Y-13636829D01*
X15049238Y-19297453D02*
X15049238Y-19243571D01*
X14995356Y-19243571D01*
X14995356Y-19297453D01*
X15049238Y-19297453D01*
X15208176Y-13207392D02*
X15208176Y-13153510D01*
X15154294Y-13153510D01*
X15154294Y-13207392D01*
X15208176Y-13207392D01*
X15208176Y-19726890D02*
X15208176Y-19673008D01*
X15154294Y-19673008D01*
X15154294Y-19726890D01*
X15208176Y-19726890D01*
X15254728Y-13487531D02*
X15254728Y-13433649D01*
X15200846Y-13433649D01*
X15200846Y-13487531D01*
X15254728Y-13487531D01*
X15254728Y-19446751D02*
X15254728Y-19392869D01*
X15200846Y-19392869D01*
X15200846Y-19446751D01*
X15254728Y-19446751D01*
X15460218Y-13338234D02*
X15460218Y-13284352D01*
X15406336Y-13284352D01*
X15406336Y-13338234D01*
X15460218Y-13338234D01*
X15460218Y-19596048D02*
X15460218Y-19542166D01*
X15406336Y-19542166D01*
X15406336Y-19596048D01*
X15460218Y-19596048D01*
X16039863Y-13042890D02*
X16039863Y-12989008D01*
X15985981Y-12989008D01*
X15985981Y-13042890D01*
X16039863Y-13042890D01*
X16039863Y-19891392D02*
X16039863Y-19837510D01*
X15985981Y-19837510D01*
X15985981Y-19891392D01*
X16039863Y-19891392D01*
X16082157Y-12762077D02*
X16082157Y-12708195D01*
X16028275Y-12708195D01*
X16028275Y-12762077D01*
X16082157Y-12762077D01*
X16082157Y-20172205D02*
X16082157Y-20118323D01*
X16028275Y-20118323D01*
X16028275Y-20172205D01*
X16082157Y-20172205D01*
X16281431Y-12964400D02*
X16281431Y-12910518D01*
X16227549Y-12910518D01*
X16227549Y-12964400D01*
X16281431Y-12964400D01*
X16281431Y-19969882D02*
X16281431Y-19916000D01*
X16227549Y-19916000D01*
X16227549Y-19969882D01*
X16281431Y-19969882D01*
X16323725Y-12683586D02*
X16323725Y-12629704D01*
X16269843Y-12629704D01*
X16269843Y-12683586D01*
X16323725Y-12683586D01*
X16323725Y-20250696D02*
X16323725Y-20196814D01*
X16269843Y-20196814D01*
X16269843Y-20250696D01*
X16323725Y-20250696D01*
X16523000Y-12885909D02*
X16523000Y-12832027D01*
X16469118Y-12832027D01*
X16469118Y-12885909D01*
X16523000Y-12885909D01*
X16523000Y-20048373D02*
X16523000Y-19994491D01*
X16469118Y-19994491D01*
X16469118Y-20048373D01*
X16523000Y-20048373D01*
X17165541Y-12784141D02*
X17165541Y-12730259D01*
X17111659Y-12730259D01*
X17111659Y-12784141D01*
X17165541Y-12784141D01*
X17165541Y-20150141D02*
X17165541Y-20096259D01*
X17111659Y-20096259D01*
X17111659Y-20150141D01*
X17165541Y-20150141D01*
X17292541Y-12530141D02*
X17292541Y-12476259D01*
X17238659Y-12476259D01*
X17238659Y-12530141D01*
X17292541Y-12530141D01*
X17292541Y-20404141D02*
X17292541Y-20350259D01*
X17238659Y-20350259D01*
X17238659Y-20404141D01*
X17292541Y-20404141D01*
X17419541Y-12784141D02*
X17419541Y-12730259D01*
X17365659Y-12730259D01*
X17365659Y-12784141D01*
X17419541Y-12784141D01*
X17419541Y-20150141D02*
X17419541Y-20096259D01*
X17365659Y-20096259D01*
X17365659Y-20150141D01*
X17419541Y-20150141D01*
X17546541Y-12530141D02*
X17546541Y-12476259D01*
X17492659Y-12476259D01*
X17492659Y-12530141D01*
X17546541Y-12530141D01*
X17546541Y-20404141D02*
X17546541Y-20350259D01*
X17492659Y-20350259D01*
X17492659Y-20404141D01*
X17546541Y-20404141D01*
X17673541Y-12784141D02*
X17673541Y-12730259D01*
X17619659Y-12730259D01*
X17619659Y-12784141D01*
X17673541Y-12784141D01*
X17673541Y-20150141D02*
X17673541Y-20096259D01*
X17619659Y-20096259D01*
X17619659Y-20150141D01*
X17673541Y-20150141D01*
X18316082Y-12885909D02*
X18316082Y-12832027D01*
X18262200Y-12832027D01*
X18262200Y-12885909D01*
X18316082Y-12885909D01*
X18316082Y-20048373D02*
X18316082Y-19994491D01*
X18262200Y-19994491D01*
X18262200Y-20048373D01*
X18316082Y-20048373D01*
X18515357Y-12683586D02*
X18515357Y-12629704D01*
X18461475Y-12629704D01*
X18461475Y-12683586D01*
X18515357Y-12683586D01*
X18515357Y-20250696D02*
X18515357Y-20196814D01*
X18461475Y-20196814D01*
X18461475Y-20250696D01*
X18515357Y-20250696D01*
X18557651Y-12964400D02*
X18557651Y-12910518D01*
X18503769Y-12910518D01*
X18503769Y-12964400D01*
X18557651Y-12964400D01*
X18557651Y-19969882D02*
X18557651Y-19916000D01*
X18503769Y-19916000D01*
X18503769Y-19969882D01*
X18557651Y-19969882D01*
X18756925Y-12762077D02*
X18756925Y-12708195D01*
X18703043Y-12708195D01*
X18703043Y-12762077D01*
X18756925Y-12762077D01*
X18756925Y-20172205D02*
X18756925Y-20118323D01*
X18703043Y-20118323D01*
X18703043Y-20172205D01*
X18756925Y-20172205D01*
X18799219Y-13042890D02*
X18799219Y-12989008D01*
X18745337Y-12989008D01*
X18745337Y-13042890D01*
X18799219Y-13042890D01*
X18799219Y-19891392D02*
X18799219Y-19837510D01*
X18745337Y-19837510D01*
X18745337Y-19891392D01*
X18799219Y-19891392D01*
X19378864Y-13338234D02*
X19378864Y-13284352D01*
X19324982Y-13284352D01*
X19324982Y-13338234D01*
X19378864Y-13338234D01*
X19378864Y-19596048D02*
X19378864Y-19542166D01*
X19324982Y-19542166D01*
X19324982Y-19596048D01*
X19378864Y-19596048D01*
X19584354Y-13487531D02*
X19584354Y-13433649D01*
X19530472Y-13433649D01*
X19530472Y-13487531D01*
X19584354Y-13487531D01*
X19584354Y-19446751D02*
X19584354Y-19392869D01*
X19530472Y-19392869D01*
X19530472Y-19446751D01*
X19584354Y-19446751D01*
X19630906Y-13207392D02*
X19630906Y-13153510D01*
X19577024Y-13153510D01*
X19577024Y-13207392D01*
X19630906Y-13207392D01*
X19630906Y-19726890D02*
X19630906Y-19673008D01*
X19577024Y-19673008D01*
X19577024Y-19726890D01*
X19630906Y-19726890D01*
X19789844Y-13636829D02*
X19789844Y-13582947D01*
X19735962Y-13582947D01*
X19735962Y-13636829D01*
X19789844Y-13636829D01*
X19789844Y-19297453D02*
X19789844Y-19243571D01*
X19735962Y-19243571D01*
X19735962Y-19297453D01*
X19789844Y-19297453D01*
X19836397Y-13356690D02*
X19836397Y-13302808D01*
X19782515Y-13302808D01*
X19782515Y-13356690D01*
X19836397Y-13356690D01*
X19836397Y-19577592D02*
X19836397Y-19523710D01*
X19782515Y-19523710D01*
X19782515Y-19577592D01*
X19836397Y-19577592D01*
X20249853Y-14096838D02*
X20249853Y-14042956D01*
X20195971Y-14042956D01*
X20195971Y-14096838D01*
X20249853Y-14096838D01*
X20249853Y-18837444D02*
X20249853Y-18783562D01*
X20195971Y-18783562D01*
X20195971Y-18837444D01*
X20249853Y-18837444D01*
X20399151Y-14302328D02*
X20399151Y-14248446D01*
X20345269Y-14248446D01*
X20345269Y-14302328D01*
X20399151Y-14302328D01*
X20399151Y-18631954D02*
X20399151Y-18578072D01*
X20345269Y-18578072D01*
X20345269Y-18631954D01*
X20399151Y-18631954D01*
X20529992Y-14050285D02*
X20529992Y-13996403D01*
X20476110Y-13996403D01*
X20476110Y-14050285D01*
X20529992Y-14050285D01*
X20529992Y-18883997D02*
X20529992Y-18830115D01*
X20476110Y-18830115D01*
X20476110Y-18883997D01*
X20529992Y-18883997D01*
X20548448Y-14507818D02*
X20548448Y-14453936D01*
X20494566Y-14453936D01*
X20494566Y-14507818D01*
X20548448Y-14507818D01*
X20548448Y-18426464D02*
X20548448Y-18372582D01*
X20494566Y-18372582D01*
X20494566Y-18426464D01*
X20548448Y-18426464D01*
X20679290Y-14255776D02*
X20679290Y-14201894D01*
X20625408Y-14201894D01*
X20625408Y-14255776D01*
X20679290Y-14255776D01*
X20679290Y-18678506D02*
X20679290Y-18624624D01*
X20625408Y-18624624D01*
X20625408Y-18678506D01*
X20679290Y-18678506D01*
X20843792Y-15087463D02*
X20843792Y-15033581D01*
X20789910Y-15033581D01*
X20789910Y-15087463D01*
X20843792Y-15087463D01*
X20843792Y-17846819D02*
X20843792Y-17792937D01*
X20789910Y-17792937D01*
X20789910Y-17846819D01*
X20843792Y-17846819D01*
X20922282Y-15329031D02*
X20922282Y-15275149D01*
X20868400Y-15275149D01*
X20868400Y-15329031D01*
X20922282Y-15329031D01*
X20922282Y-17605251D02*
X20922282Y-17551369D01*
X20868400Y-17551369D01*
X20868400Y-17605251D01*
X20922282Y-17605251D01*
X21000773Y-15570600D02*
X21000773Y-15516718D01*
X20946891Y-15516718D01*
X20946891Y-15570600D01*
X21000773Y-15570600D01*
X21000773Y-17363682D02*
X21000773Y-17309800D01*
X20946891Y-17309800D01*
X20946891Y-17363682D01*
X21000773Y-17363682D01*
X21102541Y-16213141D02*
X21102541Y-16159259D01*
X21048659Y-16159259D01*
X21048659Y-16213141D01*
X21102541Y-16213141D01*
X21102541Y-16467141D02*
X21102541Y-16413259D01*
X21048659Y-16413259D01*
X21048659Y-16467141D01*
X21102541Y-16467141D01*
X21102541Y-16721141D02*
X21102541Y-16667259D01*
X21048659Y-16667259D01*
X21048659Y-16721141D01*
X21102541Y-16721141D01*
X21124605Y-15129757D02*
X21124605Y-15075875D01*
X21070723Y-15075875D01*
X21070723Y-15129757D01*
X21124605Y-15129757D01*
X21124605Y-17804525D02*
X21124605Y-17750643D01*
X21070723Y-17750643D01*
X21070723Y-17804525D01*
X21124605Y-17804525D01*
X21203096Y-15371325D02*
X21203096Y-15317443D01*
X21149214Y-15317443D01*
X21149214Y-15371325D01*
X21203096Y-15371325D01*
X21203096Y-17562957D02*
X21203096Y-17509075D01*
X21149214Y-17509075D01*
X21149214Y-17562957D01*
X21203096Y-17562957D01*
X21356541Y-16340141D02*
X21356541Y-16286259D01*
X21302659Y-16286259D01*
X21302659Y-16340141D01*
X21356541Y-16340141D01*
X21356541Y-16594141D02*
X21356541Y-16540259D01*
X21302659Y-16540259D01*
X21302659Y-16594141D01*
X21356541Y-16594141D01*
X11609341Y-10428241D02*
X11609341Y-10374359D01*
X11555459Y-10374359D01*
X11555459Y-10428241D01*
X11609341Y-10428241D01*
X11609341Y-10936241D02*
X11609341Y-10882359D01*
X11555459Y-10882359D01*
X11555459Y-10936241D01*
X11609341Y-10936241D01*
X14403341Y-9920241D02*
X14403341Y-9866359D01*
X14349459Y-9866359D01*
X14349459Y-9920241D01*
X14403341Y-9920241D01*
X14403341Y-11444241D02*
X14403341Y-11390359D01*
X14349459Y-11390359D01*
X14349459Y-11444241D01*
X14403341Y-11444241D01*
X15100300Y-9950000D02*
X15140300Y-9910000D01*
X15100300Y-9870000D01*
X15060300Y-9910000D01*
X15100300Y-9950000D01*
X15100300Y-10200000D02*
X15140300Y-10160000D01*
X15100300Y-10120000D01*
X15060300Y-10160000D01*
X15100300Y-10200000D01*
X23608700Y-14387000D02*
X23648700Y-14347000D01*
X23608700Y-14307000D01*
X23568700Y-14347000D01*
X23608700Y-14387000D01*
X23808700Y-14387000D02*
X23848700Y-14347000D01*
X23808700Y-14307000D01*
X23768700Y-14347000D01*
X23808700Y-14387000D01*
X24008700Y-14387000D02*
X24048700Y-14347000D01*
X24008700Y-14307000D01*
X23968700Y-14347000D01*
X24008700Y-14387000D01*
X24208700Y-14387000D02*
X24248700Y-14347000D01*
X24208700Y-14307000D01*
X24168700Y-14347000D01*
X24208700Y-14387000D01*
X24408700Y-14387000D02*
X24448700Y-14347000D01*
X24408700Y-14307000D01*
X24368700Y-14347000D01*
X24408700Y-14387000D01*
X24608700Y-14387000D02*
X24648700Y-14347000D01*
X24608700Y-14307000D01*
X24568700Y-14347000D01*
X24608700Y-14387000D01*
X24808700Y-14387000D02*
X24848700Y-14347000D01*
X24808700Y-14307000D01*
X24768700Y-14347000D01*
X24808700Y-14387000D01*
X25008700Y-14387000D02*
X25048700Y-14347000D01*
X25008700Y-14307000D01*
X24968700Y-14347000D01*
X25008700Y-14387000D01*
X26035000Y-13756000D02*
X26075000Y-13716000D01*
X26035000Y-13676000D01*
X25995000Y-13716000D01*
X26035000Y-13756000D01*
X26285000Y-13756000D02*
X26325000Y-13716000D01*
X26285000Y-13676000D01*
X26245000Y-13716000D01*
X26285000Y-13756000D01*
X10469600Y-16872200D02*
X10509600Y-16832200D01*
X10469600Y-16792200D01*
X10429600Y-16832200D01*
X10469600Y-16872200D01*
X10769600Y-16372200D02*
X10809600Y-16332200D01*
X10769600Y-16292200D01*
X10729600Y-16332200D01*
X10769600Y-16372200D01*
X15760200Y-9873700D02*
X15850200Y-9963700D01*
X15850200Y-9873700D02*
X15760200Y-9963700D01*
X15850200Y-9918700D02*
G75*
G03X15850200Y-9918700I-45000J0D01*
G01*
X15760200Y-10127700D02*
X15850200Y-10217700D01*
X15850200Y-10127700D02*
X15760200Y-10217700D01*
X15850200Y-10172700D02*
G75*
G03X15850200Y-10172700I-45000J0D01*
G01*
X8602000Y-14156600D02*
X8702000Y-14256600D01*
X8702000Y-14156600D02*
X8602000Y-14256600D01*
X8652000Y-14156600D02*
X8652000Y-14256600D01*
X8602000Y-14206600D02*
X8702000Y-14206600D01*
X8602000Y-14656600D02*
X8702000Y-14756600D01*
X8702000Y-14656600D02*
X8602000Y-14756600D01*
X8652000Y-14656600D02*
X8652000Y-14756600D01*
X8602000Y-14706600D02*
X8702000Y-14706600D01*
X9102000Y-14156600D02*
X9202000Y-14256600D01*
X9202000Y-14156600D02*
X9102000Y-14256600D01*
X9152000Y-14156600D02*
X9152000Y-14256600D01*
X9102000Y-14206600D02*
X9202000Y-14206600D01*
X9102000Y-14656600D02*
X9202000Y-14756600D01*
X9202000Y-14656600D02*
X9102000Y-14756600D01*
X9152000Y-14656600D02*
X9152000Y-14756600D01*
X9102000Y-14706600D02*
X9202000Y-14706600D01*
X9602000Y-14156600D02*
X9702000Y-14256600D01*
X9702000Y-14156600D02*
X9602000Y-14256600D01*
X9652000Y-14156600D02*
X9652000Y-14256600D01*
X9602000Y-14206600D02*
X9702000Y-14206600D01*
X9602000Y-14656600D02*
X9702000Y-14756600D01*
X9702000Y-14656600D02*
X9602000Y-14756600D01*
X9652000Y-14656600D02*
X9652000Y-14756600D01*
X9602000Y-14706600D02*
X9702000Y-14706600D01*
X13640600Y-12180100D02*
X13740600Y-12280100D01*
X13740600Y-12180100D02*
X13640600Y-12280100D01*
X13690600Y-12180100D02*
X13690600Y-12280100D01*
X13640600Y-12230100D02*
X13740600Y-12230100D01*
X13640600Y-12434100D02*
X13740600Y-12534100D01*
X13740600Y-12434100D02*
X13640600Y-12534100D01*
X13690600Y-12434100D02*
X13690600Y-12534100D01*
X13640600Y-12484100D02*
X13740600Y-12484100D01*
X13894600Y-12180100D02*
X13994600Y-12280100D01*
X13994600Y-12180100D02*
X13894600Y-12280100D01*
X13944600Y-12180100D02*
X13944600Y-12280100D01*
X13894600Y-12230100D02*
X13994600Y-12230100D01*
X13894600Y-12434100D02*
X13994600Y-12534100D01*
X13994600Y-12434100D02*
X13894600Y-12534100D01*
X13944600Y-12434100D02*
X13944600Y-12534100D01*
X13894600Y-12484100D02*
X13994600Y-12484100D01*
X8602000Y-17966600D02*
X8702000Y-18066600D01*
X8702000Y-17966600D02*
X8602000Y-18066600D01*
X8652000Y-17966600D02*
X8652000Y-18066600D01*
X8602000Y-18016600D02*
X8702000Y-18016600D01*
X8602000Y-18466600D02*
X8702000Y-18566600D01*
X8702000Y-18466600D02*
X8602000Y-18566600D01*
X8652000Y-18466600D02*
X8652000Y-18566600D01*
X8602000Y-18516600D02*
X8702000Y-18516600D01*
X9102000Y-17966600D02*
X9202000Y-18066600D01*
X9202000Y-17966600D02*
X9102000Y-18066600D01*
X9152000Y-17966600D02*
X9152000Y-18066600D01*
X9102000Y-18016600D02*
X9202000Y-18016600D01*
X9102000Y-18466600D02*
X9202000Y-18566600D01*
X9202000Y-18466600D02*
X9102000Y-18566600D01*
X9152000Y-18466600D02*
X9152000Y-18566600D01*
X9102000Y-18516600D02*
X9202000Y-18516600D01*
X9602000Y-17966600D02*
X9702000Y-18066600D01*
X9702000Y-17966600D02*
X9602000Y-18066600D01*
X9652000Y-17966600D02*
X9652000Y-18066600D01*
X9602000Y-18016600D02*
X9702000Y-18016600D01*
X9602000Y-18466600D02*
X9702000Y-18566600D01*
X9702000Y-18466600D02*
X9602000Y-18566600D01*
X9652000Y-18466600D02*
X9652000Y-18566600D01*
X9602000Y-18516600D02*
X9702000Y-18516600D01*
X9618000Y-11743600D02*
X9718000Y-11843600D01*
X9718000Y-11743600D02*
X9618000Y-11843600D01*
X9668000Y-11743600D02*
X9668000Y-11843600D01*
X9618000Y-11793600D02*
X9718000Y-11793600D01*
X9618000Y-12243600D02*
X9718000Y-12343600D01*
X9718000Y-12243600D02*
X9618000Y-12343600D01*
X9668000Y-12243600D02*
X9668000Y-12343600D01*
X9618000Y-12293600D02*
X9718000Y-12293600D01*
X10118000Y-11743600D02*
X10218000Y-11843600D01*
X10218000Y-11743600D02*
X10118000Y-11843600D01*
X10168000Y-11743600D02*
X10168000Y-11843600D01*
X10118000Y-11793600D02*
X10218000Y-11793600D01*
X10118000Y-12243600D02*
X10218000Y-12343600D01*
X10218000Y-12243600D02*
X10118000Y-12343600D01*
X10168000Y-12243600D02*
X10168000Y-12343600D01*
X10118000Y-12293600D02*
X10218000Y-12293600D01*
X10618000Y-11743600D02*
X10718000Y-11843600D01*
X10718000Y-11743600D02*
X10618000Y-11843600D01*
X10668000Y-11743600D02*
X10668000Y-11843600D01*
X10618000Y-11793600D02*
X10718000Y-11793600D01*
X10618000Y-12243600D02*
X10718000Y-12343600D01*
X10718000Y-12243600D02*
X10618000Y-12343600D01*
X10668000Y-12243600D02*
X10668000Y-12343600D01*
X10618000Y-12293600D02*
X10718000Y-12293600D01*
X15756500Y-10553600D02*
X15866500Y-10663600D01*
X15866500Y-10553600D02*
X15756500Y-10663600D01*
X15850391Y-10647491D02*
X15850391Y-10569709D01*
X15772609Y-10569709D01*
X15772609Y-10647491D01*
X15850391Y-10647491D01*
X15756500Y-11203600D02*
X15866500Y-11313600D01*
X15866500Y-11203600D02*
X15756500Y-11313600D01*
X15850391Y-11297491D02*
X15850391Y-11219709D01*
X15772609Y-11219709D01*
X15772609Y-11297491D01*
X15850391Y-11297491D01*
X16206500Y-10553600D02*
X16316500Y-10663600D01*
X16316500Y-10553600D02*
X16206500Y-10663600D01*
X16300391Y-10647491D02*
X16300391Y-10569709D01*
X16222609Y-10569709D01*
X16222609Y-10647491D01*
X16300391Y-10647491D01*
X16206500Y-11203600D02*
X16316500Y-11313600D01*
X16316500Y-11203600D02*
X16206500Y-11313600D01*
X16300391Y-11297491D02*
X16300391Y-11219709D01*
X16222609Y-11219709D01*
X16222609Y-11297491D01*
X16300391Y-11297491D01*
X15096500Y-12073900D02*
X15256500Y-12233900D01*
X15256500Y-12073900D02*
X15096500Y-12233900D01*
X15176500Y-12233900D02*
X15256500Y-12153900D01*
X15176500Y-12073900D01*
X15096500Y-12153900D01*
X15176500Y-12233900D01*
X15452422Y-11900305D02*
X15612422Y-12060305D01*
X15612422Y-11900305D02*
X15452422Y-12060305D01*
X15532422Y-12060305D02*
X15612422Y-11980305D01*
X15532422Y-11900305D01*
X15452422Y-11980305D01*
X15532422Y-12060305D01*
X21839308Y-18057107D02*
X21999308Y-18217107D01*
X21999308Y-18057107D02*
X21839308Y-18217107D01*
X21919308Y-18217107D02*
X21999308Y-18137107D01*
X21919308Y-18057107D01*
X21839308Y-18137107D01*
X21919308Y-18217107D01*
X21941800Y-17674600D02*
X22101800Y-17834600D01*
X22101800Y-17674600D02*
X21941800Y-17834600D01*
X22021800Y-17834600D02*
X22101800Y-17754600D01*
X22021800Y-17674600D01*
X21941800Y-17754600D01*
X22021800Y-17834600D01*
X19890216Y-20429036D02*
X20050216Y-20589036D01*
X20050216Y-20429036D02*
X19890216Y-20589036D01*
X19970216Y-20589036D02*
X20050216Y-20509036D01*
X19970216Y-20429036D01*
X19890216Y-20509036D01*
X19970216Y-20589036D01*
X20214600Y-20201900D02*
X20374600Y-20361900D01*
X20374600Y-20201900D02*
X20214600Y-20361900D01*
X20294600Y-20361900D02*
X20374600Y-20281900D01*
X20294600Y-20201900D01*
X20214600Y-20281900D01*
X20294600Y-20361900D01*
X12505700Y-15883900D02*
X12665700Y-16043900D01*
X12665700Y-15883900D02*
X12505700Y-16043900D01*
X12585700Y-16043900D02*
X12665700Y-15963900D01*
X12585700Y-15883900D01*
X12505700Y-15963900D01*
X12585700Y-16043900D01*
X12574465Y-15493916D02*
X12734465Y-15653916D01*
X12734465Y-15493916D02*
X12574465Y-15653916D01*
X12654465Y-15653916D02*
X12734465Y-15573916D01*
X12654465Y-15493916D01*
X12574465Y-15573916D01*
X12654465Y-15653916D01*
X24206200Y-16038000D02*
X24206200Y-16258000D01*
X24096200Y-16148000D02*
X24316200Y-16148000D01*
X24316200Y-16148000D02*
G75*
G03X24316200Y-16148000I-110000J0D01*
G01*
X22136100Y-22902400D02*
X22136100Y-23122400D01*
X22026100Y-23012400D02*
X22246100Y-23012400D01*
X22246100Y-23012400D02*
G75*
G03X22246100Y-23012400I-110000J0D01*
G01*
X23622000Y-17962100D02*
X23622000Y-18182100D01*
X23512000Y-18072100D02*
X23732000Y-18072100D01*
X23732000Y-18072100D02*
G75*
G03X23732000Y-18072100I-110000J0D01*
G01*
X19544629Y-16592229D02*
X19544629Y-16288171D01*
X19240571Y-16288171D01*
X19240571Y-16592229D01*
X19544629Y-16592229D01*
X19607600Y-16440200D02*
G75*
G03X19607600Y-16440200I-215000J0D01*
G01*
X15544629Y-16592229D02*
X15544629Y-16288171D01*
X15240571Y-16288171D01*
X15240571Y-16592229D01*
X15544629Y-16592229D01*
X15607600Y-16440200D02*
G75*
G03X15607600Y-16440200I-215000J0D01*
G01*
X17553029Y-14592229D02*
X17553029Y-14288171D01*
X17248971Y-14288171D01*
X17248971Y-14592229D01*
X17553029Y-14592229D01*
X17616000Y-14440200D02*
G75*
G03X17616000Y-14440200I-215000J0D01*
G01*
X17544629Y-18592229D02*
X17544629Y-18288171D01*
X17240571Y-18288171D01*
X17240571Y-18592229D01*
X17544629Y-18592229D01*
X17607600Y-18440200D02*
G75*
G03X17607600Y-18440200I-215000J0D01*
G01*
X17392000Y-25311100D02*
X17657000Y-25046100D01*
X17392000Y-24781100D01*
X17127000Y-25046100D01*
X17392000Y-25311100D01*
X17657000Y-25046100D02*
G75*
G03X17657000Y-25046100I-265000J0D01*
G01*
X17392000Y-8108600D02*
X17657000Y-7843600D01*
X17392000Y-7578600D01*
X17127000Y-7843600D01*
X17392000Y-8108600D01*
X17657000Y-7843600D02*
G75*
G03X17657000Y-7843600I-265000J0D01*
G01*
X8792000Y-16703900D02*
X9057000Y-16438900D01*
X8792000Y-16173900D01*
X8527000Y-16438900D01*
X8792000Y-16703900D01*
X9057000Y-16438900D02*
G75*
G03X9057000Y-16438900I-265000J0D01*
G01*
X17392600Y-16705200D02*
X17657600Y-16440200D01*
X17392600Y-16175200D01*
X17127600Y-16440200D01*
X17392600Y-16705200D01*
X17657600Y-16440200D02*
G75*
G03X17657600Y-16440200I-265000J0D01*
G01*
X25992000Y-16708600D02*
X26257000Y-16443600D01*
X25992000Y-16178600D01*
X25727000Y-16443600D01*
X25992000Y-16708600D01*
X26257000Y-16443600D02*
G75*
G03X26257000Y-16443600I-265000J0D01*
G01*
D11*
X8020928Y-26564314D02*
X8020928Y-26264314D01*
X8092357Y-26264314D01*
X8135214Y-26278600D01*
X8163786Y-26307171D01*
X8178071Y-26335743D01*
X8192357Y-26392886D01*
X8192357Y-26435743D01*
X8178071Y-26492886D01*
X8163786Y-26521457D01*
X8135214Y-26550029D01*
X8092357Y-26564314D01*
X8020928Y-26564314D01*
X8320928Y-26564314D02*
X8320928Y-26364314D01*
X8320928Y-26421457D02*
X8335214Y-26392886D01*
X8349500Y-26378600D01*
X8378071Y-26364314D01*
X8406643Y-26364314D01*
X8506643Y-26564314D02*
X8506643Y-26364314D01*
X8506643Y-26264314D02*
X8492357Y-26278600D01*
X8506643Y-26292886D01*
X8520928Y-26278600D01*
X8506643Y-26264314D01*
X8506643Y-26292886D01*
X8692357Y-26564314D02*
X8663786Y-26550029D01*
X8649500Y-26521457D01*
X8649500Y-26264314D01*
X8849500Y-26564314D02*
X8820928Y-26550029D01*
X8806643Y-26521457D01*
X8806643Y-26264314D01*
X9192357Y-26564314D02*
X9192357Y-26264314D01*
X9292357Y-26478600D01*
X9392357Y-26264314D01*
X9392357Y-26564314D01*
X9663786Y-26564314D02*
X9663786Y-26407171D01*
X9649500Y-26378600D01*
X9620928Y-26364314D01*
X9563786Y-26364314D01*
X9535214Y-26378600D01*
X9663786Y-26550029D02*
X9635214Y-26564314D01*
X9563786Y-26564314D01*
X9535214Y-26550029D01*
X9520928Y-26521457D01*
X9520928Y-26492886D01*
X9535214Y-26464314D01*
X9563786Y-26450029D01*
X9635214Y-26450029D01*
X9663786Y-26435743D01*
X9806643Y-26364314D02*
X9806643Y-26664314D01*
X9806643Y-26378600D02*
X9835214Y-26364314D01*
X9892357Y-26364314D01*
X9920928Y-26378600D01*
X9935214Y-26392886D01*
X9949500Y-26421457D01*
X9949500Y-26507171D01*
X9935214Y-26535743D01*
X9920928Y-26550029D01*
X9892357Y-26564314D01*
X9835214Y-26564314D01*
X9806643Y-26550029D01*
X10078071Y-26535743D02*
X10092357Y-26550029D01*
X10078071Y-26564314D01*
X10063786Y-26550029D01*
X10078071Y-26535743D01*
X10078071Y-26564314D01*
X10078071Y-26378600D02*
X10092357Y-26392886D01*
X10078071Y-26407171D01*
X10063786Y-26392886D01*
X10078071Y-26378600D01*
X10078071Y-26407171D01*
X7694500Y-27038600D02*
X7734500Y-27078600D01*
X7734500Y-27038600D02*
X7694500Y-27078600D01*
X8078071Y-26894314D02*
X8106643Y-26894314D01*
X8135214Y-26908600D01*
X8149500Y-26922886D01*
X8163786Y-26951457D01*
X8178071Y-27008600D01*
X8178071Y-27080029D01*
X8163786Y-27137171D01*
X8149500Y-27165743D01*
X8135214Y-27180029D01*
X8106643Y-27194314D01*
X8078071Y-27194314D01*
X8049500Y-27180029D01*
X8035214Y-27165743D01*
X8020928Y-27137171D01*
X8006643Y-27080029D01*
X8006643Y-27008600D01*
X8020928Y-26951457D01*
X8035214Y-26922886D01*
X8049500Y-26908600D01*
X8078071Y-26894314D01*
X8306643Y-27165743D02*
X8320928Y-27180029D01*
X8306643Y-27194314D01*
X8292357Y-27180029D01*
X8306643Y-27165743D01*
X8306643Y-27194314D01*
X8578071Y-26994314D02*
X8578071Y-27194314D01*
X8506643Y-26880029D02*
X8435214Y-27094314D01*
X8620928Y-27094314D01*
X8792357Y-26894314D02*
X8820928Y-26894314D01*
X8849500Y-26908600D01*
X8863786Y-26922886D01*
X8878071Y-26951457D01*
X8892357Y-27008600D01*
X8892357Y-27080029D01*
X8878071Y-27137171D01*
X8863786Y-27165743D01*
X8849500Y-27180029D01*
X8820928Y-27194314D01*
X8792357Y-27194314D01*
X8763786Y-27180029D01*
X8749500Y-27165743D01*
X8735214Y-27137171D01*
X8720928Y-27080029D01*
X8720928Y-27008600D01*
X8735214Y-26951457D01*
X8749500Y-26922886D01*
X8763786Y-26908600D01*
X8792357Y-26894314D01*
X9020928Y-27194314D02*
X9020928Y-26994314D01*
X9020928Y-27022886D02*
X9035214Y-27008600D01*
X9063786Y-26994314D01*
X9106643Y-26994314D01*
X9135214Y-27008600D01*
X9149500Y-27037171D01*
X9149500Y-27194314D01*
X9149500Y-27037171D02*
X9163786Y-27008600D01*
X9192357Y-26994314D01*
X9235214Y-26994314D01*
X9263786Y-27008600D01*
X9278071Y-27037171D01*
X9278071Y-27194314D01*
X9420928Y-27194314D02*
X9420928Y-26994314D01*
X9420928Y-27022886D02*
X9435214Y-27008600D01*
X9463786Y-26994314D01*
X9506643Y-26994314D01*
X9535214Y-27008600D01*
X9549500Y-27037171D01*
X9549500Y-27194314D01*
X9549500Y-27037171D02*
X9563786Y-27008600D01*
X9592357Y-26994314D01*
X9635214Y-26994314D01*
X9663786Y-27008600D01*
X9678071Y-27037171D01*
X9678071Y-27194314D01*
X10263786Y-26880029D02*
X10006643Y-27265743D01*
X10649500Y-26894314D02*
X10678071Y-26894314D01*
X10706643Y-26908600D01*
X10720928Y-26922886D01*
X10735214Y-26951457D01*
X10749500Y-27008600D01*
X10749500Y-27080029D01*
X10735214Y-27137171D01*
X10720928Y-27165743D01*
X10706643Y-27180029D01*
X10678071Y-27194314D01*
X10649500Y-27194314D01*
X10620928Y-27180029D01*
X10606643Y-27165743D01*
X10592357Y-27137171D01*
X10578071Y-27080029D01*
X10578071Y-27008600D01*
X10592357Y-26951457D01*
X10606643Y-26922886D01*
X10620928Y-26908600D01*
X10649500Y-26894314D01*
X10878071Y-27165743D02*
X10892357Y-27180029D01*
X10878071Y-27194314D01*
X10863786Y-27180029D01*
X10878071Y-27165743D01*
X10878071Y-27194314D01*
X11078071Y-26894314D02*
X11106643Y-26894314D01*
X11135214Y-26908600D01*
X11149500Y-26922886D01*
X11163786Y-26951457D01*
X11178071Y-27008600D01*
X11178071Y-27080029D01*
X11163786Y-27137171D01*
X11149500Y-27165743D01*
X11135214Y-27180029D01*
X11106643Y-27194314D01*
X11078071Y-27194314D01*
X11049500Y-27180029D01*
X11035214Y-27165743D01*
X11020928Y-27137171D01*
X11006643Y-27080029D01*
X11006643Y-27008600D01*
X11020928Y-26951457D01*
X11035214Y-26922886D01*
X11049500Y-26908600D01*
X11078071Y-26894314D01*
X11463786Y-27194314D02*
X11292357Y-27194314D01*
X11378071Y-27194314D02*
X11378071Y-26894314D01*
X11349500Y-26937171D01*
X11320928Y-26965743D01*
X11292357Y-26980029D01*
X11720928Y-26894314D02*
X11663786Y-26894314D01*
X11635214Y-26908600D01*
X11620928Y-26922886D01*
X11592357Y-26965743D01*
X11578071Y-27022886D01*
X11578071Y-27137171D01*
X11592357Y-27165743D01*
X11606643Y-27180029D01*
X11635214Y-27194314D01*
X11692357Y-27194314D01*
X11720928Y-27180029D01*
X11735214Y-27165743D01*
X11749500Y-27137171D01*
X11749500Y-27065743D01*
X11735214Y-27037171D01*
X11720928Y-27022886D01*
X11692357Y-27008600D01*
X11635214Y-27008600D01*
X11606643Y-27022886D01*
X11592357Y-27037171D01*
X11578071Y-27065743D01*
X11863786Y-26894314D02*
X11863786Y-26951457D01*
X11978071Y-26894314D02*
X11978071Y-26951457D01*
X12420928Y-27308600D02*
X12406643Y-27294314D01*
X12378071Y-27251457D01*
X12363786Y-27222886D01*
X12349500Y-27180029D01*
X12335214Y-27108600D01*
X12335214Y-27051457D01*
X12349500Y-26980029D01*
X12363786Y-26937171D01*
X12378071Y-26908600D01*
X12406643Y-26865743D01*
X12420928Y-26851457D01*
X12520928Y-26922886D02*
X12535214Y-26908600D01*
X12563786Y-26894314D01*
X12635214Y-26894314D01*
X12663786Y-26908600D01*
X12678071Y-26922886D01*
X12692357Y-26951457D01*
X12692357Y-26980029D01*
X12678071Y-27022886D01*
X12506643Y-27194314D01*
X12692357Y-27194314D01*
X13049500Y-27194314D02*
X13049500Y-26894314D01*
X13178071Y-27194314D02*
X13178071Y-27037171D01*
X13163786Y-27008600D01*
X13135214Y-26994314D01*
X13092357Y-26994314D01*
X13063786Y-27008600D01*
X13049500Y-27022886D01*
X13363786Y-27194314D02*
X13335214Y-27180029D01*
X13320928Y-27165743D01*
X13306643Y-27137171D01*
X13306643Y-27051457D01*
X13320928Y-27022886D01*
X13335214Y-27008600D01*
X13363786Y-26994314D01*
X13406643Y-26994314D01*
X13435214Y-27008600D01*
X13449500Y-27022886D01*
X13463786Y-27051457D01*
X13463786Y-27137171D01*
X13449500Y-27165743D01*
X13435214Y-27180029D01*
X13406643Y-27194314D01*
X13363786Y-27194314D01*
X13635214Y-27194314D02*
X13606643Y-27180029D01*
X13592357Y-27151457D01*
X13592357Y-26894314D01*
X13863786Y-27180029D02*
X13835214Y-27194314D01*
X13778071Y-27194314D01*
X13749500Y-27180029D01*
X13735214Y-27151457D01*
X13735214Y-27037171D01*
X13749500Y-27008600D01*
X13778071Y-26994314D01*
X13835214Y-26994314D01*
X13863786Y-27008600D01*
X13878071Y-27037171D01*
X13878071Y-27065743D01*
X13735214Y-27094314D01*
X13992357Y-27180029D02*
X14020928Y-27194314D01*
X14078071Y-27194314D01*
X14106643Y-27180029D01*
X14120928Y-27151457D01*
X14120928Y-27137171D01*
X14106643Y-27108600D01*
X14078071Y-27094314D01*
X14035214Y-27094314D01*
X14006643Y-27080029D01*
X13992357Y-27051457D01*
X13992357Y-27037171D01*
X14006643Y-27008600D01*
X14035214Y-26994314D01*
X14078071Y-26994314D01*
X14106643Y-27008600D01*
X14220928Y-27308600D02*
X14235214Y-27294314D01*
X14263786Y-27251457D01*
X14278071Y-27222886D01*
X14292357Y-27180029D01*
X14306643Y-27108600D01*
X14306643Y-27051457D01*
X14292357Y-26980029D01*
X14278071Y-26937171D01*
X14263786Y-26908600D01*
X14235214Y-26865743D01*
X14220928Y-26851457D01*
X7734500Y-27454600D02*
G75*
G03X7734500Y-27454600I-30000J0D01*
G01*
X8078071Y-27290314D02*
X8106643Y-27290314D01*
X8135214Y-27304600D01*
X8149500Y-27318886D01*
X8163786Y-27347457D01*
X8178071Y-27404600D01*
X8178071Y-27476029D01*
X8163786Y-27533171D01*
X8149500Y-27561743D01*
X8135214Y-27576029D01*
X8106643Y-27590314D01*
X8078071Y-27590314D01*
X8049500Y-27576029D01*
X8035214Y-27561743D01*
X8020928Y-27533171D01*
X8006643Y-27476029D01*
X8006643Y-27404600D01*
X8020928Y-27347457D01*
X8035214Y-27318886D01*
X8049500Y-27304600D01*
X8078071Y-27290314D01*
X8306643Y-27561743D02*
X8320928Y-27576029D01*
X8306643Y-27590314D01*
X8292357Y-27576029D01*
X8306643Y-27561743D01*
X8306643Y-27590314D01*
X8578071Y-27290314D02*
X8520928Y-27290314D01*
X8492357Y-27304600D01*
X8478071Y-27318886D01*
X8449500Y-27361743D01*
X8435214Y-27418886D01*
X8435214Y-27533171D01*
X8449500Y-27561743D01*
X8463786Y-27576029D01*
X8492357Y-27590314D01*
X8549500Y-27590314D01*
X8578071Y-27576029D01*
X8592357Y-27561743D01*
X8606643Y-27533171D01*
X8606643Y-27461743D01*
X8592357Y-27433171D01*
X8578071Y-27418886D01*
X8549500Y-27404600D01*
X8492357Y-27404600D01*
X8463786Y-27418886D01*
X8449500Y-27433171D01*
X8435214Y-27461743D01*
X8792357Y-27290314D02*
X8820928Y-27290314D01*
X8849500Y-27304600D01*
X8863786Y-27318886D01*
X8878071Y-27347457D01*
X8892357Y-27404600D01*
X8892357Y-27476029D01*
X8878071Y-27533171D01*
X8863786Y-27561743D01*
X8849500Y-27576029D01*
X8820928Y-27590314D01*
X8792357Y-27590314D01*
X8763786Y-27576029D01*
X8749500Y-27561743D01*
X8735214Y-27533171D01*
X8720928Y-27476029D01*
X8720928Y-27404600D01*
X8735214Y-27347457D01*
X8749500Y-27318886D01*
X8763786Y-27304600D01*
X8792357Y-27290314D01*
X9020928Y-27590314D02*
X9020928Y-27390314D01*
X9020928Y-27418886D02*
X9035214Y-27404600D01*
X9063786Y-27390314D01*
X9106643Y-27390314D01*
X9135214Y-27404600D01*
X9149500Y-27433171D01*
X9149500Y-27590314D01*
X9149500Y-27433171D02*
X9163786Y-27404600D01*
X9192357Y-27390314D01*
X9235214Y-27390314D01*
X9263786Y-27404600D01*
X9278071Y-27433171D01*
X9278071Y-27590314D01*
X9420928Y-27590314D02*
X9420928Y-27390314D01*
X9420928Y-27418886D02*
X9435214Y-27404600D01*
X9463786Y-27390314D01*
X9506643Y-27390314D01*
X9535214Y-27404600D01*
X9549500Y-27433171D01*
X9549500Y-27590314D01*
X9549500Y-27433171D02*
X9563786Y-27404600D01*
X9592357Y-27390314D01*
X9635214Y-27390314D01*
X9663786Y-27404600D01*
X9678071Y-27433171D01*
X9678071Y-27590314D01*
X10263786Y-27276029D02*
X10006643Y-27661743D01*
X10649500Y-27290314D02*
X10678071Y-27290314D01*
X10706643Y-27304600D01*
X10720928Y-27318886D01*
X10735214Y-27347457D01*
X10749500Y-27404600D01*
X10749500Y-27476029D01*
X10735214Y-27533171D01*
X10720928Y-27561743D01*
X10706643Y-27576029D01*
X10678071Y-27590314D01*
X10649500Y-27590314D01*
X10620928Y-27576029D01*
X10606643Y-27561743D01*
X10592357Y-27533171D01*
X10578071Y-27476029D01*
X10578071Y-27404600D01*
X10592357Y-27347457D01*
X10606643Y-27318886D01*
X10620928Y-27304600D01*
X10649500Y-27290314D01*
X10878071Y-27561743D02*
X10892357Y-27576029D01*
X10878071Y-27590314D01*
X10863786Y-27576029D01*
X10878071Y-27561743D01*
X10878071Y-27590314D01*
X11078071Y-27290314D02*
X11106643Y-27290314D01*
X11135214Y-27304600D01*
X11149500Y-27318886D01*
X11163786Y-27347457D01*
X11178071Y-27404600D01*
X11178071Y-27476029D01*
X11163786Y-27533171D01*
X11149500Y-27561743D01*
X11135214Y-27576029D01*
X11106643Y-27590314D01*
X11078071Y-27590314D01*
X11049500Y-27576029D01*
X11035214Y-27561743D01*
X11020928Y-27533171D01*
X11006643Y-27476029D01*
X11006643Y-27404600D01*
X11020928Y-27347457D01*
X11035214Y-27318886D01*
X11049500Y-27304600D01*
X11078071Y-27290314D01*
X11292357Y-27318886D02*
X11306643Y-27304600D01*
X11335214Y-27290314D01*
X11406643Y-27290314D01*
X11435214Y-27304600D01*
X11449500Y-27318886D01*
X11463786Y-27347457D01*
X11463786Y-27376029D01*
X11449500Y-27418886D01*
X11278071Y-27590314D01*
X11463786Y-27590314D01*
X11720928Y-27390314D02*
X11720928Y-27590314D01*
X11649500Y-27276029D02*
X11578071Y-27490314D01*
X11763786Y-27490314D01*
X11863786Y-27290314D02*
X11863786Y-27347457D01*
X11978071Y-27290314D02*
X11978071Y-27347457D01*
X12420928Y-27704600D02*
X12406643Y-27690314D01*
X12378071Y-27647457D01*
X12363786Y-27618886D01*
X12349500Y-27576029D01*
X12335214Y-27504600D01*
X12335214Y-27447457D01*
X12349500Y-27376029D01*
X12363786Y-27333171D01*
X12378071Y-27304600D01*
X12406643Y-27261743D01*
X12420928Y-27247457D01*
X12506643Y-27290314D02*
X12706643Y-27290314D01*
X12578071Y-27590314D01*
X12806643Y-27318886D02*
X12820928Y-27304600D01*
X12849500Y-27290314D01*
X12920928Y-27290314D01*
X12949500Y-27304600D01*
X12963786Y-27318886D01*
X12978071Y-27347457D01*
X12978071Y-27376029D01*
X12963786Y-27418886D01*
X12792357Y-27590314D01*
X12978071Y-27590314D01*
X13335214Y-27590314D02*
X13335214Y-27290314D01*
X13463786Y-27590314D02*
X13463786Y-27433171D01*
X13449500Y-27404600D01*
X13420928Y-27390314D01*
X13378071Y-27390314D01*
X13349500Y-27404600D01*
X13335214Y-27418886D01*
X13649500Y-27590314D02*
X13620928Y-27576029D01*
X13606643Y-27561743D01*
X13592357Y-27533171D01*
X13592357Y-27447457D01*
X13606643Y-27418886D01*
X13620928Y-27404600D01*
X13649500Y-27390314D01*
X13692357Y-27390314D01*
X13720928Y-27404600D01*
X13735214Y-27418886D01*
X13749500Y-27447457D01*
X13749500Y-27533171D01*
X13735214Y-27561743D01*
X13720928Y-27576029D01*
X13692357Y-27590314D01*
X13649500Y-27590314D01*
X13920928Y-27590314D02*
X13892357Y-27576029D01*
X13878071Y-27547457D01*
X13878071Y-27290314D01*
X14149500Y-27576029D02*
X14120928Y-27590314D01*
X14063786Y-27590314D01*
X14035214Y-27576029D01*
X14020928Y-27547457D01*
X14020928Y-27433171D01*
X14035214Y-27404600D01*
X14063786Y-27390314D01*
X14120928Y-27390314D01*
X14149500Y-27404600D01*
X14163786Y-27433171D01*
X14163786Y-27461743D01*
X14020928Y-27490314D01*
X14278071Y-27576029D02*
X14306643Y-27590314D01*
X14363786Y-27590314D01*
X14392357Y-27576029D01*
X14406643Y-27547457D01*
X14406643Y-27533171D01*
X14392357Y-27504600D01*
X14363786Y-27490314D01*
X14320928Y-27490314D01*
X14292357Y-27476029D01*
X14278071Y-27447457D01*
X14278071Y-27433171D01*
X14292357Y-27404600D01*
X14320928Y-27390314D01*
X14363786Y-27390314D01*
X14392357Y-27404600D01*
X14506643Y-27704600D02*
X14520928Y-27690314D01*
X14549500Y-27647457D01*
X14563786Y-27618886D01*
X14578071Y-27576029D01*
X14592357Y-27504600D01*
X14592357Y-27447457D01*
X14578071Y-27376029D01*
X14563786Y-27333171D01*
X14549500Y-27304600D01*
X14520928Y-27261743D01*
X14506643Y-27247457D01*
X7699500Y-27815600D02*
X7699500Y-27885600D01*
X7664500Y-27850600D02*
X7734500Y-27850600D01*
X8078071Y-27686314D02*
X8106643Y-27686314D01*
X8135214Y-27700600D01*
X8149500Y-27714886D01*
X8163786Y-27743457D01*
X8178071Y-27800600D01*
X8178071Y-27872029D01*
X8163786Y-27929171D01*
X8149500Y-27957743D01*
X8135214Y-27972029D01*
X8106643Y-27986314D01*
X8078071Y-27986314D01*
X8049500Y-27972029D01*
X8035214Y-27957743D01*
X8020928Y-27929171D01*
X8006643Y-27872029D01*
X8006643Y-27800600D01*
X8020928Y-27743457D01*
X8035214Y-27714886D01*
X8049500Y-27700600D01*
X8078071Y-27686314D01*
X8306643Y-27957743D02*
X8320928Y-27972029D01*
X8306643Y-27986314D01*
X8292357Y-27972029D01*
X8306643Y-27957743D01*
X8306643Y-27986314D01*
X8420928Y-27686314D02*
X8620928Y-27686314D01*
X8492357Y-27986314D01*
X8792357Y-27686314D02*
X8820928Y-27686314D01*
X8849500Y-27700600D01*
X8863786Y-27714886D01*
X8878071Y-27743457D01*
X8892357Y-27800600D01*
X8892357Y-27872029D01*
X8878071Y-27929171D01*
X8863786Y-27957743D01*
X8849500Y-27972029D01*
X8820928Y-27986314D01*
X8792357Y-27986314D01*
X8763786Y-27972029D01*
X8749500Y-27957743D01*
X8735214Y-27929171D01*
X8720928Y-27872029D01*
X8720928Y-27800600D01*
X8735214Y-27743457D01*
X8749500Y-27714886D01*
X8763786Y-27700600D01*
X8792357Y-27686314D01*
X9020928Y-27986314D02*
X9020928Y-27786314D01*
X9020928Y-27814886D02*
X9035214Y-27800600D01*
X9063786Y-27786314D01*
X9106643Y-27786314D01*
X9135214Y-27800600D01*
X9149500Y-27829171D01*
X9149500Y-27986314D01*
X9149500Y-27829171D02*
X9163786Y-27800600D01*
X9192357Y-27786314D01*
X9235214Y-27786314D01*
X9263786Y-27800600D01*
X9278071Y-27829171D01*
X9278071Y-27986314D01*
X9420928Y-27986314D02*
X9420928Y-27786314D01*
X9420928Y-27814886D02*
X9435214Y-27800600D01*
X9463786Y-27786314D01*
X9506643Y-27786314D01*
X9535214Y-27800600D01*
X9549500Y-27829171D01*
X9549500Y-27986314D01*
X9549500Y-27829171D02*
X9563786Y-27800600D01*
X9592357Y-27786314D01*
X9635214Y-27786314D01*
X9663786Y-27800600D01*
X9678071Y-27829171D01*
X9678071Y-27986314D01*
X10263786Y-27672029D02*
X10006643Y-28057743D01*
X10649500Y-27686314D02*
X10678071Y-27686314D01*
X10706643Y-27700600D01*
X10720928Y-27714886D01*
X10735214Y-27743457D01*
X10749500Y-27800600D01*
X10749500Y-27872029D01*
X10735214Y-27929171D01*
X10720928Y-27957743D01*
X10706643Y-27972029D01*
X10678071Y-27986314D01*
X10649500Y-27986314D01*
X10620928Y-27972029D01*
X10606643Y-27957743D01*
X10592357Y-27929171D01*
X10578071Y-27872029D01*
X10578071Y-27800600D01*
X10592357Y-27743457D01*
X10606643Y-27714886D01*
X10620928Y-27700600D01*
X10649500Y-27686314D01*
X10878071Y-27957743D02*
X10892357Y-27972029D01*
X10878071Y-27986314D01*
X10863786Y-27972029D01*
X10878071Y-27957743D01*
X10878071Y-27986314D01*
X11078071Y-27686314D02*
X11106643Y-27686314D01*
X11135214Y-27700600D01*
X11149500Y-27714886D01*
X11163786Y-27743457D01*
X11178071Y-27800600D01*
X11178071Y-27872029D01*
X11163786Y-27929171D01*
X11149500Y-27957743D01*
X11135214Y-27972029D01*
X11106643Y-27986314D01*
X11078071Y-27986314D01*
X11049500Y-27972029D01*
X11035214Y-27957743D01*
X11020928Y-27929171D01*
X11006643Y-27872029D01*
X11006643Y-27800600D01*
X11020928Y-27743457D01*
X11035214Y-27714886D01*
X11049500Y-27700600D01*
X11078071Y-27686314D01*
X11292357Y-27714886D02*
X11306643Y-27700600D01*
X11335214Y-27686314D01*
X11406643Y-27686314D01*
X11435214Y-27700600D01*
X11449500Y-27714886D01*
X11463786Y-27743457D01*
X11463786Y-27772029D01*
X11449500Y-27814886D01*
X11278071Y-27986314D01*
X11463786Y-27986314D01*
X11635214Y-27814886D02*
X11606643Y-27800600D01*
X11592357Y-27786314D01*
X11578071Y-27757743D01*
X11578071Y-27743457D01*
X11592357Y-27714886D01*
X11606643Y-27700600D01*
X11635214Y-27686314D01*
X11692357Y-27686314D01*
X11720928Y-27700600D01*
X11735214Y-27714886D01*
X11749500Y-27743457D01*
X11749500Y-27757743D01*
X11735214Y-27786314D01*
X11720928Y-27800600D01*
X11692357Y-27814886D01*
X11635214Y-27814886D01*
X11606643Y-27829171D01*
X11592357Y-27843457D01*
X11578071Y-27872029D01*
X11578071Y-27929171D01*
X11592357Y-27957743D01*
X11606643Y-27972029D01*
X11635214Y-27986314D01*
X11692357Y-27986314D01*
X11720928Y-27972029D01*
X11735214Y-27957743D01*
X11749500Y-27929171D01*
X11749500Y-27872029D01*
X11735214Y-27843457D01*
X11720928Y-27829171D01*
X11692357Y-27814886D01*
X11863786Y-27686314D02*
X11863786Y-27743457D01*
X11978071Y-27686314D02*
X11978071Y-27743457D01*
X12420928Y-28100600D02*
X12406643Y-28086314D01*
X12378071Y-28043457D01*
X12363786Y-28014886D01*
X12349500Y-27972029D01*
X12335214Y-27900600D01*
X12335214Y-27843457D01*
X12349500Y-27772029D01*
X12363786Y-27729171D01*
X12378071Y-27700600D01*
X12406643Y-27657743D01*
X12420928Y-27643457D01*
X12520928Y-27714886D02*
X12535214Y-27700600D01*
X12563786Y-27686314D01*
X12635214Y-27686314D01*
X12663786Y-27700600D01*
X12678071Y-27714886D01*
X12692357Y-27743457D01*
X12692357Y-27772029D01*
X12678071Y-27814886D01*
X12506643Y-27986314D01*
X12692357Y-27986314D01*
X13049500Y-27986314D02*
X13049500Y-27686314D01*
X13178071Y-27986314D02*
X13178071Y-27829171D01*
X13163786Y-27800600D01*
X13135214Y-27786314D01*
X13092357Y-27786314D01*
X13063786Y-27800600D01*
X13049500Y-27814886D01*
X13363786Y-27986314D02*
X13335214Y-27972029D01*
X13320928Y-27957743D01*
X13306643Y-27929171D01*
X13306643Y-27843457D01*
X13320928Y-27814886D01*
X13335214Y-27800600D01*
X13363786Y-27786314D01*
X13406643Y-27786314D01*
X13435214Y-27800600D01*
X13449500Y-27814886D01*
X13463786Y-27843457D01*
X13463786Y-27929171D01*
X13449500Y-27957743D01*
X13435214Y-27972029D01*
X13406643Y-27986314D01*
X13363786Y-27986314D01*
X13635214Y-27986314D02*
X13606643Y-27972029D01*
X13592357Y-27943457D01*
X13592357Y-27686314D01*
X13863786Y-27972029D02*
X13835214Y-27986314D01*
X13778071Y-27986314D01*
X13749500Y-27972029D01*
X13735214Y-27943457D01*
X13735214Y-27829171D01*
X13749500Y-27800600D01*
X13778071Y-27786314D01*
X13835214Y-27786314D01*
X13863786Y-27800600D01*
X13878071Y-27829171D01*
X13878071Y-27857743D01*
X13735214Y-27886314D01*
X13992357Y-27972029D02*
X14020928Y-27986314D01*
X14078071Y-27986314D01*
X14106643Y-27972029D01*
X14120928Y-27943457D01*
X14120928Y-27929171D01*
X14106643Y-27900600D01*
X14078071Y-27886314D01*
X14035214Y-27886314D01*
X14006643Y-27872029D01*
X13992357Y-27843457D01*
X13992357Y-27829171D01*
X14006643Y-27800600D01*
X14035214Y-27786314D01*
X14078071Y-27786314D01*
X14106643Y-27800600D01*
X14220928Y-28100600D02*
X14235214Y-28086314D01*
X14263786Y-28043457D01*
X14278071Y-28014886D01*
X14292357Y-27972029D01*
X14306643Y-27900600D01*
X14306643Y-27843457D01*
X14292357Y-27772029D01*
X14278071Y-27729171D01*
X14263786Y-27700600D01*
X14235214Y-27657743D01*
X14220928Y-27643457D01*
X7723341Y-28273541D02*
X7723341Y-28219659D01*
X7669459Y-28219659D01*
X7669459Y-28273541D01*
X7723341Y-28273541D01*
X8078071Y-28082314D02*
X8106643Y-28082314D01*
X8135214Y-28096600D01*
X8149500Y-28110886D01*
X8163786Y-28139457D01*
X8178071Y-28196600D01*
X8178071Y-28268029D01*
X8163786Y-28325171D01*
X8149500Y-28353743D01*
X8135214Y-28368029D01*
X8106643Y-28382314D01*
X8078071Y-28382314D01*
X8049500Y-28368029D01*
X8035214Y-28353743D01*
X8020928Y-28325171D01*
X8006643Y-28268029D01*
X8006643Y-28196600D01*
X8020928Y-28139457D01*
X8035214Y-28110886D01*
X8049500Y-28096600D01*
X8078071Y-28082314D01*
X8306643Y-28353743D02*
X8320928Y-28368029D01*
X8306643Y-28382314D01*
X8292357Y-28368029D01*
X8306643Y-28353743D01*
X8306643Y-28382314D01*
X8420928Y-28082314D02*
X8620928Y-28082314D01*
X8492357Y-28382314D01*
X8863786Y-28082314D02*
X8806643Y-28082314D01*
X8778071Y-28096600D01*
X8763786Y-28110886D01*
X8735214Y-28153743D01*
X8720928Y-28210886D01*
X8720928Y-28325171D01*
X8735214Y-28353743D01*
X8749500Y-28368029D01*
X8778071Y-28382314D01*
X8835214Y-28382314D01*
X8863786Y-28368029D01*
X8878071Y-28353743D01*
X8892357Y-28325171D01*
X8892357Y-28253743D01*
X8878071Y-28225171D01*
X8863786Y-28210886D01*
X8835214Y-28196600D01*
X8778071Y-28196600D01*
X8749500Y-28210886D01*
X8735214Y-28225171D01*
X8720928Y-28253743D01*
X9020928Y-28382314D02*
X9020928Y-28182314D01*
X9020928Y-28210886D02*
X9035214Y-28196600D01*
X9063786Y-28182314D01*
X9106643Y-28182314D01*
X9135214Y-28196600D01*
X9149500Y-28225171D01*
X9149500Y-28382314D01*
X9149500Y-28225171D02*
X9163786Y-28196600D01*
X9192357Y-28182314D01*
X9235214Y-28182314D01*
X9263786Y-28196600D01*
X9278071Y-28225171D01*
X9278071Y-28382314D01*
X9420928Y-28382314D02*
X9420928Y-28182314D01*
X9420928Y-28210886D02*
X9435214Y-28196600D01*
X9463786Y-28182314D01*
X9506643Y-28182314D01*
X9535214Y-28196600D01*
X9549500Y-28225171D01*
X9549500Y-28382314D01*
X9549500Y-28225171D02*
X9563786Y-28196600D01*
X9592357Y-28182314D01*
X9635214Y-28182314D01*
X9663786Y-28196600D01*
X9678071Y-28225171D01*
X9678071Y-28382314D01*
X10263786Y-28068029D02*
X10006643Y-28453743D01*
X10649500Y-28082314D02*
X10678071Y-28082314D01*
X10706643Y-28096600D01*
X10720928Y-28110886D01*
X10735214Y-28139457D01*
X10749500Y-28196600D01*
X10749500Y-28268029D01*
X10735214Y-28325171D01*
X10720928Y-28353743D01*
X10706643Y-28368029D01*
X10678071Y-28382314D01*
X10649500Y-28382314D01*
X10620928Y-28368029D01*
X10606643Y-28353743D01*
X10592357Y-28325171D01*
X10578071Y-28268029D01*
X10578071Y-28196600D01*
X10592357Y-28139457D01*
X10606643Y-28110886D01*
X10620928Y-28096600D01*
X10649500Y-28082314D01*
X10878071Y-28353743D02*
X10892357Y-28368029D01*
X10878071Y-28382314D01*
X10863786Y-28368029D01*
X10878071Y-28353743D01*
X10878071Y-28382314D01*
X11078071Y-28082314D02*
X11106643Y-28082314D01*
X11135214Y-28096600D01*
X11149500Y-28110886D01*
X11163786Y-28139457D01*
X11178071Y-28196600D01*
X11178071Y-28268029D01*
X11163786Y-28325171D01*
X11149500Y-28353743D01*
X11135214Y-28368029D01*
X11106643Y-28382314D01*
X11078071Y-28382314D01*
X11049500Y-28368029D01*
X11035214Y-28353743D01*
X11020928Y-28325171D01*
X11006643Y-28268029D01*
X11006643Y-28196600D01*
X11020928Y-28139457D01*
X11035214Y-28110886D01*
X11049500Y-28096600D01*
X11078071Y-28082314D01*
X11278071Y-28082314D02*
X11463786Y-28082314D01*
X11363786Y-28196600D01*
X11406643Y-28196600D01*
X11435214Y-28210886D01*
X11449500Y-28225171D01*
X11463786Y-28253743D01*
X11463786Y-28325171D01*
X11449500Y-28353743D01*
X11435214Y-28368029D01*
X11406643Y-28382314D01*
X11320928Y-28382314D01*
X11292357Y-28368029D01*
X11278071Y-28353743D01*
X11649500Y-28082314D02*
X11678071Y-28082314D01*
X11706643Y-28096600D01*
X11720928Y-28110886D01*
X11735214Y-28139457D01*
X11749500Y-28196600D01*
X11749500Y-28268029D01*
X11735214Y-28325171D01*
X11720928Y-28353743D01*
X11706643Y-28368029D01*
X11678071Y-28382314D01*
X11649500Y-28382314D01*
X11620928Y-28368029D01*
X11606643Y-28353743D01*
X11592357Y-28325171D01*
X11578071Y-28268029D01*
X11578071Y-28196600D01*
X11592357Y-28139457D01*
X11606643Y-28110886D01*
X11620928Y-28096600D01*
X11649500Y-28082314D01*
X11863786Y-28082314D02*
X11863786Y-28139457D01*
X11978071Y-28082314D02*
X11978071Y-28139457D01*
X12420928Y-28496600D02*
X12406643Y-28482314D01*
X12378071Y-28439457D01*
X12363786Y-28410886D01*
X12349500Y-28368029D01*
X12335214Y-28296600D01*
X12335214Y-28239457D01*
X12349500Y-28168029D01*
X12363786Y-28125171D01*
X12378071Y-28096600D01*
X12406643Y-28053743D01*
X12420928Y-28039457D01*
X12520928Y-28110886D02*
X12535214Y-28096600D01*
X12563786Y-28082314D01*
X12635214Y-28082314D01*
X12663786Y-28096600D01*
X12678071Y-28110886D01*
X12692357Y-28139457D01*
X12692357Y-28168029D01*
X12678071Y-28210886D01*
X12506643Y-28382314D01*
X12692357Y-28382314D01*
X12878071Y-28082314D02*
X12906643Y-28082314D01*
X12935214Y-28096600D01*
X12949500Y-28110886D01*
X12963786Y-28139457D01*
X12978071Y-28196600D01*
X12978071Y-28268029D01*
X12963786Y-28325171D01*
X12949500Y-28353743D01*
X12935214Y-28368029D01*
X12906643Y-28382314D01*
X12878071Y-28382314D01*
X12849500Y-28368029D01*
X12835214Y-28353743D01*
X12820928Y-28325171D01*
X12806643Y-28268029D01*
X12806643Y-28196600D01*
X12820928Y-28139457D01*
X12835214Y-28110886D01*
X12849500Y-28096600D01*
X12878071Y-28082314D01*
X13235214Y-28182314D02*
X13235214Y-28382314D01*
X13163786Y-28068029D02*
X13092357Y-28282314D01*
X13278071Y-28282314D01*
X13620928Y-28382314D02*
X13620928Y-28082314D01*
X13749500Y-28382314D02*
X13749500Y-28225171D01*
X13735214Y-28196600D01*
X13706643Y-28182314D01*
X13663786Y-28182314D01*
X13635214Y-28196600D01*
X13620928Y-28210886D01*
X13935214Y-28382314D02*
X13906643Y-28368029D01*
X13892357Y-28353743D01*
X13878071Y-28325171D01*
X13878071Y-28239457D01*
X13892357Y-28210886D01*
X13906643Y-28196600D01*
X13935214Y-28182314D01*
X13978071Y-28182314D01*
X14006643Y-28196600D01*
X14020928Y-28210886D01*
X14035214Y-28239457D01*
X14035214Y-28325171D01*
X14020928Y-28353743D01*
X14006643Y-28368029D01*
X13978071Y-28382314D01*
X13935214Y-28382314D01*
X14206643Y-28382314D02*
X14178071Y-28368029D01*
X14163786Y-28339457D01*
X14163786Y-28082314D01*
X14435214Y-28368029D02*
X14406643Y-28382314D01*
X14349500Y-28382314D01*
X14320928Y-28368029D01*
X14306643Y-28339457D01*
X14306643Y-28225171D01*
X14320928Y-28196600D01*
X14349500Y-28182314D01*
X14406643Y-28182314D01*
X14435214Y-28196600D01*
X14449500Y-28225171D01*
X14449500Y-28253743D01*
X14306643Y-28282314D01*
X14563786Y-28368029D02*
X14592357Y-28382314D01*
X14649500Y-28382314D01*
X14678071Y-28368029D01*
X14692357Y-28339457D01*
X14692357Y-28325171D01*
X14678071Y-28296600D01*
X14649500Y-28282314D01*
X14606643Y-28282314D01*
X14578071Y-28268029D01*
X14563786Y-28239457D01*
X14563786Y-28225171D01*
X14578071Y-28196600D01*
X14606643Y-28182314D01*
X14649500Y-28182314D01*
X14678071Y-28196600D01*
X14792357Y-28496600D02*
X14806643Y-28482314D01*
X14835214Y-28439457D01*
X14849500Y-28410886D01*
X14863786Y-28368029D01*
X14878071Y-28296600D01*
X14878071Y-28239457D01*
X14863786Y-28168029D01*
X14849500Y-28125171D01*
X14835214Y-28096600D01*
X14806643Y-28053743D01*
X14792357Y-28039457D01*
X7694500Y-28682600D02*
X7734500Y-28642600D01*
X7694500Y-28602600D01*
X7654500Y-28642600D01*
X7694500Y-28682600D01*
X8078071Y-28478314D02*
X8106643Y-28478314D01*
X8135214Y-28492600D01*
X8149500Y-28506886D01*
X8163786Y-28535457D01*
X8178071Y-28592600D01*
X8178071Y-28664029D01*
X8163786Y-28721171D01*
X8149500Y-28749743D01*
X8135214Y-28764029D01*
X8106643Y-28778314D01*
X8078071Y-28778314D01*
X8049500Y-28764029D01*
X8035214Y-28749743D01*
X8020928Y-28721171D01*
X8006643Y-28664029D01*
X8006643Y-28592600D01*
X8020928Y-28535457D01*
X8035214Y-28506886D01*
X8049500Y-28492600D01*
X8078071Y-28478314D01*
X8306643Y-28749743D02*
X8320928Y-28764029D01*
X8306643Y-28778314D01*
X8292357Y-28764029D01*
X8306643Y-28749743D01*
X8306643Y-28778314D01*
X8492357Y-28606886D02*
X8463786Y-28592600D01*
X8449500Y-28578314D01*
X8435214Y-28549743D01*
X8435214Y-28535457D01*
X8449500Y-28506886D01*
X8463786Y-28492600D01*
X8492357Y-28478314D01*
X8549500Y-28478314D01*
X8578071Y-28492600D01*
X8592357Y-28506886D01*
X8606643Y-28535457D01*
X8606643Y-28549743D01*
X8592357Y-28578314D01*
X8578071Y-28592600D01*
X8549500Y-28606886D01*
X8492357Y-28606886D01*
X8463786Y-28621171D01*
X8449500Y-28635457D01*
X8435214Y-28664029D01*
X8435214Y-28721171D01*
X8449500Y-28749743D01*
X8463786Y-28764029D01*
X8492357Y-28778314D01*
X8549500Y-28778314D01*
X8578071Y-28764029D01*
X8592357Y-28749743D01*
X8606643Y-28721171D01*
X8606643Y-28664029D01*
X8592357Y-28635457D01*
X8578071Y-28621171D01*
X8549500Y-28606886D01*
X8792357Y-28478314D02*
X8820928Y-28478314D01*
X8849500Y-28492600D01*
X8863786Y-28506886D01*
X8878071Y-28535457D01*
X8892357Y-28592600D01*
X8892357Y-28664029D01*
X8878071Y-28721171D01*
X8863786Y-28749743D01*
X8849500Y-28764029D01*
X8820928Y-28778314D01*
X8792357Y-28778314D01*
X8763786Y-28764029D01*
X8749500Y-28749743D01*
X8735214Y-28721171D01*
X8720928Y-28664029D01*
X8720928Y-28592600D01*
X8735214Y-28535457D01*
X8749500Y-28506886D01*
X8763786Y-28492600D01*
X8792357Y-28478314D01*
X9020928Y-28778314D02*
X9020928Y-28578314D01*
X9020928Y-28606886D02*
X9035214Y-28592600D01*
X9063786Y-28578314D01*
X9106643Y-28578314D01*
X9135214Y-28592600D01*
X9149500Y-28621171D01*
X9149500Y-28778314D01*
X9149500Y-28621171D02*
X9163786Y-28592600D01*
X9192357Y-28578314D01*
X9235214Y-28578314D01*
X9263786Y-28592600D01*
X9278071Y-28621171D01*
X9278071Y-28778314D01*
X9420928Y-28778314D02*
X9420928Y-28578314D01*
X9420928Y-28606886D02*
X9435214Y-28592600D01*
X9463786Y-28578314D01*
X9506643Y-28578314D01*
X9535214Y-28592600D01*
X9549500Y-28621171D01*
X9549500Y-28778314D01*
X9549500Y-28621171D02*
X9563786Y-28592600D01*
X9592357Y-28578314D01*
X9635214Y-28578314D01*
X9663786Y-28592600D01*
X9678071Y-28621171D01*
X9678071Y-28778314D01*
X10263786Y-28464029D02*
X10006643Y-28849743D01*
X10649500Y-28478314D02*
X10678071Y-28478314D01*
X10706643Y-28492600D01*
X10720928Y-28506886D01*
X10735214Y-28535457D01*
X10749500Y-28592600D01*
X10749500Y-28664029D01*
X10735214Y-28721171D01*
X10720928Y-28749743D01*
X10706643Y-28764029D01*
X10678071Y-28778314D01*
X10649500Y-28778314D01*
X10620928Y-28764029D01*
X10606643Y-28749743D01*
X10592357Y-28721171D01*
X10578071Y-28664029D01*
X10578071Y-28592600D01*
X10592357Y-28535457D01*
X10606643Y-28506886D01*
X10620928Y-28492600D01*
X10649500Y-28478314D01*
X10878071Y-28749743D02*
X10892357Y-28764029D01*
X10878071Y-28778314D01*
X10863786Y-28764029D01*
X10878071Y-28749743D01*
X10878071Y-28778314D01*
X11078071Y-28478314D02*
X11106643Y-28478314D01*
X11135214Y-28492600D01*
X11149500Y-28506886D01*
X11163786Y-28535457D01*
X11178071Y-28592600D01*
X11178071Y-28664029D01*
X11163786Y-28721171D01*
X11149500Y-28749743D01*
X11135214Y-28764029D01*
X11106643Y-28778314D01*
X11078071Y-28778314D01*
X11049500Y-28764029D01*
X11035214Y-28749743D01*
X11020928Y-28721171D01*
X11006643Y-28664029D01*
X11006643Y-28592600D01*
X11020928Y-28535457D01*
X11035214Y-28506886D01*
X11049500Y-28492600D01*
X11078071Y-28478314D01*
X11278071Y-28478314D02*
X11463786Y-28478314D01*
X11363786Y-28592600D01*
X11406643Y-28592600D01*
X11435214Y-28606886D01*
X11449500Y-28621171D01*
X11463786Y-28649743D01*
X11463786Y-28721171D01*
X11449500Y-28749743D01*
X11435214Y-28764029D01*
X11406643Y-28778314D01*
X11320928Y-28778314D01*
X11292357Y-28764029D01*
X11278071Y-28749743D01*
X11749500Y-28778314D02*
X11578071Y-28778314D01*
X11663786Y-28778314D02*
X11663786Y-28478314D01*
X11635214Y-28521171D01*
X11606643Y-28549743D01*
X11578071Y-28564029D01*
X11863786Y-28478314D02*
X11863786Y-28535457D01*
X11978071Y-28478314D02*
X11978071Y-28535457D01*
X12420928Y-28892600D02*
X12406643Y-28878314D01*
X12378071Y-28835457D01*
X12363786Y-28806886D01*
X12349500Y-28764029D01*
X12335214Y-28692600D01*
X12335214Y-28635457D01*
X12349500Y-28564029D01*
X12363786Y-28521171D01*
X12378071Y-28492600D01*
X12406643Y-28449743D01*
X12420928Y-28435457D01*
X12692357Y-28778314D02*
X12520928Y-28778314D01*
X12606643Y-28778314D02*
X12606643Y-28478314D01*
X12578071Y-28521171D01*
X12549500Y-28549743D01*
X12520928Y-28564029D01*
X12949500Y-28578314D02*
X12949500Y-28778314D01*
X12878071Y-28464029D02*
X12806643Y-28678314D01*
X12992357Y-28678314D01*
X13335214Y-28778314D02*
X13335214Y-28478314D01*
X13463786Y-28778314D02*
X13463786Y-28621171D01*
X13449500Y-28592600D01*
X13420928Y-28578314D01*
X13378071Y-28578314D01*
X13349500Y-28592600D01*
X13335214Y-28606886D01*
X13649500Y-28778314D02*
X13620928Y-28764029D01*
X13606643Y-28749743D01*
X13592357Y-28721171D01*
X13592357Y-28635457D01*
X13606643Y-28606886D01*
X13620928Y-28592600D01*
X13649500Y-28578314D01*
X13692357Y-28578314D01*
X13720928Y-28592600D01*
X13735214Y-28606886D01*
X13749500Y-28635457D01*
X13749500Y-28721171D01*
X13735214Y-28749743D01*
X13720928Y-28764029D01*
X13692357Y-28778314D01*
X13649500Y-28778314D01*
X13920928Y-28778314D02*
X13892357Y-28764029D01*
X13878071Y-28735457D01*
X13878071Y-28478314D01*
X14149500Y-28764029D02*
X14120928Y-28778314D01*
X14063786Y-28778314D01*
X14035214Y-28764029D01*
X14020928Y-28735457D01*
X14020928Y-28621171D01*
X14035214Y-28592600D01*
X14063786Y-28578314D01*
X14120928Y-28578314D01*
X14149500Y-28592600D01*
X14163786Y-28621171D01*
X14163786Y-28649743D01*
X14020928Y-28678314D01*
X14278071Y-28764029D02*
X14306643Y-28778314D01*
X14363786Y-28778314D01*
X14392357Y-28764029D01*
X14406643Y-28735457D01*
X14406643Y-28721171D01*
X14392357Y-28692600D01*
X14363786Y-28678314D01*
X14320928Y-28678314D01*
X14292357Y-28664029D01*
X14278071Y-28635457D01*
X14278071Y-28621171D01*
X14292357Y-28592600D01*
X14320928Y-28578314D01*
X14363786Y-28578314D01*
X14392357Y-28592600D01*
X14506643Y-28892600D02*
X14520928Y-28878314D01*
X14549500Y-28835457D01*
X14563786Y-28806886D01*
X14578071Y-28764029D01*
X14592357Y-28692600D01*
X14592357Y-28635457D01*
X14578071Y-28564029D01*
X14563786Y-28521171D01*
X14549500Y-28492600D01*
X14520928Y-28449743D01*
X14506643Y-28435457D01*
X7644500Y-28993600D02*
X7734500Y-29083600D01*
X7734500Y-28993600D02*
X7644500Y-29083600D01*
X7734500Y-29038600D02*
G75*
G03X7734500Y-29038600I-45000J0D01*
G01*
X8078071Y-28874314D02*
X8106643Y-28874314D01*
X8135214Y-28888600D01*
X8149500Y-28902886D01*
X8163786Y-28931457D01*
X8178071Y-28988600D01*
X8178071Y-29060029D01*
X8163786Y-29117171D01*
X8149500Y-29145743D01*
X8135214Y-29160029D01*
X8106643Y-29174314D01*
X8078071Y-29174314D01*
X8049500Y-29160029D01*
X8035214Y-29145743D01*
X8020928Y-29117171D01*
X8006643Y-29060029D01*
X8006643Y-28988600D01*
X8020928Y-28931457D01*
X8035214Y-28902886D01*
X8049500Y-28888600D01*
X8078071Y-28874314D01*
X8306643Y-29145743D02*
X8320928Y-29160029D01*
X8306643Y-29174314D01*
X8292357Y-29160029D01*
X8306643Y-29145743D01*
X8306643Y-29174314D01*
X8463786Y-29174314D02*
X8520928Y-29174314D01*
X8549500Y-29160029D01*
X8563786Y-29145743D01*
X8592357Y-29102886D01*
X8606643Y-29045743D01*
X8606643Y-28931457D01*
X8592357Y-28902886D01*
X8578071Y-28888600D01*
X8549500Y-28874314D01*
X8492357Y-28874314D01*
X8463786Y-28888600D01*
X8449500Y-28902886D01*
X8435214Y-28931457D01*
X8435214Y-29002886D01*
X8449500Y-29031457D01*
X8463786Y-29045743D01*
X8492357Y-29060029D01*
X8549500Y-29060029D01*
X8578071Y-29045743D01*
X8592357Y-29031457D01*
X8606643Y-29002886D01*
X8792357Y-28874314D02*
X8820928Y-28874314D01*
X8849500Y-28888600D01*
X8863786Y-28902886D01*
X8878071Y-28931457D01*
X8892357Y-28988600D01*
X8892357Y-29060029D01*
X8878071Y-29117171D01*
X8863786Y-29145743D01*
X8849500Y-29160029D01*
X8820928Y-29174314D01*
X8792357Y-29174314D01*
X8763786Y-29160029D01*
X8749500Y-29145743D01*
X8735214Y-29117171D01*
X8720928Y-29060029D01*
X8720928Y-28988600D01*
X8735214Y-28931457D01*
X8749500Y-28902886D01*
X8763786Y-28888600D01*
X8792357Y-28874314D01*
X9020928Y-29174314D02*
X9020928Y-28974314D01*
X9020928Y-29002886D02*
X9035214Y-28988600D01*
X9063786Y-28974314D01*
X9106643Y-28974314D01*
X9135214Y-28988600D01*
X9149500Y-29017171D01*
X9149500Y-29174314D01*
X9149500Y-29017171D02*
X9163786Y-28988600D01*
X9192357Y-28974314D01*
X9235214Y-28974314D01*
X9263786Y-28988600D01*
X9278071Y-29017171D01*
X9278071Y-29174314D01*
X9420928Y-29174314D02*
X9420928Y-28974314D01*
X9420928Y-29002886D02*
X9435214Y-28988600D01*
X9463786Y-28974314D01*
X9506643Y-28974314D01*
X9535214Y-28988600D01*
X9549500Y-29017171D01*
X9549500Y-29174314D01*
X9549500Y-29017171D02*
X9563786Y-28988600D01*
X9592357Y-28974314D01*
X9635214Y-28974314D01*
X9663786Y-28988600D01*
X9678071Y-29017171D01*
X9678071Y-29174314D01*
X10263786Y-28860029D02*
X10006643Y-29245743D01*
X10649500Y-28874314D02*
X10678071Y-28874314D01*
X10706643Y-28888600D01*
X10720928Y-28902886D01*
X10735214Y-28931457D01*
X10749500Y-28988600D01*
X10749500Y-29060029D01*
X10735214Y-29117171D01*
X10720928Y-29145743D01*
X10706643Y-29160029D01*
X10678071Y-29174314D01*
X10649500Y-29174314D01*
X10620928Y-29160029D01*
X10606643Y-29145743D01*
X10592357Y-29117171D01*
X10578071Y-29060029D01*
X10578071Y-28988600D01*
X10592357Y-28931457D01*
X10606643Y-28902886D01*
X10620928Y-28888600D01*
X10649500Y-28874314D01*
X10878071Y-29145743D02*
X10892357Y-29160029D01*
X10878071Y-29174314D01*
X10863786Y-29160029D01*
X10878071Y-29145743D01*
X10878071Y-29174314D01*
X11078071Y-28874314D02*
X11106643Y-28874314D01*
X11135214Y-28888600D01*
X11149500Y-28902886D01*
X11163786Y-28931457D01*
X11178071Y-28988600D01*
X11178071Y-29060029D01*
X11163786Y-29117171D01*
X11149500Y-29145743D01*
X11135214Y-29160029D01*
X11106643Y-29174314D01*
X11078071Y-29174314D01*
X11049500Y-29160029D01*
X11035214Y-29145743D01*
X11020928Y-29117171D01*
X11006643Y-29060029D01*
X11006643Y-28988600D01*
X11020928Y-28931457D01*
X11035214Y-28902886D01*
X11049500Y-28888600D01*
X11078071Y-28874314D01*
X11278071Y-28874314D02*
X11463786Y-28874314D01*
X11363786Y-28988600D01*
X11406643Y-28988600D01*
X11435214Y-29002886D01*
X11449500Y-29017171D01*
X11463786Y-29045743D01*
X11463786Y-29117171D01*
X11449500Y-29145743D01*
X11435214Y-29160029D01*
X11406643Y-29174314D01*
X11320928Y-29174314D01*
X11292357Y-29160029D01*
X11278071Y-29145743D01*
X11735214Y-28874314D02*
X11592357Y-28874314D01*
X11578071Y-29017171D01*
X11592357Y-29002886D01*
X11620928Y-28988600D01*
X11692357Y-28988600D01*
X11720928Y-29002886D01*
X11735214Y-29017171D01*
X11749500Y-29045743D01*
X11749500Y-29117171D01*
X11735214Y-29145743D01*
X11720928Y-29160029D01*
X11692357Y-29174314D01*
X11620928Y-29174314D01*
X11592357Y-29160029D01*
X11578071Y-29145743D01*
X11863786Y-28874314D02*
X11863786Y-28931457D01*
X11978071Y-28874314D02*
X11978071Y-28931457D01*
X12420928Y-29288600D02*
X12406643Y-29274314D01*
X12378071Y-29231457D01*
X12363786Y-29202886D01*
X12349500Y-29160029D01*
X12335214Y-29088600D01*
X12335214Y-29031457D01*
X12349500Y-28960029D01*
X12363786Y-28917171D01*
X12378071Y-28888600D01*
X12406643Y-28845743D01*
X12420928Y-28831457D01*
X12520928Y-28902886D02*
X12535214Y-28888600D01*
X12563786Y-28874314D01*
X12635214Y-28874314D01*
X12663786Y-28888600D01*
X12678071Y-28902886D01*
X12692357Y-28931457D01*
X12692357Y-28960029D01*
X12678071Y-29002886D01*
X12506643Y-29174314D01*
X12692357Y-29174314D01*
X13049500Y-29174314D02*
X13049500Y-28874314D01*
X13178071Y-29174314D02*
X13178071Y-29017171D01*
X13163786Y-28988600D01*
X13135214Y-28974314D01*
X13092357Y-28974314D01*
X13063786Y-28988600D01*
X13049500Y-29002886D01*
X13363786Y-29174314D02*
X13335214Y-29160029D01*
X13320928Y-29145743D01*
X13306643Y-29117171D01*
X13306643Y-29031457D01*
X13320928Y-29002886D01*
X13335214Y-28988600D01*
X13363786Y-28974314D01*
X13406643Y-28974314D01*
X13435214Y-28988600D01*
X13449500Y-29002886D01*
X13463786Y-29031457D01*
X13463786Y-29117171D01*
X13449500Y-29145743D01*
X13435214Y-29160029D01*
X13406643Y-29174314D01*
X13363786Y-29174314D01*
X13635214Y-29174314D02*
X13606643Y-29160029D01*
X13592357Y-29131457D01*
X13592357Y-28874314D01*
X13863786Y-29160029D02*
X13835214Y-29174314D01*
X13778071Y-29174314D01*
X13749500Y-29160029D01*
X13735214Y-29131457D01*
X13735214Y-29017171D01*
X13749500Y-28988600D01*
X13778071Y-28974314D01*
X13835214Y-28974314D01*
X13863786Y-28988600D01*
X13878071Y-29017171D01*
X13878071Y-29045743D01*
X13735214Y-29074314D01*
X13992357Y-29160029D02*
X14020928Y-29174314D01*
X14078071Y-29174314D01*
X14106643Y-29160029D01*
X14120928Y-29131457D01*
X14120928Y-29117171D01*
X14106643Y-29088600D01*
X14078071Y-29074314D01*
X14035214Y-29074314D01*
X14006643Y-29060029D01*
X13992357Y-29031457D01*
X13992357Y-29017171D01*
X14006643Y-28988600D01*
X14035214Y-28974314D01*
X14078071Y-28974314D01*
X14106643Y-28988600D01*
X14220928Y-29288600D02*
X14235214Y-29274314D01*
X14263786Y-29231457D01*
X14278071Y-29202886D01*
X14292357Y-29160029D01*
X14306643Y-29088600D01*
X14306643Y-29031457D01*
X14292357Y-28960029D01*
X14278071Y-28917171D01*
X14263786Y-28888600D01*
X14235214Y-28845743D01*
X14220928Y-28831457D01*
X7634500Y-29384600D02*
X7734500Y-29484600D01*
X7734500Y-29384600D02*
X7634500Y-29484600D01*
X7684500Y-29384600D02*
X7684500Y-29484600D01*
X7634500Y-29434600D02*
X7734500Y-29434600D01*
X8178071Y-29570314D02*
X8006643Y-29570314D01*
X8092357Y-29570314D02*
X8092357Y-29270314D01*
X8063786Y-29313171D01*
X8035214Y-29341743D01*
X8006643Y-29356029D01*
X8306643Y-29541743D02*
X8320928Y-29556029D01*
X8306643Y-29570314D01*
X8292357Y-29556029D01*
X8306643Y-29541743D01*
X8306643Y-29570314D01*
X8506643Y-29270314D02*
X8535214Y-29270314D01*
X8563786Y-29284600D01*
X8578071Y-29298886D01*
X8592357Y-29327457D01*
X8606643Y-29384600D01*
X8606643Y-29456029D01*
X8592357Y-29513171D01*
X8578071Y-29541743D01*
X8563786Y-29556029D01*
X8535214Y-29570314D01*
X8506643Y-29570314D01*
X8478071Y-29556029D01*
X8463786Y-29541743D01*
X8449500Y-29513171D01*
X8435214Y-29456029D01*
X8435214Y-29384600D01*
X8449500Y-29327457D01*
X8463786Y-29298886D01*
X8478071Y-29284600D01*
X8506643Y-29270314D01*
X8792357Y-29270314D02*
X8820928Y-29270314D01*
X8849500Y-29284600D01*
X8863786Y-29298886D01*
X8878071Y-29327457D01*
X8892357Y-29384600D01*
X8892357Y-29456029D01*
X8878071Y-29513171D01*
X8863786Y-29541743D01*
X8849500Y-29556029D01*
X8820928Y-29570314D01*
X8792357Y-29570314D01*
X8763786Y-29556029D01*
X8749500Y-29541743D01*
X8735214Y-29513171D01*
X8720928Y-29456029D01*
X8720928Y-29384600D01*
X8735214Y-29327457D01*
X8749500Y-29298886D01*
X8763786Y-29284600D01*
X8792357Y-29270314D01*
X9020928Y-29570314D02*
X9020928Y-29370314D01*
X9020928Y-29398886D02*
X9035214Y-29384600D01*
X9063786Y-29370314D01*
X9106643Y-29370314D01*
X9135214Y-29384600D01*
X9149500Y-29413171D01*
X9149500Y-29570314D01*
X9149500Y-29413171D02*
X9163786Y-29384600D01*
X9192357Y-29370314D01*
X9235214Y-29370314D01*
X9263786Y-29384600D01*
X9278071Y-29413171D01*
X9278071Y-29570314D01*
X9420928Y-29570314D02*
X9420928Y-29370314D01*
X9420928Y-29398886D02*
X9435214Y-29384600D01*
X9463786Y-29370314D01*
X9506643Y-29370314D01*
X9535214Y-29384600D01*
X9549500Y-29413171D01*
X9549500Y-29570314D01*
X9549500Y-29413171D02*
X9563786Y-29384600D01*
X9592357Y-29370314D01*
X9635214Y-29370314D01*
X9663786Y-29384600D01*
X9678071Y-29413171D01*
X9678071Y-29570314D01*
X10263786Y-29256029D02*
X10006643Y-29641743D01*
X10649500Y-29270314D02*
X10678071Y-29270314D01*
X10706643Y-29284600D01*
X10720928Y-29298886D01*
X10735214Y-29327457D01*
X10749500Y-29384600D01*
X10749500Y-29456029D01*
X10735214Y-29513171D01*
X10720928Y-29541743D01*
X10706643Y-29556029D01*
X10678071Y-29570314D01*
X10649500Y-29570314D01*
X10620928Y-29556029D01*
X10606643Y-29541743D01*
X10592357Y-29513171D01*
X10578071Y-29456029D01*
X10578071Y-29384600D01*
X10592357Y-29327457D01*
X10606643Y-29298886D01*
X10620928Y-29284600D01*
X10649500Y-29270314D01*
X10878071Y-29541743D02*
X10892357Y-29556029D01*
X10878071Y-29570314D01*
X10863786Y-29556029D01*
X10878071Y-29541743D01*
X10878071Y-29570314D01*
X11078071Y-29270314D02*
X11106643Y-29270314D01*
X11135214Y-29284600D01*
X11149500Y-29298886D01*
X11163786Y-29327457D01*
X11178071Y-29384600D01*
X11178071Y-29456029D01*
X11163786Y-29513171D01*
X11149500Y-29541743D01*
X11135214Y-29556029D01*
X11106643Y-29570314D01*
X11078071Y-29570314D01*
X11049500Y-29556029D01*
X11035214Y-29541743D01*
X11020928Y-29513171D01*
X11006643Y-29456029D01*
X11006643Y-29384600D01*
X11020928Y-29327457D01*
X11035214Y-29298886D01*
X11049500Y-29284600D01*
X11078071Y-29270314D01*
X11278071Y-29270314D02*
X11463786Y-29270314D01*
X11363786Y-29384600D01*
X11406643Y-29384600D01*
X11435214Y-29398886D01*
X11449500Y-29413171D01*
X11463786Y-29441743D01*
X11463786Y-29513171D01*
X11449500Y-29541743D01*
X11435214Y-29556029D01*
X11406643Y-29570314D01*
X11320928Y-29570314D01*
X11292357Y-29556029D01*
X11278071Y-29541743D01*
X11606643Y-29570314D02*
X11663786Y-29570314D01*
X11692357Y-29556029D01*
X11706643Y-29541743D01*
X11735214Y-29498886D01*
X11749500Y-29441743D01*
X11749500Y-29327457D01*
X11735214Y-29298886D01*
X11720928Y-29284600D01*
X11692357Y-29270314D01*
X11635214Y-29270314D01*
X11606643Y-29284600D01*
X11592357Y-29298886D01*
X11578071Y-29327457D01*
X11578071Y-29398886D01*
X11592357Y-29427457D01*
X11606643Y-29441743D01*
X11635214Y-29456029D01*
X11692357Y-29456029D01*
X11720928Y-29441743D01*
X11735214Y-29427457D01*
X11749500Y-29398886D01*
X11863786Y-29270314D02*
X11863786Y-29327457D01*
X11978071Y-29270314D02*
X11978071Y-29327457D01*
X12420928Y-29684600D02*
X12406643Y-29670314D01*
X12378071Y-29627457D01*
X12363786Y-29598886D01*
X12349500Y-29556029D01*
X12335214Y-29484600D01*
X12335214Y-29427457D01*
X12349500Y-29356029D01*
X12363786Y-29313171D01*
X12378071Y-29284600D01*
X12406643Y-29241743D01*
X12420928Y-29227457D01*
X12520928Y-29298886D02*
X12535214Y-29284600D01*
X12563786Y-29270314D01*
X12635214Y-29270314D01*
X12663786Y-29284600D01*
X12678071Y-29298886D01*
X12692357Y-29327457D01*
X12692357Y-29356029D01*
X12678071Y-29398886D01*
X12506643Y-29570314D01*
X12692357Y-29570314D01*
X12806643Y-29298886D02*
X12820928Y-29284600D01*
X12849500Y-29270314D01*
X12920928Y-29270314D01*
X12949500Y-29284600D01*
X12963786Y-29298886D01*
X12978071Y-29327457D01*
X12978071Y-29356029D01*
X12963786Y-29398886D01*
X12792357Y-29570314D01*
X12978071Y-29570314D01*
X13335214Y-29570314D02*
X13335214Y-29270314D01*
X13463786Y-29570314D02*
X13463786Y-29413171D01*
X13449500Y-29384600D01*
X13420928Y-29370314D01*
X13378071Y-29370314D01*
X13349500Y-29384600D01*
X13335214Y-29398886D01*
X13649500Y-29570314D02*
X13620928Y-29556029D01*
X13606643Y-29541743D01*
X13592357Y-29513171D01*
X13592357Y-29427457D01*
X13606643Y-29398886D01*
X13620928Y-29384600D01*
X13649500Y-29370314D01*
X13692357Y-29370314D01*
X13720928Y-29384600D01*
X13735214Y-29398886D01*
X13749500Y-29427457D01*
X13749500Y-29513171D01*
X13735214Y-29541743D01*
X13720928Y-29556029D01*
X13692357Y-29570314D01*
X13649500Y-29570314D01*
X13920928Y-29570314D02*
X13892357Y-29556029D01*
X13878071Y-29527457D01*
X13878071Y-29270314D01*
X14149500Y-29556029D02*
X14120928Y-29570314D01*
X14063786Y-29570314D01*
X14035214Y-29556029D01*
X14020928Y-29527457D01*
X14020928Y-29413171D01*
X14035214Y-29384600D01*
X14063786Y-29370314D01*
X14120928Y-29370314D01*
X14149500Y-29384600D01*
X14163786Y-29413171D01*
X14163786Y-29441743D01*
X14020928Y-29470314D01*
X14278071Y-29556029D02*
X14306643Y-29570314D01*
X14363786Y-29570314D01*
X14392357Y-29556029D01*
X14406643Y-29527457D01*
X14406643Y-29513171D01*
X14392357Y-29484600D01*
X14363786Y-29470314D01*
X14320928Y-29470314D01*
X14292357Y-29456029D01*
X14278071Y-29427457D01*
X14278071Y-29413171D01*
X14292357Y-29384600D01*
X14320928Y-29370314D01*
X14363786Y-29370314D01*
X14392357Y-29384600D01*
X14506643Y-29684600D02*
X14520928Y-29670314D01*
X14549500Y-29627457D01*
X14563786Y-29598886D01*
X14578071Y-29556029D01*
X14592357Y-29484600D01*
X14592357Y-29427457D01*
X14578071Y-29356029D01*
X14563786Y-29313171D01*
X14549500Y-29284600D01*
X14520928Y-29241743D01*
X14506643Y-29227457D01*
X7624500Y-29775600D02*
X7734500Y-29885600D01*
X7734500Y-29775600D02*
X7624500Y-29885600D01*
X7718391Y-29869491D02*
X7718391Y-29791709D01*
X7640609Y-29791709D01*
X7640609Y-29869491D01*
X7718391Y-29869491D01*
X8178071Y-29966314D02*
X8006643Y-29966314D01*
X8092357Y-29966314D02*
X8092357Y-29666314D01*
X8063786Y-29709171D01*
X8035214Y-29737743D01*
X8006643Y-29752029D01*
X8306643Y-29937743D02*
X8320928Y-29952029D01*
X8306643Y-29966314D01*
X8292357Y-29952029D01*
X8306643Y-29937743D01*
X8306643Y-29966314D01*
X8606643Y-29966314D02*
X8435214Y-29966314D01*
X8520928Y-29966314D02*
X8520928Y-29666314D01*
X8492357Y-29709171D01*
X8463786Y-29737743D01*
X8435214Y-29752029D01*
X8792357Y-29666314D02*
X8820928Y-29666314D01*
X8849500Y-29680600D01*
X8863786Y-29694886D01*
X8878071Y-29723457D01*
X8892357Y-29780600D01*
X8892357Y-29852029D01*
X8878071Y-29909171D01*
X8863786Y-29937743D01*
X8849500Y-29952029D01*
X8820928Y-29966314D01*
X8792357Y-29966314D01*
X8763786Y-29952029D01*
X8749500Y-29937743D01*
X8735214Y-29909171D01*
X8720928Y-29852029D01*
X8720928Y-29780600D01*
X8735214Y-29723457D01*
X8749500Y-29694886D01*
X8763786Y-29680600D01*
X8792357Y-29666314D01*
X9020928Y-29966314D02*
X9020928Y-29766314D01*
X9020928Y-29794886D02*
X9035214Y-29780600D01*
X9063786Y-29766314D01*
X9106643Y-29766314D01*
X9135214Y-29780600D01*
X9149500Y-29809171D01*
X9149500Y-29966314D01*
X9149500Y-29809171D02*
X9163786Y-29780600D01*
X9192357Y-29766314D01*
X9235214Y-29766314D01*
X9263786Y-29780600D01*
X9278071Y-29809171D01*
X9278071Y-29966314D01*
X9420928Y-29966314D02*
X9420928Y-29766314D01*
X9420928Y-29794886D02*
X9435214Y-29780600D01*
X9463786Y-29766314D01*
X9506643Y-29766314D01*
X9535214Y-29780600D01*
X9549500Y-29809171D01*
X9549500Y-29966314D01*
X9549500Y-29809171D02*
X9563786Y-29780600D01*
X9592357Y-29766314D01*
X9635214Y-29766314D01*
X9663786Y-29780600D01*
X9678071Y-29809171D01*
X9678071Y-29966314D01*
X10263786Y-29652029D02*
X10006643Y-30037743D01*
X10649500Y-29666314D02*
X10678071Y-29666314D01*
X10706643Y-29680600D01*
X10720928Y-29694886D01*
X10735214Y-29723457D01*
X10749500Y-29780600D01*
X10749500Y-29852029D01*
X10735214Y-29909171D01*
X10720928Y-29937743D01*
X10706643Y-29952029D01*
X10678071Y-29966314D01*
X10649500Y-29966314D01*
X10620928Y-29952029D01*
X10606643Y-29937743D01*
X10592357Y-29909171D01*
X10578071Y-29852029D01*
X10578071Y-29780600D01*
X10592357Y-29723457D01*
X10606643Y-29694886D01*
X10620928Y-29680600D01*
X10649500Y-29666314D01*
X10878071Y-29937743D02*
X10892357Y-29952029D01*
X10878071Y-29966314D01*
X10863786Y-29952029D01*
X10878071Y-29937743D01*
X10878071Y-29966314D01*
X11078071Y-29666314D02*
X11106643Y-29666314D01*
X11135214Y-29680600D01*
X11149500Y-29694886D01*
X11163786Y-29723457D01*
X11178071Y-29780600D01*
X11178071Y-29852029D01*
X11163786Y-29909171D01*
X11149500Y-29937743D01*
X11135214Y-29952029D01*
X11106643Y-29966314D01*
X11078071Y-29966314D01*
X11049500Y-29952029D01*
X11035214Y-29937743D01*
X11020928Y-29909171D01*
X11006643Y-29852029D01*
X11006643Y-29780600D01*
X11020928Y-29723457D01*
X11035214Y-29694886D01*
X11049500Y-29680600D01*
X11078071Y-29666314D01*
X11435214Y-29766314D02*
X11435214Y-29966314D01*
X11363786Y-29652029D02*
X11292357Y-29866314D01*
X11478071Y-29866314D01*
X11563786Y-29666314D02*
X11749500Y-29666314D01*
X11649500Y-29780600D01*
X11692357Y-29780600D01*
X11720928Y-29794886D01*
X11735214Y-29809171D01*
X11749500Y-29837743D01*
X11749500Y-29909171D01*
X11735214Y-29937743D01*
X11720928Y-29952029D01*
X11692357Y-29966314D01*
X11606643Y-29966314D01*
X11578071Y-29952029D01*
X11563786Y-29937743D01*
X11863786Y-29666314D02*
X11863786Y-29723457D01*
X11978071Y-29666314D02*
X11978071Y-29723457D01*
X12420928Y-30080600D02*
X12406643Y-30066314D01*
X12378071Y-30023457D01*
X12363786Y-29994886D01*
X12349500Y-29952029D01*
X12335214Y-29880600D01*
X12335214Y-29823457D01*
X12349500Y-29752029D01*
X12363786Y-29709171D01*
X12378071Y-29680600D01*
X12406643Y-29637743D01*
X12420928Y-29623457D01*
X12663786Y-29766314D02*
X12663786Y-29966314D01*
X12592357Y-29652029D02*
X12520928Y-29866314D01*
X12706643Y-29866314D01*
X13049500Y-29966314D02*
X13049500Y-29666314D01*
X13178071Y-29966314D02*
X13178071Y-29809171D01*
X13163786Y-29780600D01*
X13135214Y-29766314D01*
X13092357Y-29766314D01*
X13063786Y-29780600D01*
X13049500Y-29794886D01*
X13363786Y-29966314D02*
X13335214Y-29952029D01*
X13320928Y-29937743D01*
X13306643Y-29909171D01*
X13306643Y-29823457D01*
X13320928Y-29794886D01*
X13335214Y-29780600D01*
X13363786Y-29766314D01*
X13406643Y-29766314D01*
X13435214Y-29780600D01*
X13449500Y-29794886D01*
X13463786Y-29823457D01*
X13463786Y-29909171D01*
X13449500Y-29937743D01*
X13435214Y-29952029D01*
X13406643Y-29966314D01*
X13363786Y-29966314D01*
X13635214Y-29966314D02*
X13606643Y-29952029D01*
X13592357Y-29923457D01*
X13592357Y-29666314D01*
X13863786Y-29952029D02*
X13835214Y-29966314D01*
X13778071Y-29966314D01*
X13749500Y-29952029D01*
X13735214Y-29923457D01*
X13735214Y-29809171D01*
X13749500Y-29780600D01*
X13778071Y-29766314D01*
X13835214Y-29766314D01*
X13863786Y-29780600D01*
X13878071Y-29809171D01*
X13878071Y-29837743D01*
X13735214Y-29866314D01*
X13992357Y-29952029D02*
X14020928Y-29966314D01*
X14078071Y-29966314D01*
X14106643Y-29952029D01*
X14120928Y-29923457D01*
X14120928Y-29909171D01*
X14106643Y-29880600D01*
X14078071Y-29866314D01*
X14035214Y-29866314D01*
X14006643Y-29852029D01*
X13992357Y-29823457D01*
X13992357Y-29809171D01*
X14006643Y-29780600D01*
X14035214Y-29766314D01*
X14078071Y-29766314D01*
X14106643Y-29780600D01*
X14220928Y-30080600D02*
X14235214Y-30066314D01*
X14263786Y-30023457D01*
X14278071Y-29994886D01*
X14292357Y-29952029D01*
X14306643Y-29880600D01*
X14306643Y-29823457D01*
X14292357Y-29752029D01*
X14278071Y-29709171D01*
X14263786Y-29680600D01*
X14235214Y-29637743D01*
X14220928Y-29623457D01*
X7574500Y-30146600D02*
X7734500Y-30306600D01*
X7734500Y-30146600D02*
X7574500Y-30306600D01*
X7654500Y-30306600D02*
X7734500Y-30226600D01*
X7654500Y-30146600D01*
X7574500Y-30226600D01*
X7654500Y-30306600D01*
X8178071Y-30362314D02*
X8006643Y-30362314D01*
X8092357Y-30362314D02*
X8092357Y-30062314D01*
X8063786Y-30105171D01*
X8035214Y-30133743D01*
X8006643Y-30148029D01*
X8306643Y-30333743D02*
X8320928Y-30348029D01*
X8306643Y-30362314D01*
X8292357Y-30348029D01*
X8306643Y-30333743D01*
X8306643Y-30362314D01*
X8578071Y-30062314D02*
X8520928Y-30062314D01*
X8492357Y-30076600D01*
X8478071Y-30090886D01*
X8449500Y-30133743D01*
X8435214Y-30190886D01*
X8435214Y-30305171D01*
X8449500Y-30333743D01*
X8463786Y-30348029D01*
X8492357Y-30362314D01*
X8549500Y-30362314D01*
X8578071Y-30348029D01*
X8592357Y-30333743D01*
X8606643Y-30305171D01*
X8606643Y-30233743D01*
X8592357Y-30205171D01*
X8578071Y-30190886D01*
X8549500Y-30176600D01*
X8492357Y-30176600D01*
X8463786Y-30190886D01*
X8449500Y-30205171D01*
X8435214Y-30233743D01*
X8792357Y-30062314D02*
X8820928Y-30062314D01*
X8849500Y-30076600D01*
X8863786Y-30090886D01*
X8878071Y-30119457D01*
X8892357Y-30176600D01*
X8892357Y-30248029D01*
X8878071Y-30305171D01*
X8863786Y-30333743D01*
X8849500Y-30348029D01*
X8820928Y-30362314D01*
X8792357Y-30362314D01*
X8763786Y-30348029D01*
X8749500Y-30333743D01*
X8735214Y-30305171D01*
X8720928Y-30248029D01*
X8720928Y-30176600D01*
X8735214Y-30119457D01*
X8749500Y-30090886D01*
X8763786Y-30076600D01*
X8792357Y-30062314D01*
X9020928Y-30362314D02*
X9020928Y-30162314D01*
X9020928Y-30190886D02*
X9035214Y-30176600D01*
X9063786Y-30162314D01*
X9106643Y-30162314D01*
X9135214Y-30176600D01*
X9149500Y-30205171D01*
X9149500Y-30362314D01*
X9149500Y-30205171D02*
X9163786Y-30176600D01*
X9192357Y-30162314D01*
X9235214Y-30162314D01*
X9263786Y-30176600D01*
X9278071Y-30205171D01*
X9278071Y-30362314D01*
X9420928Y-30362314D02*
X9420928Y-30162314D01*
X9420928Y-30190886D02*
X9435214Y-30176600D01*
X9463786Y-30162314D01*
X9506643Y-30162314D01*
X9535214Y-30176600D01*
X9549500Y-30205171D01*
X9549500Y-30362314D01*
X9549500Y-30205171D02*
X9563786Y-30176600D01*
X9592357Y-30162314D01*
X9635214Y-30162314D01*
X9663786Y-30176600D01*
X9678071Y-30205171D01*
X9678071Y-30362314D01*
X10263786Y-30048029D02*
X10006643Y-30433743D01*
X10649500Y-30062314D02*
X10678071Y-30062314D01*
X10706643Y-30076600D01*
X10720928Y-30090886D01*
X10735214Y-30119457D01*
X10749500Y-30176600D01*
X10749500Y-30248029D01*
X10735214Y-30305171D01*
X10720928Y-30333743D01*
X10706643Y-30348029D01*
X10678071Y-30362314D01*
X10649500Y-30362314D01*
X10620928Y-30348029D01*
X10606643Y-30333743D01*
X10592357Y-30305171D01*
X10578071Y-30248029D01*
X10578071Y-30176600D01*
X10592357Y-30119457D01*
X10606643Y-30090886D01*
X10620928Y-30076600D01*
X10649500Y-30062314D01*
X10878071Y-30333743D02*
X10892357Y-30348029D01*
X10878071Y-30362314D01*
X10863786Y-30348029D01*
X10878071Y-30333743D01*
X10878071Y-30362314D01*
X11078071Y-30062314D02*
X11106643Y-30062314D01*
X11135214Y-30076600D01*
X11149500Y-30090886D01*
X11163786Y-30119457D01*
X11178071Y-30176600D01*
X11178071Y-30248029D01*
X11163786Y-30305171D01*
X11149500Y-30333743D01*
X11135214Y-30348029D01*
X11106643Y-30362314D01*
X11078071Y-30362314D01*
X11049500Y-30348029D01*
X11035214Y-30333743D01*
X11020928Y-30305171D01*
X11006643Y-30248029D01*
X11006643Y-30176600D01*
X11020928Y-30119457D01*
X11035214Y-30090886D01*
X11049500Y-30076600D01*
X11078071Y-30062314D01*
X11435214Y-30062314D02*
X11378071Y-30062314D01*
X11349500Y-30076600D01*
X11335214Y-30090886D01*
X11306643Y-30133743D01*
X11292357Y-30190886D01*
X11292357Y-30305171D01*
X11306643Y-30333743D01*
X11320928Y-30348029D01*
X11349500Y-30362314D01*
X11406643Y-30362314D01*
X11435214Y-30348029D01*
X11449500Y-30333743D01*
X11463786Y-30305171D01*
X11463786Y-30233743D01*
X11449500Y-30205171D01*
X11435214Y-30190886D01*
X11406643Y-30176600D01*
X11349500Y-30176600D01*
X11320928Y-30190886D01*
X11306643Y-30205171D01*
X11292357Y-30233743D01*
X11563786Y-30062314D02*
X11749500Y-30062314D01*
X11649500Y-30176600D01*
X11692357Y-30176600D01*
X11720928Y-30190886D01*
X11735214Y-30205171D01*
X11749500Y-30233743D01*
X11749500Y-30305171D01*
X11735214Y-30333743D01*
X11720928Y-30348029D01*
X11692357Y-30362314D01*
X11606643Y-30362314D01*
X11578071Y-30348029D01*
X11563786Y-30333743D01*
X11863786Y-30062314D02*
X11863786Y-30119457D01*
X11978071Y-30062314D02*
X11978071Y-30119457D01*
X12420928Y-30476600D02*
X12406643Y-30462314D01*
X12378071Y-30419457D01*
X12363786Y-30390886D01*
X12349500Y-30348029D01*
X12335214Y-30276600D01*
X12335214Y-30219457D01*
X12349500Y-30148029D01*
X12363786Y-30105171D01*
X12378071Y-30076600D01*
X12406643Y-30033743D01*
X12420928Y-30019457D01*
X12578071Y-30190886D02*
X12549500Y-30176600D01*
X12535214Y-30162314D01*
X12520928Y-30133743D01*
X12520928Y-30119457D01*
X12535214Y-30090886D01*
X12549500Y-30076600D01*
X12578071Y-30062314D01*
X12635214Y-30062314D01*
X12663786Y-30076600D01*
X12678071Y-30090886D01*
X12692357Y-30119457D01*
X12692357Y-30133743D01*
X12678071Y-30162314D01*
X12663786Y-30176600D01*
X12635214Y-30190886D01*
X12578071Y-30190886D01*
X12549500Y-30205171D01*
X12535214Y-30219457D01*
X12520928Y-30248029D01*
X12520928Y-30305171D01*
X12535214Y-30333743D01*
X12549500Y-30348029D01*
X12578071Y-30362314D01*
X12635214Y-30362314D01*
X12663786Y-30348029D01*
X12678071Y-30333743D01*
X12692357Y-30305171D01*
X12692357Y-30248029D01*
X12678071Y-30219457D01*
X12663786Y-30205171D01*
X12635214Y-30190886D01*
X13049500Y-30362314D02*
X13049500Y-30062314D01*
X13178071Y-30362314D02*
X13178071Y-30205171D01*
X13163786Y-30176600D01*
X13135214Y-30162314D01*
X13092357Y-30162314D01*
X13063786Y-30176600D01*
X13049500Y-30190886D01*
X13363786Y-30362314D02*
X13335214Y-30348029D01*
X13320928Y-30333743D01*
X13306643Y-30305171D01*
X13306643Y-30219457D01*
X13320928Y-30190886D01*
X13335214Y-30176600D01*
X13363786Y-30162314D01*
X13406643Y-30162314D01*
X13435214Y-30176600D01*
X13449500Y-30190886D01*
X13463786Y-30219457D01*
X13463786Y-30305171D01*
X13449500Y-30333743D01*
X13435214Y-30348029D01*
X13406643Y-30362314D01*
X13363786Y-30362314D01*
X13635214Y-30362314D02*
X13606643Y-30348029D01*
X13592357Y-30319457D01*
X13592357Y-30062314D01*
X13863786Y-30348029D02*
X13835214Y-30362314D01*
X13778071Y-30362314D01*
X13749500Y-30348029D01*
X13735214Y-30319457D01*
X13735214Y-30205171D01*
X13749500Y-30176600D01*
X13778071Y-30162314D01*
X13835214Y-30162314D01*
X13863786Y-30176600D01*
X13878071Y-30205171D01*
X13878071Y-30233743D01*
X13735214Y-30262314D01*
X13992357Y-30348029D02*
X14020928Y-30362314D01*
X14078071Y-30362314D01*
X14106643Y-30348029D01*
X14120928Y-30319457D01*
X14120928Y-30305171D01*
X14106643Y-30276600D01*
X14078071Y-30262314D01*
X14035214Y-30262314D01*
X14006643Y-30248029D01*
X13992357Y-30219457D01*
X13992357Y-30205171D01*
X14006643Y-30176600D01*
X14035214Y-30162314D01*
X14078071Y-30162314D01*
X14106643Y-30176600D01*
X14220928Y-30476600D02*
X14235214Y-30462314D01*
X14263786Y-30419457D01*
X14278071Y-30390886D01*
X14292357Y-30348029D01*
X14306643Y-30276600D01*
X14306643Y-30219457D01*
X14292357Y-30148029D01*
X14278071Y-30105171D01*
X14263786Y-30076600D01*
X14235214Y-30033743D01*
X14220928Y-30019457D01*
X7624500Y-30512600D02*
X7624500Y-30732600D01*
X7514500Y-30622600D02*
X7734500Y-30622600D01*
X7734500Y-30622600D02*
G75*
G03X7734500Y-30622600I-110000J0D01*
G01*
X8006643Y-30486886D02*
X8020928Y-30472600D01*
X8049500Y-30458314D01*
X8120928Y-30458314D01*
X8149500Y-30472600D01*
X8163786Y-30486886D01*
X8178071Y-30515457D01*
X8178071Y-30544029D01*
X8163786Y-30586886D01*
X7992357Y-30758314D01*
X8178071Y-30758314D01*
X8306643Y-30729743D02*
X8320928Y-30744029D01*
X8306643Y-30758314D01*
X8292357Y-30744029D01*
X8306643Y-30729743D01*
X8306643Y-30758314D01*
X8435214Y-30486886D02*
X8449500Y-30472600D01*
X8478071Y-30458314D01*
X8549500Y-30458314D01*
X8578071Y-30472600D01*
X8592357Y-30486886D01*
X8606643Y-30515457D01*
X8606643Y-30544029D01*
X8592357Y-30586886D01*
X8420928Y-30758314D01*
X8606643Y-30758314D01*
X8792357Y-30458314D02*
X8820928Y-30458314D01*
X8849500Y-30472600D01*
X8863786Y-30486886D01*
X8878071Y-30515457D01*
X8892357Y-30572600D01*
X8892357Y-30644029D01*
X8878071Y-30701171D01*
X8863786Y-30729743D01*
X8849500Y-30744029D01*
X8820928Y-30758314D01*
X8792357Y-30758314D01*
X8763786Y-30744029D01*
X8749500Y-30729743D01*
X8735214Y-30701171D01*
X8720928Y-30644029D01*
X8720928Y-30572600D01*
X8735214Y-30515457D01*
X8749500Y-30486886D01*
X8763786Y-30472600D01*
X8792357Y-30458314D01*
X9020928Y-30758314D02*
X9020928Y-30558314D01*
X9020928Y-30586886D02*
X9035214Y-30572600D01*
X9063786Y-30558314D01*
X9106643Y-30558314D01*
X9135214Y-30572600D01*
X9149500Y-30601171D01*
X9149500Y-30758314D01*
X9149500Y-30601171D02*
X9163786Y-30572600D01*
X9192357Y-30558314D01*
X9235214Y-30558314D01*
X9263786Y-30572600D01*
X9278071Y-30601171D01*
X9278071Y-30758314D01*
X9420928Y-30758314D02*
X9420928Y-30558314D01*
X9420928Y-30586886D02*
X9435214Y-30572600D01*
X9463786Y-30558314D01*
X9506643Y-30558314D01*
X9535214Y-30572600D01*
X9549500Y-30601171D01*
X9549500Y-30758314D01*
X9549500Y-30601171D02*
X9563786Y-30572600D01*
X9592357Y-30558314D01*
X9635214Y-30558314D01*
X9663786Y-30572600D01*
X9678071Y-30601171D01*
X9678071Y-30758314D01*
X10263786Y-30444029D02*
X10006643Y-30829743D01*
X10649500Y-30458314D02*
X10678071Y-30458314D01*
X10706643Y-30472600D01*
X10720928Y-30486886D01*
X10735214Y-30515457D01*
X10749500Y-30572600D01*
X10749500Y-30644029D01*
X10735214Y-30701171D01*
X10720928Y-30729743D01*
X10706643Y-30744029D01*
X10678071Y-30758314D01*
X10649500Y-30758314D01*
X10620928Y-30744029D01*
X10606643Y-30729743D01*
X10592357Y-30701171D01*
X10578071Y-30644029D01*
X10578071Y-30572600D01*
X10592357Y-30515457D01*
X10606643Y-30486886D01*
X10620928Y-30472600D01*
X10649500Y-30458314D01*
X10878071Y-30729743D02*
X10892357Y-30744029D01*
X10878071Y-30758314D01*
X10863786Y-30744029D01*
X10878071Y-30729743D01*
X10878071Y-30758314D01*
X11078071Y-30458314D02*
X11106643Y-30458314D01*
X11135214Y-30472600D01*
X11149500Y-30486886D01*
X11163786Y-30515457D01*
X11178071Y-30572600D01*
X11178071Y-30644029D01*
X11163786Y-30701171D01*
X11149500Y-30729743D01*
X11135214Y-30744029D01*
X11106643Y-30758314D01*
X11078071Y-30758314D01*
X11049500Y-30744029D01*
X11035214Y-30729743D01*
X11020928Y-30701171D01*
X11006643Y-30644029D01*
X11006643Y-30572600D01*
X11020928Y-30515457D01*
X11035214Y-30486886D01*
X11049500Y-30472600D01*
X11078071Y-30458314D01*
X11349500Y-30586886D02*
X11320928Y-30572600D01*
X11306643Y-30558314D01*
X11292357Y-30529743D01*
X11292357Y-30515457D01*
X11306643Y-30486886D01*
X11320928Y-30472600D01*
X11349500Y-30458314D01*
X11406643Y-30458314D01*
X11435214Y-30472600D01*
X11449500Y-30486886D01*
X11463786Y-30515457D01*
X11463786Y-30529743D01*
X11449500Y-30558314D01*
X11435214Y-30572600D01*
X11406643Y-30586886D01*
X11349500Y-30586886D01*
X11320928Y-30601171D01*
X11306643Y-30615457D01*
X11292357Y-30644029D01*
X11292357Y-30701171D01*
X11306643Y-30729743D01*
X11320928Y-30744029D01*
X11349500Y-30758314D01*
X11406643Y-30758314D01*
X11435214Y-30744029D01*
X11449500Y-30729743D01*
X11463786Y-30701171D01*
X11463786Y-30644029D01*
X11449500Y-30615457D01*
X11435214Y-30601171D01*
X11406643Y-30586886D01*
X11563786Y-30458314D02*
X11763786Y-30458314D01*
X11635214Y-30758314D01*
X11863786Y-30458314D02*
X11863786Y-30515457D01*
X11978071Y-30458314D02*
X11978071Y-30515457D01*
X12420928Y-30872600D02*
X12406643Y-30858314D01*
X12378071Y-30815457D01*
X12363786Y-30786886D01*
X12349500Y-30744029D01*
X12335214Y-30672600D01*
X12335214Y-30615457D01*
X12349500Y-30544029D01*
X12363786Y-30501171D01*
X12378071Y-30472600D01*
X12406643Y-30429743D01*
X12420928Y-30415457D01*
X12506643Y-30458314D02*
X12692357Y-30458314D01*
X12592357Y-30572600D01*
X12635214Y-30572600D01*
X12663786Y-30586886D01*
X12678071Y-30601171D01*
X12692357Y-30629743D01*
X12692357Y-30701171D01*
X12678071Y-30729743D01*
X12663786Y-30744029D01*
X12635214Y-30758314D01*
X12549500Y-30758314D01*
X12520928Y-30744029D01*
X12506643Y-30729743D01*
X13049500Y-30758314D02*
X13049500Y-30458314D01*
X13178071Y-30758314D02*
X13178071Y-30601171D01*
X13163786Y-30572600D01*
X13135214Y-30558314D01*
X13092357Y-30558314D01*
X13063786Y-30572600D01*
X13049500Y-30586886D01*
X13363786Y-30758314D02*
X13335214Y-30744029D01*
X13320928Y-30729743D01*
X13306643Y-30701171D01*
X13306643Y-30615457D01*
X13320928Y-30586886D01*
X13335214Y-30572600D01*
X13363786Y-30558314D01*
X13406643Y-30558314D01*
X13435214Y-30572600D01*
X13449500Y-30586886D01*
X13463786Y-30615457D01*
X13463786Y-30701171D01*
X13449500Y-30729743D01*
X13435214Y-30744029D01*
X13406643Y-30758314D01*
X13363786Y-30758314D01*
X13635214Y-30758314D02*
X13606643Y-30744029D01*
X13592357Y-30715457D01*
X13592357Y-30458314D01*
X13863786Y-30744029D02*
X13835214Y-30758314D01*
X13778071Y-30758314D01*
X13749500Y-30744029D01*
X13735214Y-30715457D01*
X13735214Y-30601171D01*
X13749500Y-30572600D01*
X13778071Y-30558314D01*
X13835214Y-30558314D01*
X13863786Y-30572600D01*
X13878071Y-30601171D01*
X13878071Y-30629743D01*
X13735214Y-30658314D01*
X13992357Y-30744029D02*
X14020928Y-30758314D01*
X14078071Y-30758314D01*
X14106643Y-30744029D01*
X14120928Y-30715457D01*
X14120928Y-30701171D01*
X14106643Y-30672600D01*
X14078071Y-30658314D01*
X14035214Y-30658314D01*
X14006643Y-30644029D01*
X13992357Y-30615457D01*
X13992357Y-30601171D01*
X14006643Y-30572600D01*
X14035214Y-30558314D01*
X14078071Y-30558314D01*
X14106643Y-30572600D01*
X14220928Y-30872600D02*
X14235214Y-30858314D01*
X14263786Y-30815457D01*
X14278071Y-30786886D01*
X14292357Y-30744029D01*
X14306643Y-30672600D01*
X14306643Y-30615457D01*
X14292357Y-30544029D01*
X14278071Y-30501171D01*
X14263786Y-30472600D01*
X14235214Y-30429743D01*
X14220928Y-30415457D01*
X7671529Y-31170629D02*
X7671529Y-30866571D01*
X7367470Y-30866571D01*
X7367470Y-31170629D01*
X7671529Y-31170629D01*
X7734500Y-31018600D02*
G75*
G03X7734500Y-31018600I-215000J0D01*
G01*
X8149500Y-30954314D02*
X8149500Y-31154314D01*
X8078071Y-30840029D02*
X8006643Y-31054314D01*
X8192357Y-31054314D01*
X8306643Y-31125743D02*
X8320928Y-31140029D01*
X8306643Y-31154314D01*
X8292357Y-31140029D01*
X8306643Y-31125743D01*
X8306643Y-31154314D01*
X8420928Y-30854314D02*
X8606643Y-30854314D01*
X8506643Y-30968600D01*
X8549500Y-30968600D01*
X8578071Y-30982886D01*
X8592357Y-30997171D01*
X8606643Y-31025743D01*
X8606643Y-31097171D01*
X8592357Y-31125743D01*
X8578071Y-31140029D01*
X8549500Y-31154314D01*
X8463786Y-31154314D01*
X8435214Y-31140029D01*
X8420928Y-31125743D01*
X8792357Y-30854314D02*
X8820928Y-30854314D01*
X8849500Y-30868600D01*
X8863786Y-30882886D01*
X8878071Y-30911457D01*
X8892357Y-30968600D01*
X8892357Y-31040029D01*
X8878071Y-31097171D01*
X8863786Y-31125743D01*
X8849500Y-31140029D01*
X8820928Y-31154314D01*
X8792357Y-31154314D01*
X8763786Y-31140029D01*
X8749500Y-31125743D01*
X8735214Y-31097171D01*
X8720928Y-31040029D01*
X8720928Y-30968600D01*
X8735214Y-30911457D01*
X8749500Y-30882886D01*
X8763786Y-30868600D01*
X8792357Y-30854314D01*
X9020928Y-31154314D02*
X9020928Y-30954314D01*
X9020928Y-30982886D02*
X9035214Y-30968600D01*
X9063786Y-30954314D01*
X9106643Y-30954314D01*
X9135214Y-30968600D01*
X9149500Y-30997171D01*
X9149500Y-31154314D01*
X9149500Y-30997171D02*
X9163786Y-30968600D01*
X9192357Y-30954314D01*
X9235214Y-30954314D01*
X9263786Y-30968600D01*
X9278071Y-30997171D01*
X9278071Y-31154314D01*
X9420928Y-31154314D02*
X9420928Y-30954314D01*
X9420928Y-30982886D02*
X9435214Y-30968600D01*
X9463786Y-30954314D01*
X9506643Y-30954314D01*
X9535214Y-30968600D01*
X9549500Y-30997171D01*
X9549500Y-31154314D01*
X9549500Y-30997171D02*
X9563786Y-30968600D01*
X9592357Y-30954314D01*
X9635214Y-30954314D01*
X9663786Y-30968600D01*
X9678071Y-30997171D01*
X9678071Y-31154314D01*
X10263786Y-30840029D02*
X10006643Y-31225743D01*
X10649500Y-30854314D02*
X10678071Y-30854314D01*
X10706643Y-30868600D01*
X10720928Y-30882886D01*
X10735214Y-30911457D01*
X10749500Y-30968600D01*
X10749500Y-31040029D01*
X10735214Y-31097171D01*
X10720928Y-31125743D01*
X10706643Y-31140029D01*
X10678071Y-31154314D01*
X10649500Y-31154314D01*
X10620928Y-31140029D01*
X10606643Y-31125743D01*
X10592357Y-31097171D01*
X10578071Y-31040029D01*
X10578071Y-30968600D01*
X10592357Y-30911457D01*
X10606643Y-30882886D01*
X10620928Y-30868600D01*
X10649500Y-30854314D01*
X10878071Y-31125743D02*
X10892357Y-31140029D01*
X10878071Y-31154314D01*
X10863786Y-31140029D01*
X10878071Y-31125743D01*
X10878071Y-31154314D01*
X11178071Y-31154314D02*
X11006643Y-31154314D01*
X11092357Y-31154314D02*
X11092357Y-30854314D01*
X11063786Y-30897171D01*
X11035214Y-30925743D01*
X11006643Y-30940029D01*
X11435214Y-30854314D02*
X11378071Y-30854314D01*
X11349500Y-30868600D01*
X11335214Y-30882886D01*
X11306643Y-30925743D01*
X11292357Y-30982886D01*
X11292357Y-31097171D01*
X11306643Y-31125743D01*
X11320928Y-31140029D01*
X11349500Y-31154314D01*
X11406643Y-31154314D01*
X11435214Y-31140029D01*
X11449500Y-31125743D01*
X11463786Y-31097171D01*
X11463786Y-31025743D01*
X11449500Y-30997171D01*
X11435214Y-30982886D01*
X11406643Y-30968600D01*
X11349500Y-30968600D01*
X11320928Y-30982886D01*
X11306643Y-30997171D01*
X11292357Y-31025743D01*
X11606643Y-31154314D02*
X11663786Y-31154314D01*
X11692357Y-31140029D01*
X11706643Y-31125743D01*
X11735214Y-31082886D01*
X11749500Y-31025743D01*
X11749500Y-30911457D01*
X11735214Y-30882886D01*
X11720928Y-30868600D01*
X11692357Y-30854314D01*
X11635214Y-30854314D01*
X11606643Y-30868600D01*
X11592357Y-30882886D01*
X11578071Y-30911457D01*
X11578071Y-30982886D01*
X11592357Y-31011457D01*
X11606643Y-31025743D01*
X11635214Y-31040029D01*
X11692357Y-31040029D01*
X11720928Y-31025743D01*
X11735214Y-31011457D01*
X11749500Y-30982886D01*
X11863786Y-30854314D02*
X11863786Y-30911457D01*
X11978071Y-30854314D02*
X11978071Y-30911457D01*
X12420928Y-31268600D02*
X12406643Y-31254314D01*
X12378071Y-31211457D01*
X12363786Y-31182886D01*
X12349500Y-31140029D01*
X12335214Y-31068600D01*
X12335214Y-31011457D01*
X12349500Y-30940029D01*
X12363786Y-30897171D01*
X12378071Y-30868600D01*
X12406643Y-30825743D01*
X12420928Y-30811457D01*
X12663786Y-30954314D02*
X12663786Y-31154314D01*
X12592357Y-30840029D02*
X12520928Y-31054314D01*
X12706643Y-31054314D01*
X13049500Y-31154314D02*
X13049500Y-30854314D01*
X13178071Y-31154314D02*
X13178071Y-30997171D01*
X13163786Y-30968600D01*
X13135214Y-30954314D01*
X13092357Y-30954314D01*
X13063786Y-30968600D01*
X13049500Y-30982886D01*
X13363786Y-31154314D02*
X13335214Y-31140029D01*
X13320928Y-31125743D01*
X13306643Y-31097171D01*
X13306643Y-31011457D01*
X13320928Y-30982886D01*
X13335214Y-30968600D01*
X13363786Y-30954314D01*
X13406643Y-30954314D01*
X13435214Y-30968600D01*
X13449500Y-30982886D01*
X13463786Y-31011457D01*
X13463786Y-31097171D01*
X13449500Y-31125743D01*
X13435214Y-31140029D01*
X13406643Y-31154314D01*
X13363786Y-31154314D01*
X13635214Y-31154314D02*
X13606643Y-31140029D01*
X13592357Y-31111457D01*
X13592357Y-30854314D01*
X13863786Y-31140029D02*
X13835214Y-31154314D01*
X13778071Y-31154314D01*
X13749500Y-31140029D01*
X13735214Y-31111457D01*
X13735214Y-30997171D01*
X13749500Y-30968600D01*
X13778071Y-30954314D01*
X13835214Y-30954314D01*
X13863786Y-30968600D01*
X13878071Y-30997171D01*
X13878071Y-31025743D01*
X13735214Y-31054314D01*
X13992357Y-31140029D02*
X14020928Y-31154314D01*
X14078071Y-31154314D01*
X14106643Y-31140029D01*
X14120928Y-31111457D01*
X14120928Y-31097171D01*
X14106643Y-31068600D01*
X14078071Y-31054314D01*
X14035214Y-31054314D01*
X14006643Y-31040029D01*
X13992357Y-31011457D01*
X13992357Y-30997171D01*
X14006643Y-30968600D01*
X14035214Y-30954314D01*
X14078071Y-30954314D01*
X14106643Y-30968600D01*
X14220928Y-31268600D02*
X14235214Y-31254314D01*
X14263786Y-31211457D01*
X14278071Y-31182886D01*
X14292357Y-31140029D01*
X14306643Y-31068600D01*
X14306643Y-31011457D01*
X14292357Y-30940029D01*
X14278071Y-30897171D01*
X14263786Y-30868600D01*
X14235214Y-30825743D01*
X14220928Y-30811457D01*
X7469500Y-31843600D02*
X7734500Y-31578600D01*
X7469500Y-31313600D01*
X7204500Y-31578600D01*
X7469500Y-31843600D01*
X7734500Y-31578600D02*
G75*
G03X7734500Y-31578600I-265000J0D01*
G01*
X8163786Y-31414314D02*
X8020928Y-31414314D01*
X8006643Y-31557171D01*
X8020928Y-31542886D01*
X8049500Y-31528600D01*
X8120928Y-31528600D01*
X8149500Y-31542886D01*
X8163786Y-31557171D01*
X8178071Y-31585743D01*
X8178071Y-31657171D01*
X8163786Y-31685743D01*
X8149500Y-31700029D01*
X8120928Y-31714314D01*
X8049500Y-31714314D01*
X8020928Y-31700029D01*
X8006643Y-31685743D01*
X8306643Y-31685743D02*
X8320928Y-31700029D01*
X8306643Y-31714314D01*
X8292357Y-31700029D01*
X8306643Y-31685743D01*
X8306643Y-31714314D01*
X8420928Y-31414314D02*
X8606643Y-31414314D01*
X8506643Y-31528600D01*
X8549500Y-31528600D01*
X8578071Y-31542886D01*
X8592357Y-31557171D01*
X8606643Y-31585743D01*
X8606643Y-31657171D01*
X8592357Y-31685743D01*
X8578071Y-31700029D01*
X8549500Y-31714314D01*
X8463786Y-31714314D01*
X8435214Y-31700029D01*
X8420928Y-31685743D01*
X8792357Y-31414314D02*
X8820928Y-31414314D01*
X8849500Y-31428600D01*
X8863786Y-31442886D01*
X8878071Y-31471457D01*
X8892357Y-31528600D01*
X8892357Y-31600029D01*
X8878071Y-31657171D01*
X8863786Y-31685743D01*
X8849500Y-31700029D01*
X8820928Y-31714314D01*
X8792357Y-31714314D01*
X8763786Y-31700029D01*
X8749500Y-31685743D01*
X8735214Y-31657171D01*
X8720928Y-31600029D01*
X8720928Y-31528600D01*
X8735214Y-31471457D01*
X8749500Y-31442886D01*
X8763786Y-31428600D01*
X8792357Y-31414314D01*
X9020928Y-31714314D02*
X9020928Y-31514314D01*
X9020928Y-31542886D02*
X9035214Y-31528600D01*
X9063786Y-31514314D01*
X9106643Y-31514314D01*
X9135214Y-31528600D01*
X9149500Y-31557171D01*
X9149500Y-31714314D01*
X9149500Y-31557171D02*
X9163786Y-31528600D01*
X9192357Y-31514314D01*
X9235214Y-31514314D01*
X9263786Y-31528600D01*
X9278071Y-31557171D01*
X9278071Y-31714314D01*
X9420928Y-31714314D02*
X9420928Y-31514314D01*
X9420928Y-31542886D02*
X9435214Y-31528600D01*
X9463786Y-31514314D01*
X9506643Y-31514314D01*
X9535214Y-31528600D01*
X9549500Y-31557171D01*
X9549500Y-31714314D01*
X9549500Y-31557171D02*
X9563786Y-31528600D01*
X9592357Y-31514314D01*
X9635214Y-31514314D01*
X9663786Y-31528600D01*
X9678071Y-31557171D01*
X9678071Y-31714314D01*
X10263786Y-31400029D02*
X10006643Y-31785743D01*
X10649500Y-31414314D02*
X10678071Y-31414314D01*
X10706643Y-31428600D01*
X10720928Y-31442886D01*
X10735214Y-31471457D01*
X10749500Y-31528600D01*
X10749500Y-31600029D01*
X10735214Y-31657171D01*
X10720928Y-31685743D01*
X10706643Y-31700029D01*
X10678071Y-31714314D01*
X10649500Y-31714314D01*
X10620928Y-31700029D01*
X10606643Y-31685743D01*
X10592357Y-31657171D01*
X10578071Y-31600029D01*
X10578071Y-31528600D01*
X10592357Y-31471457D01*
X10606643Y-31442886D01*
X10620928Y-31428600D01*
X10649500Y-31414314D01*
X10878071Y-31685743D02*
X10892357Y-31700029D01*
X10878071Y-31714314D01*
X10863786Y-31700029D01*
X10878071Y-31685743D01*
X10878071Y-31714314D01*
X11006643Y-31442886D02*
X11020928Y-31428600D01*
X11049500Y-31414314D01*
X11120928Y-31414314D01*
X11149500Y-31428600D01*
X11163786Y-31442886D01*
X11178071Y-31471457D01*
X11178071Y-31500029D01*
X11163786Y-31542886D01*
X10992357Y-31714314D01*
X11178071Y-31714314D01*
X11363786Y-31414314D02*
X11392357Y-31414314D01*
X11420928Y-31428600D01*
X11435214Y-31442886D01*
X11449500Y-31471457D01*
X11463786Y-31528600D01*
X11463786Y-31600029D01*
X11449500Y-31657171D01*
X11435214Y-31685743D01*
X11420928Y-31700029D01*
X11392357Y-31714314D01*
X11363786Y-31714314D01*
X11335214Y-31700029D01*
X11320928Y-31685743D01*
X11306643Y-31657171D01*
X11292357Y-31600029D01*
X11292357Y-31528600D01*
X11306643Y-31471457D01*
X11320928Y-31442886D01*
X11335214Y-31428600D01*
X11363786Y-31414314D01*
X11606643Y-31714314D02*
X11663786Y-31714314D01*
X11692357Y-31700029D01*
X11706643Y-31685743D01*
X11735214Y-31642886D01*
X11749500Y-31585743D01*
X11749500Y-31471457D01*
X11735214Y-31442886D01*
X11720928Y-31428600D01*
X11692357Y-31414314D01*
X11635214Y-31414314D01*
X11606643Y-31428600D01*
X11592357Y-31442886D01*
X11578071Y-31471457D01*
X11578071Y-31542886D01*
X11592357Y-31571457D01*
X11606643Y-31585743D01*
X11635214Y-31600029D01*
X11692357Y-31600029D01*
X11720928Y-31585743D01*
X11735214Y-31571457D01*
X11749500Y-31542886D01*
X11863786Y-31414314D02*
X11863786Y-31471457D01*
X11978071Y-31414314D02*
X11978071Y-31471457D01*
X12420928Y-31828600D02*
X12406643Y-31814314D01*
X12378071Y-31771457D01*
X12363786Y-31742886D01*
X12349500Y-31700029D01*
X12335214Y-31628600D01*
X12335214Y-31571457D01*
X12349500Y-31500029D01*
X12363786Y-31457171D01*
X12378071Y-31428600D01*
X12406643Y-31385743D01*
X12420928Y-31371457D01*
X12678071Y-31414314D02*
X12535214Y-31414314D01*
X12520928Y-31557171D01*
X12535214Y-31542886D01*
X12563786Y-31528600D01*
X12635214Y-31528600D01*
X12663786Y-31542886D01*
X12678071Y-31557171D01*
X12692357Y-31585743D01*
X12692357Y-31657171D01*
X12678071Y-31685743D01*
X12663786Y-31700029D01*
X12635214Y-31714314D01*
X12563786Y-31714314D01*
X12535214Y-31700029D01*
X12520928Y-31685743D01*
X13049500Y-31714314D02*
X13049500Y-31414314D01*
X13178071Y-31714314D02*
X13178071Y-31557171D01*
X13163786Y-31528600D01*
X13135214Y-31514314D01*
X13092357Y-31514314D01*
X13063786Y-31528600D01*
X13049500Y-31542886D01*
X13363786Y-31714314D02*
X13335214Y-31700029D01*
X13320928Y-31685743D01*
X13306643Y-31657171D01*
X13306643Y-31571457D01*
X13320928Y-31542886D01*
X13335214Y-31528600D01*
X13363786Y-31514314D01*
X13406643Y-31514314D01*
X13435214Y-31528600D01*
X13449500Y-31542886D01*
X13463786Y-31571457D01*
X13463786Y-31657171D01*
X13449500Y-31685743D01*
X13435214Y-31700029D01*
X13406643Y-31714314D01*
X13363786Y-31714314D01*
X13635214Y-31714314D02*
X13606643Y-31700029D01*
X13592357Y-31671457D01*
X13592357Y-31414314D01*
X13863786Y-31700029D02*
X13835214Y-31714314D01*
X13778071Y-31714314D01*
X13749500Y-31700029D01*
X13735214Y-31671457D01*
X13735214Y-31557171D01*
X13749500Y-31528600D01*
X13778071Y-31514314D01*
X13835214Y-31514314D01*
X13863786Y-31528600D01*
X13878071Y-31557171D01*
X13878071Y-31585743D01*
X13735214Y-31614314D01*
X13992357Y-31700029D02*
X14020928Y-31714314D01*
X14078071Y-31714314D01*
X14106643Y-31700029D01*
X14120928Y-31671457D01*
X14120928Y-31657171D01*
X14106643Y-31628600D01*
X14078071Y-31614314D01*
X14035214Y-31614314D01*
X14006643Y-31600029D01*
X13992357Y-31571457D01*
X13992357Y-31557171D01*
X14006643Y-31528600D01*
X14035214Y-31514314D01*
X14078071Y-31514314D01*
X14106643Y-31528600D01*
X14220928Y-31828600D02*
X14235214Y-31814314D01*
X14263786Y-31771457D01*
X14278071Y-31742886D01*
X14292357Y-31700029D01*
X14306643Y-31628600D01*
X14306643Y-31571457D01*
X14292357Y-31500029D01*
X14278071Y-31457171D01*
X14263786Y-31428600D01*
X14235214Y-31385743D01*
X14220928Y-31371457D01*
M02*
