%FSLAX45Y45*%
G04 Gerber Fmt 4.5, Leading zero omitted, Abs format (unit mm)*
G04 Created by KiCad (PCBNEW (5.0.2)-1) date 30.01.2020 16:06:45*
%MOMM*%
%LPD*%
G01*
G04 APERTURE LIST*
%ADD10C,0.150000*%
%ADD11C,0.200000*%
%ADD12C,0.300000*%
G04 APERTURE END LIST*
D10*
X15240000Y-6223000D02*
G75*
G02X15176500Y-6286500I-63500J0D01*
G01*
D11*
X15240000Y-5397500D02*
X15240000Y-6223000D01*
D10*
X15176500Y-5334000D02*
G75*
G02X15240000Y-5397500I0J-63500D01*
G01*
D11*
X13652500Y-6286500D02*
X15176500Y-6286500D01*
D10*
X13589000Y-5397500D02*
G75*
G02X13652500Y-5334000I63500J0D01*
G01*
X13652500Y-6286500D02*
G75*
G02X13589000Y-6223000I0J63500D01*
G01*
X13589000Y-5397500D02*
X13589000Y-6223000D01*
D11*
X13652500Y-5334000D02*
X15176500Y-5334000D01*
D11*
X13779500Y-5505450D02*
X13855700Y-5581650D01*
X13855700Y-5505450D02*
X13779500Y-5581650D01*
X13779500Y-5765800D02*
X13855700Y-5842000D01*
X13855700Y-5765800D02*
X13779500Y-5842000D01*
X13779500Y-6026150D02*
X13855700Y-6102350D01*
X13855700Y-6026150D02*
X13779500Y-6102350D01*
X15169350Y-5562600D02*
G75*
G03X15169350Y-5562600I-50000J0D01*
G01*
X15175700Y-5816600D02*
G75*
G03X15175700Y-5816600I-50000J0D01*
G01*
X15175700Y-6070600D02*
G75*
G03X15175700Y-6070600I-50000J0D01*
G01*
D12*
X13867928Y-6762214D02*
X13867928Y-6462214D01*
X13939357Y-6462214D01*
X13982214Y-6476500D01*
X14010786Y-6505071D01*
X14025071Y-6533643D01*
X14039357Y-6590786D01*
X14039357Y-6633643D01*
X14025071Y-6690786D01*
X14010786Y-6719357D01*
X13982214Y-6747929D01*
X13939357Y-6762214D01*
X13867928Y-6762214D01*
X14167928Y-6762214D02*
X14167928Y-6562214D01*
X14167928Y-6619357D02*
X14182214Y-6590786D01*
X14196500Y-6576500D01*
X14225071Y-6562214D01*
X14253643Y-6562214D01*
X14353643Y-6762214D02*
X14353643Y-6562214D01*
X14353643Y-6462214D02*
X14339357Y-6476500D01*
X14353643Y-6490786D01*
X14367928Y-6476500D01*
X14353643Y-6462214D01*
X14353643Y-6490786D01*
X14539357Y-6762214D02*
X14510786Y-6747929D01*
X14496500Y-6719357D01*
X14496500Y-6462214D01*
X14696500Y-6762214D02*
X14667928Y-6747929D01*
X14653643Y-6719357D01*
X14653643Y-6462214D01*
X15039357Y-6762214D02*
X15039357Y-6462214D01*
X15139357Y-6676500D01*
X15239357Y-6462214D01*
X15239357Y-6762214D01*
X15510786Y-6762214D02*
X15510786Y-6605071D01*
X15496500Y-6576500D01*
X15467928Y-6562214D01*
X15410786Y-6562214D01*
X15382214Y-6576500D01*
X15510786Y-6747929D02*
X15482214Y-6762214D01*
X15410786Y-6762214D01*
X15382214Y-6747929D01*
X15367928Y-6719357D01*
X15367928Y-6690786D01*
X15382214Y-6662214D01*
X15410786Y-6647929D01*
X15482214Y-6647929D01*
X15510786Y-6633643D01*
X15653643Y-6562214D02*
X15653643Y-6862214D01*
X15653643Y-6576500D02*
X15682214Y-6562214D01*
X15739357Y-6562214D01*
X15767928Y-6576500D01*
X15782214Y-6590786D01*
X15796500Y-6619357D01*
X15796500Y-6705071D01*
X15782214Y-6733643D01*
X15767928Y-6747929D01*
X15739357Y-6762214D01*
X15682214Y-6762214D01*
X15653643Y-6747929D01*
X15925071Y-6733643D02*
X15939357Y-6747929D01*
X15925071Y-6762214D01*
X15910786Y-6747929D01*
X15925071Y-6733643D01*
X15925071Y-6762214D01*
X15925071Y-6576500D02*
X15939357Y-6590786D01*
X15925071Y-6605071D01*
X15910786Y-6590786D01*
X15925071Y-6576500D01*
X15925071Y-6605071D01*
X13505300Y-7218400D02*
X13581500Y-7294600D01*
X13581500Y-7218400D02*
X13505300Y-7294600D01*
X13925071Y-7092214D02*
X13953643Y-7092214D01*
X13982214Y-7106500D01*
X13996500Y-7120786D01*
X14010786Y-7149357D01*
X14025071Y-7206500D01*
X14025071Y-7277929D01*
X14010786Y-7335071D01*
X13996500Y-7363643D01*
X13982214Y-7377929D01*
X13953643Y-7392214D01*
X13925071Y-7392214D01*
X13896500Y-7377929D01*
X13882214Y-7363643D01*
X13867928Y-7335071D01*
X13853643Y-7277929D01*
X13853643Y-7206500D01*
X13867928Y-7149357D01*
X13882214Y-7120786D01*
X13896500Y-7106500D01*
X13925071Y-7092214D01*
X14153643Y-7363643D02*
X14167928Y-7377929D01*
X14153643Y-7392214D01*
X14139357Y-7377929D01*
X14153643Y-7363643D01*
X14153643Y-7392214D01*
X14267928Y-7092214D02*
X14467928Y-7092214D01*
X14339357Y-7392214D01*
X14710786Y-7092214D02*
X14653643Y-7092214D01*
X14625071Y-7106500D01*
X14610786Y-7120786D01*
X14582214Y-7163643D01*
X14567928Y-7220786D01*
X14567928Y-7335071D01*
X14582214Y-7363643D01*
X14596500Y-7377929D01*
X14625071Y-7392214D01*
X14682214Y-7392214D01*
X14710786Y-7377929D01*
X14725071Y-7363643D01*
X14739357Y-7335071D01*
X14739357Y-7263643D01*
X14725071Y-7235071D01*
X14710786Y-7220786D01*
X14682214Y-7206500D01*
X14625071Y-7206500D01*
X14596500Y-7220786D01*
X14582214Y-7235071D01*
X14567928Y-7263643D01*
X14867928Y-7392214D02*
X14867928Y-7192214D01*
X14867928Y-7220786D02*
X14882214Y-7206500D01*
X14910786Y-7192214D01*
X14953643Y-7192214D01*
X14982214Y-7206500D01*
X14996500Y-7235071D01*
X14996500Y-7392214D01*
X14996500Y-7235071D02*
X15010786Y-7206500D01*
X15039357Y-7192214D01*
X15082214Y-7192214D01*
X15110786Y-7206500D01*
X15125071Y-7235071D01*
X15125071Y-7392214D01*
X15267928Y-7392214D02*
X15267928Y-7192214D01*
X15267928Y-7220786D02*
X15282214Y-7206500D01*
X15310786Y-7192214D01*
X15353643Y-7192214D01*
X15382214Y-7206500D01*
X15396500Y-7235071D01*
X15396500Y-7392214D01*
X15396500Y-7235071D02*
X15410786Y-7206500D01*
X15439357Y-7192214D01*
X15482214Y-7192214D01*
X15510786Y-7206500D01*
X15525071Y-7235071D01*
X15525071Y-7392214D01*
X16110786Y-7077929D02*
X15853643Y-7463643D01*
X16496500Y-7092214D02*
X16525071Y-7092214D01*
X16553643Y-7106500D01*
X16567928Y-7120786D01*
X16582214Y-7149357D01*
X16596500Y-7206500D01*
X16596500Y-7277929D01*
X16582214Y-7335071D01*
X16567928Y-7363643D01*
X16553643Y-7377929D01*
X16525071Y-7392214D01*
X16496500Y-7392214D01*
X16467928Y-7377929D01*
X16453643Y-7363643D01*
X16439357Y-7335071D01*
X16425071Y-7277929D01*
X16425071Y-7206500D01*
X16439357Y-7149357D01*
X16453643Y-7120786D01*
X16467928Y-7106500D01*
X16496500Y-7092214D01*
X16725071Y-7363643D02*
X16739357Y-7377929D01*
X16725071Y-7392214D01*
X16710786Y-7377929D01*
X16725071Y-7363643D01*
X16725071Y-7392214D01*
X16925071Y-7092214D02*
X16953643Y-7092214D01*
X16982214Y-7106500D01*
X16996500Y-7120786D01*
X17010786Y-7149357D01*
X17025071Y-7206500D01*
X17025071Y-7277929D01*
X17010786Y-7335071D01*
X16996500Y-7363643D01*
X16982214Y-7377929D01*
X16953643Y-7392214D01*
X16925071Y-7392214D01*
X16896500Y-7377929D01*
X16882214Y-7363643D01*
X16867928Y-7335071D01*
X16853643Y-7277929D01*
X16853643Y-7206500D01*
X16867928Y-7149357D01*
X16882214Y-7120786D01*
X16896500Y-7106500D01*
X16925071Y-7092214D01*
X17125071Y-7092214D02*
X17310786Y-7092214D01*
X17210786Y-7206500D01*
X17253643Y-7206500D01*
X17282214Y-7220786D01*
X17296500Y-7235071D01*
X17310786Y-7263643D01*
X17310786Y-7335071D01*
X17296500Y-7363643D01*
X17282214Y-7377929D01*
X17253643Y-7392214D01*
X17167928Y-7392214D01*
X17139357Y-7377929D01*
X17125071Y-7363643D01*
X17496500Y-7092214D02*
X17525071Y-7092214D01*
X17553643Y-7106500D01*
X17567928Y-7120786D01*
X17582214Y-7149357D01*
X17596500Y-7206500D01*
X17596500Y-7277929D01*
X17582214Y-7335071D01*
X17567928Y-7363643D01*
X17553643Y-7377929D01*
X17525071Y-7392214D01*
X17496500Y-7392214D01*
X17467928Y-7377929D01*
X17453643Y-7363643D01*
X17439357Y-7335071D01*
X17425071Y-7277929D01*
X17425071Y-7206500D01*
X17439357Y-7149357D01*
X17453643Y-7120786D01*
X17467928Y-7106500D01*
X17496500Y-7092214D01*
X17710786Y-7092214D02*
X17710786Y-7149357D01*
X17825071Y-7092214D02*
X17825071Y-7149357D01*
X18267928Y-7506500D02*
X18253643Y-7492214D01*
X18225071Y-7449357D01*
X18210786Y-7420786D01*
X18196500Y-7377929D01*
X18182214Y-7306500D01*
X18182214Y-7249357D01*
X18196500Y-7177929D01*
X18210786Y-7135071D01*
X18225071Y-7106500D01*
X18253643Y-7063643D01*
X18267928Y-7049357D01*
X18353643Y-7092214D02*
X18539357Y-7092214D01*
X18439357Y-7206500D01*
X18482214Y-7206500D01*
X18510786Y-7220786D01*
X18525071Y-7235071D01*
X18539357Y-7263643D01*
X18539357Y-7335071D01*
X18525071Y-7363643D01*
X18510786Y-7377929D01*
X18482214Y-7392214D01*
X18396500Y-7392214D01*
X18367928Y-7377929D01*
X18353643Y-7363643D01*
X18896500Y-7392214D02*
X18896500Y-7092214D01*
X19025071Y-7392214D02*
X19025071Y-7235071D01*
X19010786Y-7206500D01*
X18982214Y-7192214D01*
X18939357Y-7192214D01*
X18910786Y-7206500D01*
X18896500Y-7220786D01*
X19210786Y-7392214D02*
X19182214Y-7377929D01*
X19167928Y-7363643D01*
X19153643Y-7335071D01*
X19153643Y-7249357D01*
X19167928Y-7220786D01*
X19182214Y-7206500D01*
X19210786Y-7192214D01*
X19253643Y-7192214D01*
X19282214Y-7206500D01*
X19296500Y-7220786D01*
X19310786Y-7249357D01*
X19310786Y-7335071D01*
X19296500Y-7363643D01*
X19282214Y-7377929D01*
X19253643Y-7392214D01*
X19210786Y-7392214D01*
X19482214Y-7392214D02*
X19453643Y-7377929D01*
X19439357Y-7349357D01*
X19439357Y-7092214D01*
X19710786Y-7377929D02*
X19682214Y-7392214D01*
X19625071Y-7392214D01*
X19596500Y-7377929D01*
X19582214Y-7349357D01*
X19582214Y-7235071D01*
X19596500Y-7206500D01*
X19625071Y-7192214D01*
X19682214Y-7192214D01*
X19710786Y-7206500D01*
X19725071Y-7235071D01*
X19725071Y-7263643D01*
X19582214Y-7292214D01*
X19839357Y-7377929D02*
X19867928Y-7392214D01*
X19925071Y-7392214D01*
X19953643Y-7377929D01*
X19967928Y-7349357D01*
X19967928Y-7335071D01*
X19953643Y-7306500D01*
X19925071Y-7292214D01*
X19882214Y-7292214D01*
X19853643Y-7277929D01*
X19839357Y-7249357D01*
X19839357Y-7235071D01*
X19853643Y-7206500D01*
X19882214Y-7192214D01*
X19925071Y-7192214D01*
X19953643Y-7206500D01*
X20067928Y-7506500D02*
X20082214Y-7492214D01*
X20110786Y-7449357D01*
X20125071Y-7420786D01*
X20139357Y-7377929D01*
X20153643Y-7306500D01*
X20153643Y-7249357D01*
X20139357Y-7177929D01*
X20125071Y-7135071D01*
X20110786Y-7106500D01*
X20082214Y-7063643D01*
X20067928Y-7049357D01*
X13581500Y-7652500D02*
G75*
G03X13581500Y-7652500I-50000J0D01*
G01*
X14025071Y-7788214D02*
X13853643Y-7788214D01*
X13939357Y-7788214D02*
X13939357Y-7488214D01*
X13910786Y-7531071D01*
X13882214Y-7559643D01*
X13853643Y-7573929D01*
X14153643Y-7759643D02*
X14167928Y-7773929D01*
X14153643Y-7788214D01*
X14139357Y-7773929D01*
X14153643Y-7759643D01*
X14153643Y-7788214D01*
X14353643Y-7488214D02*
X14382214Y-7488214D01*
X14410786Y-7502500D01*
X14425071Y-7516786D01*
X14439357Y-7545357D01*
X14453643Y-7602500D01*
X14453643Y-7673929D01*
X14439357Y-7731071D01*
X14425071Y-7759643D01*
X14410786Y-7773929D01*
X14382214Y-7788214D01*
X14353643Y-7788214D01*
X14325071Y-7773929D01*
X14310786Y-7759643D01*
X14296500Y-7731071D01*
X14282214Y-7673929D01*
X14282214Y-7602500D01*
X14296500Y-7545357D01*
X14310786Y-7516786D01*
X14325071Y-7502500D01*
X14353643Y-7488214D01*
X14639357Y-7488214D02*
X14667928Y-7488214D01*
X14696500Y-7502500D01*
X14710786Y-7516786D01*
X14725071Y-7545357D01*
X14739357Y-7602500D01*
X14739357Y-7673929D01*
X14725071Y-7731071D01*
X14710786Y-7759643D01*
X14696500Y-7773929D01*
X14667928Y-7788214D01*
X14639357Y-7788214D01*
X14610786Y-7773929D01*
X14596500Y-7759643D01*
X14582214Y-7731071D01*
X14567928Y-7673929D01*
X14567928Y-7602500D01*
X14582214Y-7545357D01*
X14596500Y-7516786D01*
X14610786Y-7502500D01*
X14639357Y-7488214D01*
X14867928Y-7788214D02*
X14867928Y-7588214D01*
X14867928Y-7616786D02*
X14882214Y-7602500D01*
X14910786Y-7588214D01*
X14953643Y-7588214D01*
X14982214Y-7602500D01*
X14996500Y-7631071D01*
X14996500Y-7788214D01*
X14996500Y-7631071D02*
X15010786Y-7602500D01*
X15039357Y-7588214D01*
X15082214Y-7588214D01*
X15110786Y-7602500D01*
X15125071Y-7631071D01*
X15125071Y-7788214D01*
X15267928Y-7788214D02*
X15267928Y-7588214D01*
X15267928Y-7616786D02*
X15282214Y-7602500D01*
X15310786Y-7588214D01*
X15353643Y-7588214D01*
X15382214Y-7602500D01*
X15396500Y-7631071D01*
X15396500Y-7788214D01*
X15396500Y-7631071D02*
X15410786Y-7602500D01*
X15439357Y-7588214D01*
X15482214Y-7588214D01*
X15510786Y-7602500D01*
X15525071Y-7631071D01*
X15525071Y-7788214D01*
X16110786Y-7473929D02*
X15853643Y-7859643D01*
X16496500Y-7488214D02*
X16525071Y-7488214D01*
X16553643Y-7502500D01*
X16567928Y-7516786D01*
X16582214Y-7545357D01*
X16596500Y-7602500D01*
X16596500Y-7673929D01*
X16582214Y-7731071D01*
X16567928Y-7759643D01*
X16553643Y-7773929D01*
X16525071Y-7788214D01*
X16496500Y-7788214D01*
X16467928Y-7773929D01*
X16453643Y-7759643D01*
X16439357Y-7731071D01*
X16425071Y-7673929D01*
X16425071Y-7602500D01*
X16439357Y-7545357D01*
X16453643Y-7516786D01*
X16467928Y-7502500D01*
X16496500Y-7488214D01*
X16725071Y-7759643D02*
X16739357Y-7773929D01*
X16725071Y-7788214D01*
X16710786Y-7773929D01*
X16725071Y-7759643D01*
X16725071Y-7788214D01*
X16925071Y-7488214D02*
X16953643Y-7488214D01*
X16982214Y-7502500D01*
X16996500Y-7516786D01*
X17010786Y-7545357D01*
X17025071Y-7602500D01*
X17025071Y-7673929D01*
X17010786Y-7731071D01*
X16996500Y-7759643D01*
X16982214Y-7773929D01*
X16953643Y-7788214D01*
X16925071Y-7788214D01*
X16896500Y-7773929D01*
X16882214Y-7759643D01*
X16867928Y-7731071D01*
X16853643Y-7673929D01*
X16853643Y-7602500D01*
X16867928Y-7545357D01*
X16882214Y-7516786D01*
X16896500Y-7502500D01*
X16925071Y-7488214D01*
X17125071Y-7488214D02*
X17310786Y-7488214D01*
X17210786Y-7602500D01*
X17253643Y-7602500D01*
X17282214Y-7616786D01*
X17296500Y-7631071D01*
X17310786Y-7659643D01*
X17310786Y-7731071D01*
X17296500Y-7759643D01*
X17282214Y-7773929D01*
X17253643Y-7788214D01*
X17167928Y-7788214D01*
X17139357Y-7773929D01*
X17125071Y-7759643D01*
X17453643Y-7788214D02*
X17510786Y-7788214D01*
X17539357Y-7773929D01*
X17553643Y-7759643D01*
X17582214Y-7716786D01*
X17596500Y-7659643D01*
X17596500Y-7545357D01*
X17582214Y-7516786D01*
X17567928Y-7502500D01*
X17539357Y-7488214D01*
X17482214Y-7488214D01*
X17453643Y-7502500D01*
X17439357Y-7516786D01*
X17425071Y-7545357D01*
X17425071Y-7616786D01*
X17439357Y-7645357D01*
X17453643Y-7659643D01*
X17482214Y-7673929D01*
X17539357Y-7673929D01*
X17567928Y-7659643D01*
X17582214Y-7645357D01*
X17596500Y-7616786D01*
X17710786Y-7488214D02*
X17710786Y-7545357D01*
X17825071Y-7488214D02*
X17825071Y-7545357D01*
X18267928Y-7902500D02*
X18253643Y-7888214D01*
X18225071Y-7845357D01*
X18210786Y-7816786D01*
X18196500Y-7773929D01*
X18182214Y-7702500D01*
X18182214Y-7645357D01*
X18196500Y-7573929D01*
X18210786Y-7531071D01*
X18225071Y-7502500D01*
X18253643Y-7459643D01*
X18267928Y-7445357D01*
X18353643Y-7488214D02*
X18539357Y-7488214D01*
X18439357Y-7602500D01*
X18482214Y-7602500D01*
X18510786Y-7616786D01*
X18525071Y-7631071D01*
X18539357Y-7659643D01*
X18539357Y-7731071D01*
X18525071Y-7759643D01*
X18510786Y-7773929D01*
X18482214Y-7788214D01*
X18396500Y-7788214D01*
X18367928Y-7773929D01*
X18353643Y-7759643D01*
X18896500Y-7788214D02*
X18896500Y-7488214D01*
X19025071Y-7788214D02*
X19025071Y-7631071D01*
X19010786Y-7602500D01*
X18982214Y-7588214D01*
X18939357Y-7588214D01*
X18910786Y-7602500D01*
X18896500Y-7616786D01*
X19210786Y-7788214D02*
X19182214Y-7773929D01*
X19167928Y-7759643D01*
X19153643Y-7731071D01*
X19153643Y-7645357D01*
X19167928Y-7616786D01*
X19182214Y-7602500D01*
X19210786Y-7588214D01*
X19253643Y-7588214D01*
X19282214Y-7602500D01*
X19296500Y-7616786D01*
X19310786Y-7645357D01*
X19310786Y-7731071D01*
X19296500Y-7759643D01*
X19282214Y-7773929D01*
X19253643Y-7788214D01*
X19210786Y-7788214D01*
X19482214Y-7788214D02*
X19453643Y-7773929D01*
X19439357Y-7745357D01*
X19439357Y-7488214D01*
X19710786Y-7773929D02*
X19682214Y-7788214D01*
X19625071Y-7788214D01*
X19596500Y-7773929D01*
X19582214Y-7745357D01*
X19582214Y-7631071D01*
X19596500Y-7602500D01*
X19625071Y-7588214D01*
X19682214Y-7588214D01*
X19710786Y-7602500D01*
X19725071Y-7631071D01*
X19725071Y-7659643D01*
X19582214Y-7688214D01*
X19839357Y-7773929D02*
X19867928Y-7788214D01*
X19925071Y-7788214D01*
X19953643Y-7773929D01*
X19967928Y-7745357D01*
X19967928Y-7731071D01*
X19953643Y-7702500D01*
X19925071Y-7688214D01*
X19882214Y-7688214D01*
X19853643Y-7673929D01*
X19839357Y-7645357D01*
X19839357Y-7631071D01*
X19853643Y-7602500D01*
X19882214Y-7588214D01*
X19925071Y-7588214D01*
X19953643Y-7602500D01*
X20067928Y-7902500D02*
X20082214Y-7888214D01*
X20110786Y-7845357D01*
X20125071Y-7816786D01*
X20139357Y-7773929D01*
X20153643Y-7702500D01*
X20153643Y-7645357D01*
X20139357Y-7573929D01*
X20125071Y-7531071D01*
X20110786Y-7502500D01*
X20082214Y-7459643D01*
X20067928Y-7445357D01*
M02*
