G04 #@! TF.GenerationSoftware,KiCad,Pcbnew,(5.0.2)-1*
G04 #@! TF.CreationDate,2020-01-30T16:06:39+01:00*
G04 #@! TF.ProjectId,WS2812B-Protect,57533238-3132-4422-9d50-726f74656374,rev?*
G04 #@! TF.SameCoordinates,Original*
G04 #@! TF.FileFunction,Copper,L1,Top*
G04 #@! TF.FilePolarity,Positive*
%FSLAX46Y46*%
G04 Gerber Fmt 4.6, Leading zero omitted, Abs format (unit mm)*
G04 Created by KiCad (PCBNEW (5.0.2)-1) date 30.01.2020 16:06:39*
%MOMM*%
%LPD*%
G01*
G04 APERTURE LIST*
G04 #@! TA.AperFunction,SMDPad,CuDef*
%ADD10R,0.500000X0.500000*%
G04 #@! TD*
G04 #@! TA.AperFunction,Conductor*
%ADD11C,0.100000*%
G04 #@! TD*
G04 #@! TA.AperFunction,SMDPad,CuDef*
%ADD12C,2.025000*%
G04 #@! TD*
G04 #@! TA.AperFunction,SMDPad,CuDef*
%ADD13C,0.975000*%
G04 #@! TD*
G04 #@! TA.AperFunction,ComponentPad*
%ADD14R,1.700000X1.700000*%
G04 #@! TD*
G04 #@! TA.AperFunction,ComponentPad*
%ADD15O,1.700000X1.700000*%
G04 #@! TD*
G04 #@! TA.AperFunction,ComponentPad*
%ADD16C,1.800000*%
G04 #@! TD*
G04 #@! TA.AperFunction,Conductor*
%ADD17C,1.500000*%
G04 #@! TD*
G04 #@! TA.AperFunction,Conductor*
%ADD18C,0.250000*%
G04 #@! TD*
G04 #@! TA.AperFunction,Conductor*
%ADD19C,0.254000*%
G04 #@! TD*
G04 APERTURE END LIST*
D10*
G04 #@! TO.P,D1,1*
G04 #@! TO.N,Net-(D1-Pad1)*
X143764000Y-54526000D03*
G04 #@! TO.P,D1,2*
G04 #@! TO.N,Net-(D1-Pad2)*
X143764000Y-56726000D03*
G04 #@! TD*
G04 #@! TO.P,D2,2*
G04 #@! TO.N,Net-(D2-Pad2)*
X143764000Y-61615500D03*
G04 #@! TO.P,D2,1*
G04 #@! TO.N,Net-(D1-Pad2)*
X143764000Y-59415500D03*
G04 #@! TD*
D11*
G04 #@! TO.N,Net-(D1-Pad1)*
G04 #@! TO.C,D3*
G36*
X148729504Y-55196204D02*
X148753773Y-55199804D01*
X148777571Y-55205765D01*
X148800671Y-55214030D01*
X148822849Y-55224520D01*
X148843893Y-55237133D01*
X148863598Y-55251747D01*
X148881777Y-55268223D01*
X148898253Y-55286402D01*
X148912867Y-55306107D01*
X148925480Y-55327151D01*
X148935970Y-55349329D01*
X148944235Y-55372429D01*
X148950196Y-55396227D01*
X148953796Y-55420496D01*
X148955000Y-55445000D01*
X148955000Y-56970000D01*
X148953796Y-56994504D01*
X148950196Y-57018773D01*
X148944235Y-57042571D01*
X148935970Y-57065671D01*
X148925480Y-57087849D01*
X148912867Y-57108893D01*
X148898253Y-57128598D01*
X148881777Y-57146777D01*
X148863598Y-57163253D01*
X148843893Y-57177867D01*
X148822849Y-57190480D01*
X148800671Y-57200970D01*
X148777571Y-57209235D01*
X148753773Y-57215196D01*
X148729504Y-57218796D01*
X148705000Y-57220000D01*
X145555000Y-57220000D01*
X145530496Y-57218796D01*
X145506227Y-57215196D01*
X145482429Y-57209235D01*
X145459329Y-57200970D01*
X145437151Y-57190480D01*
X145416107Y-57177867D01*
X145396402Y-57163253D01*
X145378223Y-57146777D01*
X145361747Y-57128598D01*
X145347133Y-57108893D01*
X145334520Y-57087849D01*
X145324030Y-57065671D01*
X145315765Y-57042571D01*
X145309804Y-57018773D01*
X145306204Y-56994504D01*
X145305000Y-56970000D01*
X145305000Y-55445000D01*
X145306204Y-55420496D01*
X145309804Y-55396227D01*
X145315765Y-55372429D01*
X145324030Y-55349329D01*
X145334520Y-55327151D01*
X145347133Y-55306107D01*
X145361747Y-55286402D01*
X145378223Y-55268223D01*
X145396402Y-55251747D01*
X145416107Y-55237133D01*
X145437151Y-55224520D01*
X145459329Y-55214030D01*
X145482429Y-55205765D01*
X145506227Y-55199804D01*
X145530496Y-55196204D01*
X145555000Y-55195000D01*
X148705000Y-55195000D01*
X148729504Y-55196204D01*
X148729504Y-55196204D01*
G37*
D12*
G04 #@! TD*
G04 #@! TO.P,D3,1*
G04 #@! TO.N,Net-(D1-Pad1)*
X147130000Y-56207500D03*
D11*
G04 #@! TO.N,Net-(D2-Pad2)*
G04 #@! TO.C,D3*
G36*
X148729504Y-59621204D02*
X148753773Y-59624804D01*
X148777571Y-59630765D01*
X148800671Y-59639030D01*
X148822849Y-59649520D01*
X148843893Y-59662133D01*
X148863598Y-59676747D01*
X148881777Y-59693223D01*
X148898253Y-59711402D01*
X148912867Y-59731107D01*
X148925480Y-59752151D01*
X148935970Y-59774329D01*
X148944235Y-59797429D01*
X148950196Y-59821227D01*
X148953796Y-59845496D01*
X148955000Y-59870000D01*
X148955000Y-61395000D01*
X148953796Y-61419504D01*
X148950196Y-61443773D01*
X148944235Y-61467571D01*
X148935970Y-61490671D01*
X148925480Y-61512849D01*
X148912867Y-61533893D01*
X148898253Y-61553598D01*
X148881777Y-61571777D01*
X148863598Y-61588253D01*
X148843893Y-61602867D01*
X148822849Y-61615480D01*
X148800671Y-61625970D01*
X148777571Y-61634235D01*
X148753773Y-61640196D01*
X148729504Y-61643796D01*
X148705000Y-61645000D01*
X145555000Y-61645000D01*
X145530496Y-61643796D01*
X145506227Y-61640196D01*
X145482429Y-61634235D01*
X145459329Y-61625970D01*
X145437151Y-61615480D01*
X145416107Y-61602867D01*
X145396402Y-61588253D01*
X145378223Y-61571777D01*
X145361747Y-61553598D01*
X145347133Y-61533893D01*
X145334520Y-61512849D01*
X145324030Y-61490671D01*
X145315765Y-61467571D01*
X145309804Y-61443773D01*
X145306204Y-61419504D01*
X145305000Y-61395000D01*
X145305000Y-59870000D01*
X145306204Y-59845496D01*
X145309804Y-59821227D01*
X145315765Y-59797429D01*
X145324030Y-59774329D01*
X145334520Y-59752151D01*
X145347133Y-59731107D01*
X145361747Y-59711402D01*
X145378223Y-59693223D01*
X145396402Y-59676747D01*
X145416107Y-59662133D01*
X145437151Y-59649520D01*
X145459329Y-59639030D01*
X145482429Y-59630765D01*
X145506227Y-59624804D01*
X145530496Y-59621204D01*
X145555000Y-59620000D01*
X148705000Y-59620000D01*
X148729504Y-59621204D01*
X148729504Y-59621204D01*
G37*
D12*
G04 #@! TD*
G04 #@! TO.P,D3,2*
G04 #@! TO.N,Net-(D2-Pad2)*
X147130000Y-60632500D03*
D11*
G04 #@! TO.N,Net-(J1-Pad2)*
G04 #@! TO.C,R1*
G36*
X142085142Y-56488174D02*
X142108803Y-56491684D01*
X142132007Y-56497496D01*
X142154529Y-56505554D01*
X142176153Y-56515782D01*
X142196670Y-56528079D01*
X142215883Y-56542329D01*
X142233607Y-56558393D01*
X142249671Y-56576117D01*
X142263921Y-56595330D01*
X142276218Y-56615847D01*
X142286446Y-56637471D01*
X142294504Y-56659993D01*
X142300316Y-56683197D01*
X142303826Y-56706858D01*
X142305000Y-56730750D01*
X142305000Y-57218250D01*
X142303826Y-57242142D01*
X142300316Y-57265803D01*
X142294504Y-57289007D01*
X142286446Y-57311529D01*
X142276218Y-57333153D01*
X142263921Y-57353670D01*
X142249671Y-57372883D01*
X142233607Y-57390607D01*
X142215883Y-57406671D01*
X142196670Y-57420921D01*
X142176153Y-57433218D01*
X142154529Y-57443446D01*
X142132007Y-57451504D01*
X142108803Y-57457316D01*
X142085142Y-57460826D01*
X142061250Y-57462000D01*
X141148750Y-57462000D01*
X141124858Y-57460826D01*
X141101197Y-57457316D01*
X141077993Y-57451504D01*
X141055471Y-57443446D01*
X141033847Y-57433218D01*
X141013330Y-57420921D01*
X140994117Y-57406671D01*
X140976393Y-57390607D01*
X140960329Y-57372883D01*
X140946079Y-57353670D01*
X140933782Y-57333153D01*
X140923554Y-57311529D01*
X140915496Y-57289007D01*
X140909684Y-57265803D01*
X140906174Y-57242142D01*
X140905000Y-57218250D01*
X140905000Y-56730750D01*
X140906174Y-56706858D01*
X140909684Y-56683197D01*
X140915496Y-56659993D01*
X140923554Y-56637471D01*
X140933782Y-56615847D01*
X140946079Y-56595330D01*
X140960329Y-56576117D01*
X140976393Y-56558393D01*
X140994117Y-56542329D01*
X141013330Y-56528079D01*
X141033847Y-56515782D01*
X141055471Y-56505554D01*
X141077993Y-56497496D01*
X141101197Y-56491684D01*
X141124858Y-56488174D01*
X141148750Y-56487000D01*
X142061250Y-56487000D01*
X142085142Y-56488174D01*
X142085142Y-56488174D01*
G37*
D13*
G04 #@! TD*
G04 #@! TO.P,R1,1*
G04 #@! TO.N,Net-(J1-Pad2)*
X141605000Y-56974500D03*
D11*
G04 #@! TO.N,Net-(D1-Pad2)*
G04 #@! TO.C,R1*
G36*
X142085142Y-58363174D02*
X142108803Y-58366684D01*
X142132007Y-58372496D01*
X142154529Y-58380554D01*
X142176153Y-58390782D01*
X142196670Y-58403079D01*
X142215883Y-58417329D01*
X142233607Y-58433393D01*
X142249671Y-58451117D01*
X142263921Y-58470330D01*
X142276218Y-58490847D01*
X142286446Y-58512471D01*
X142294504Y-58534993D01*
X142300316Y-58558197D01*
X142303826Y-58581858D01*
X142305000Y-58605750D01*
X142305000Y-59093250D01*
X142303826Y-59117142D01*
X142300316Y-59140803D01*
X142294504Y-59164007D01*
X142286446Y-59186529D01*
X142276218Y-59208153D01*
X142263921Y-59228670D01*
X142249671Y-59247883D01*
X142233607Y-59265607D01*
X142215883Y-59281671D01*
X142196670Y-59295921D01*
X142176153Y-59308218D01*
X142154529Y-59318446D01*
X142132007Y-59326504D01*
X142108803Y-59332316D01*
X142085142Y-59335826D01*
X142061250Y-59337000D01*
X141148750Y-59337000D01*
X141124858Y-59335826D01*
X141101197Y-59332316D01*
X141077993Y-59326504D01*
X141055471Y-59318446D01*
X141033847Y-59308218D01*
X141013330Y-59295921D01*
X140994117Y-59281671D01*
X140976393Y-59265607D01*
X140960329Y-59247883D01*
X140946079Y-59228670D01*
X140933782Y-59208153D01*
X140923554Y-59186529D01*
X140915496Y-59164007D01*
X140909684Y-59140803D01*
X140906174Y-59117142D01*
X140905000Y-59093250D01*
X140905000Y-58605750D01*
X140906174Y-58581858D01*
X140909684Y-58558197D01*
X140915496Y-58534993D01*
X140923554Y-58512471D01*
X140933782Y-58490847D01*
X140946079Y-58470330D01*
X140960329Y-58451117D01*
X140976393Y-58433393D01*
X140994117Y-58417329D01*
X141013330Y-58403079D01*
X141033847Y-58390782D01*
X141055471Y-58380554D01*
X141077993Y-58372496D01*
X141101197Y-58366684D01*
X141124858Y-58363174D01*
X141148750Y-58362000D01*
X142061250Y-58362000D01*
X142085142Y-58363174D01*
X142085142Y-58363174D01*
G37*
D13*
G04 #@! TD*
G04 #@! TO.P,R1,2*
G04 #@! TO.N,Net-(D1-Pad2)*
X141605000Y-58849500D03*
D14*
G04 #@! TO.P,J1,1*
G04 #@! TO.N,Net-(D1-Pad1)*
X151193500Y-55626000D03*
D15*
G04 #@! TO.P,J1,2*
G04 #@! TO.N,Net-(J1-Pad2)*
X151257000Y-58166000D03*
G04 #@! TO.P,J1,3*
G04 #@! TO.N,Net-(D2-Pad2)*
X151257000Y-60706000D03*
G04 #@! TD*
D11*
G04 #@! TO.N,Net-(D1-Pad1)*
G04 #@! TO.C,J2*
G36*
X139770108Y-54537667D02*
X139813791Y-54544147D01*
X139856628Y-54554877D01*
X139898208Y-54569754D01*
X139938129Y-54588635D01*
X139976007Y-54611339D01*
X140011477Y-54637645D01*
X140044198Y-54667302D01*
X140073855Y-54700023D01*
X140100161Y-54735493D01*
X140122865Y-54773371D01*
X140141746Y-54813292D01*
X140156623Y-54854872D01*
X140167353Y-54897709D01*
X140173833Y-54941392D01*
X140176000Y-54985500D01*
X140176000Y-55885500D01*
X140173833Y-55929608D01*
X140167353Y-55973291D01*
X140156623Y-56016128D01*
X140141746Y-56057708D01*
X140122865Y-56097629D01*
X140100161Y-56135507D01*
X140073855Y-56170977D01*
X140044198Y-56203698D01*
X140011477Y-56233355D01*
X139976007Y-56259661D01*
X139938129Y-56282365D01*
X139898208Y-56301246D01*
X139856628Y-56316123D01*
X139813791Y-56326853D01*
X139770108Y-56333333D01*
X139726000Y-56335500D01*
X136626000Y-56335500D01*
X136581892Y-56333333D01*
X136538209Y-56326853D01*
X136495372Y-56316123D01*
X136453792Y-56301246D01*
X136413871Y-56282365D01*
X136375993Y-56259661D01*
X136340523Y-56233355D01*
X136307802Y-56203698D01*
X136278145Y-56170977D01*
X136251839Y-56135507D01*
X136229135Y-56097629D01*
X136210254Y-56057708D01*
X136195377Y-56016128D01*
X136184647Y-55973291D01*
X136178167Y-55929608D01*
X136176000Y-55885500D01*
X136176000Y-54985500D01*
X136178167Y-54941392D01*
X136184647Y-54897709D01*
X136195377Y-54854872D01*
X136210254Y-54813292D01*
X136229135Y-54773371D01*
X136251839Y-54735493D01*
X136278145Y-54700023D01*
X136307802Y-54667302D01*
X136340523Y-54637645D01*
X136375993Y-54611339D01*
X136413871Y-54588635D01*
X136453792Y-54569754D01*
X136495372Y-54554877D01*
X136538209Y-54544147D01*
X136581892Y-54537667D01*
X136626000Y-54535500D01*
X139726000Y-54535500D01*
X139770108Y-54537667D01*
X139770108Y-54537667D01*
G37*
D16*
G04 #@! TD*
G04 #@! TO.P,J2,1*
G04 #@! TO.N,Net-(D1-Pad1)*
X138176000Y-55435500D03*
D11*
G04 #@! TO.N,Net-(D1-Pad2)*
G04 #@! TO.C,J2*
G36*
X139770108Y-57141167D02*
X139813791Y-57147647D01*
X139856628Y-57158377D01*
X139898208Y-57173254D01*
X139938129Y-57192135D01*
X139976007Y-57214839D01*
X140011477Y-57241145D01*
X140044198Y-57270802D01*
X140073855Y-57303523D01*
X140100161Y-57338993D01*
X140122865Y-57376871D01*
X140141746Y-57416792D01*
X140156623Y-57458372D01*
X140167353Y-57501209D01*
X140173833Y-57544892D01*
X140176000Y-57589000D01*
X140176000Y-58489000D01*
X140173833Y-58533108D01*
X140167353Y-58576791D01*
X140156623Y-58619628D01*
X140141746Y-58661208D01*
X140122865Y-58701129D01*
X140100161Y-58739007D01*
X140073855Y-58774477D01*
X140044198Y-58807198D01*
X140011477Y-58836855D01*
X139976007Y-58863161D01*
X139938129Y-58885865D01*
X139898208Y-58904746D01*
X139856628Y-58919623D01*
X139813791Y-58930353D01*
X139770108Y-58936833D01*
X139726000Y-58939000D01*
X136626000Y-58939000D01*
X136581892Y-58936833D01*
X136538209Y-58930353D01*
X136495372Y-58919623D01*
X136453792Y-58904746D01*
X136413871Y-58885865D01*
X136375993Y-58863161D01*
X136340523Y-58836855D01*
X136307802Y-58807198D01*
X136278145Y-58774477D01*
X136251839Y-58739007D01*
X136229135Y-58701129D01*
X136210254Y-58661208D01*
X136195377Y-58619628D01*
X136184647Y-58576791D01*
X136178167Y-58533108D01*
X136176000Y-58489000D01*
X136176000Y-57589000D01*
X136178167Y-57544892D01*
X136184647Y-57501209D01*
X136195377Y-57458372D01*
X136210254Y-57416792D01*
X136229135Y-57376871D01*
X136251839Y-57338993D01*
X136278145Y-57303523D01*
X136307802Y-57270802D01*
X136340523Y-57241145D01*
X136375993Y-57214839D01*
X136413871Y-57192135D01*
X136453792Y-57173254D01*
X136495372Y-57158377D01*
X136538209Y-57147647D01*
X136581892Y-57141167D01*
X136626000Y-57139000D01*
X139726000Y-57139000D01*
X139770108Y-57141167D01*
X139770108Y-57141167D01*
G37*
D16*
G04 #@! TD*
G04 #@! TO.P,J2,2*
G04 #@! TO.N,Net-(D1-Pad2)*
X138176000Y-58039000D03*
D11*
G04 #@! TO.N,Net-(D2-Pad2)*
G04 #@! TO.C,J2*
G36*
X139770108Y-59744667D02*
X139813791Y-59751147D01*
X139856628Y-59761877D01*
X139898208Y-59776754D01*
X139938129Y-59795635D01*
X139976007Y-59818339D01*
X140011477Y-59844645D01*
X140044198Y-59874302D01*
X140073855Y-59907023D01*
X140100161Y-59942493D01*
X140122865Y-59980371D01*
X140141746Y-60020292D01*
X140156623Y-60061872D01*
X140167353Y-60104709D01*
X140173833Y-60148392D01*
X140176000Y-60192500D01*
X140176000Y-61092500D01*
X140173833Y-61136608D01*
X140167353Y-61180291D01*
X140156623Y-61223128D01*
X140141746Y-61264708D01*
X140122865Y-61304629D01*
X140100161Y-61342507D01*
X140073855Y-61377977D01*
X140044198Y-61410698D01*
X140011477Y-61440355D01*
X139976007Y-61466661D01*
X139938129Y-61489365D01*
X139898208Y-61508246D01*
X139856628Y-61523123D01*
X139813791Y-61533853D01*
X139770108Y-61540333D01*
X139726000Y-61542500D01*
X136626000Y-61542500D01*
X136581892Y-61540333D01*
X136538209Y-61533853D01*
X136495372Y-61523123D01*
X136453792Y-61508246D01*
X136413871Y-61489365D01*
X136375993Y-61466661D01*
X136340523Y-61440355D01*
X136307802Y-61410698D01*
X136278145Y-61377977D01*
X136251839Y-61342507D01*
X136229135Y-61304629D01*
X136210254Y-61264708D01*
X136195377Y-61223128D01*
X136184647Y-61180291D01*
X136178167Y-61136608D01*
X136176000Y-61092500D01*
X136176000Y-60192500D01*
X136178167Y-60148392D01*
X136184647Y-60104709D01*
X136195377Y-60061872D01*
X136210254Y-60020292D01*
X136229135Y-59980371D01*
X136251839Y-59942493D01*
X136278145Y-59907023D01*
X136307802Y-59874302D01*
X136340523Y-59844645D01*
X136375993Y-59818339D01*
X136413871Y-59795635D01*
X136453792Y-59776754D01*
X136495372Y-59761877D01*
X136538209Y-59751147D01*
X136581892Y-59744667D01*
X136626000Y-59742500D01*
X139726000Y-59742500D01*
X139770108Y-59744667D01*
X139770108Y-59744667D01*
G37*
D16*
G04 #@! TD*
G04 #@! TO.P,J2,3*
G04 #@! TO.N,Net-(D2-Pad2)*
X138176000Y-60642500D03*
D17*
G04 #@! TO.N,Net-(D1-Pad1)*
X142563700Y-54526000D02*
X141654200Y-55435500D01*
X141654200Y-55435500D02*
X138176000Y-55435500D01*
X147130000Y-56207500D02*
X145448500Y-54526000D01*
X145448500Y-54526000D02*
X143764000Y-54526000D01*
X151193500Y-55626000D02*
X147711500Y-55626000D01*
X147711500Y-55626000D02*
X147130000Y-56207500D01*
X143764000Y-54526000D02*
X142563700Y-54526000D01*
D18*
G04 #@! TO.N,Net-(D1-Pad2)*
X143745900Y-59415500D02*
X143764000Y-59397400D01*
X143764000Y-59397400D02*
X143764000Y-56726000D01*
X143745900Y-59415500D02*
X143188700Y-59415500D01*
X143764000Y-59415500D02*
X143745900Y-59415500D01*
X141605000Y-58849500D02*
X142622700Y-58849500D01*
X142622700Y-58849500D02*
X143188700Y-59415500D01*
X138176000Y-58039000D02*
X140794500Y-58039000D01*
X140794500Y-58039000D02*
X141605000Y-58849500D01*
G04 #@! TO.N,Net-(J1-Pad2)*
X151257000Y-58166000D02*
X145900500Y-58166000D01*
X145900500Y-58166000D02*
X144978700Y-57244200D01*
X144978700Y-57244200D02*
X144978700Y-56970700D01*
X144978700Y-56970700D02*
X144158600Y-56150600D01*
X144158600Y-56150600D02*
X143081700Y-56150600D01*
X143081700Y-56150600D02*
X142257800Y-56974500D01*
X142257800Y-56974500D02*
X141605000Y-56974500D01*
D17*
G04 #@! TO.N,Net-(D2-Pad2)*
X143764000Y-61615500D02*
X142563700Y-61615500D01*
X138176000Y-60642500D02*
X141590700Y-60642500D01*
X141590700Y-60642500D02*
X142563700Y-61615500D01*
X147130000Y-60706000D02*
X147130000Y-60632500D01*
X143764000Y-61615500D02*
X146220500Y-61615500D01*
X146220500Y-61615500D02*
X147130000Y-60706000D01*
X147130000Y-60706000D02*
X149456700Y-60706000D01*
X151257000Y-60706000D02*
X149456700Y-60706000D01*
G04 #@! TD*
D19*
G04 #@! TO.N,Net-(D2-Pad2)*
G36*
X145310171Y-58650473D02*
X145352571Y-58713929D01*
X145603963Y-58881904D01*
X145825648Y-58926000D01*
X145825652Y-58926000D01*
X145900499Y-58940888D01*
X145975346Y-58926000D01*
X149978822Y-58926000D01*
X150186375Y-59236625D01*
X150505478Y-59449843D01*
X150375642Y-59510817D01*
X149985355Y-59939076D01*
X149815524Y-60349110D01*
X149936845Y-60579000D01*
X151130000Y-60579000D01*
X151130000Y-60559000D01*
X151384000Y-60559000D01*
X151384000Y-60579000D01*
X151404000Y-60579000D01*
X151404000Y-60833000D01*
X151384000Y-60833000D01*
X151384000Y-60853000D01*
X151130000Y-60853000D01*
X151130000Y-60833000D01*
X149936845Y-60833000D01*
X149815524Y-61062890D01*
X149985355Y-61472924D01*
X150375642Y-61901183D01*
X150862874Y-62130000D01*
X149368026Y-62130000D01*
X149493327Y-62004698D01*
X149590000Y-61771309D01*
X149590000Y-60918250D01*
X149431250Y-60759500D01*
X147257000Y-60759500D01*
X147257000Y-60779500D01*
X147003000Y-60779500D01*
X147003000Y-60759500D01*
X144828750Y-60759500D01*
X144670000Y-60918250D01*
X144670000Y-61771309D01*
X144766673Y-62004698D01*
X144891974Y-62130000D01*
X144591759Y-62130000D01*
X144649000Y-61991809D01*
X144649000Y-61899250D01*
X144490250Y-61740500D01*
X143889000Y-61740500D01*
X143889000Y-61762500D01*
X143639000Y-61762500D01*
X143639000Y-61740500D01*
X143037750Y-61740500D01*
X142879000Y-61899250D01*
X142879000Y-61991809D01*
X142936241Y-62130000D01*
X140416984Y-62130000D01*
X140535698Y-62080827D01*
X140714327Y-61902199D01*
X140811000Y-61668810D01*
X140811000Y-61239191D01*
X142879000Y-61239191D01*
X142879000Y-61331750D01*
X143037750Y-61490500D01*
X143639000Y-61490500D01*
X143639000Y-60889250D01*
X143889000Y-60889250D01*
X143889000Y-61490500D01*
X144490250Y-61490500D01*
X144649000Y-61331750D01*
X144649000Y-61239191D01*
X144552327Y-61005802D01*
X144373699Y-60827173D01*
X144140310Y-60730500D01*
X144047750Y-60730500D01*
X143889000Y-60889250D01*
X143639000Y-60889250D01*
X143480250Y-60730500D01*
X143387690Y-60730500D01*
X143154301Y-60827173D01*
X142975673Y-61005802D01*
X142879000Y-61239191D01*
X140811000Y-61239191D01*
X140811000Y-60928250D01*
X140652250Y-60769500D01*
X138303000Y-60769500D01*
X138303000Y-60789500D01*
X138049000Y-60789500D01*
X138049000Y-60769500D01*
X138029000Y-60769500D01*
X138029000Y-60515500D01*
X138049000Y-60515500D01*
X138049000Y-60495500D01*
X138303000Y-60495500D01*
X138303000Y-60515500D01*
X140652250Y-60515500D01*
X140811000Y-60356750D01*
X140811000Y-59917257D01*
X141148750Y-59984440D01*
X142061250Y-59984440D01*
X142402294Y-59916602D01*
X142529802Y-59831404D01*
X142598371Y-59899973D01*
X142640771Y-59963429D01*
X142892163Y-60131404D01*
X143113848Y-60175500D01*
X143113853Y-60175500D01*
X143142967Y-60181291D01*
X143266235Y-60263657D01*
X143514000Y-60312940D01*
X144014000Y-60312940D01*
X144261765Y-60263657D01*
X144471809Y-60123309D01*
X144612157Y-59913265D01*
X144661440Y-59665500D01*
X144661440Y-59493691D01*
X144670000Y-59493691D01*
X144670000Y-60346750D01*
X144828750Y-60505500D01*
X147003000Y-60505500D01*
X147003000Y-59143750D01*
X147257000Y-59143750D01*
X147257000Y-60505500D01*
X149431250Y-60505500D01*
X149590000Y-60346750D01*
X149590000Y-59493691D01*
X149493327Y-59260302D01*
X149314699Y-59081673D01*
X149081310Y-58985000D01*
X147415750Y-58985000D01*
X147257000Y-59143750D01*
X147003000Y-59143750D01*
X146844250Y-58985000D01*
X145178690Y-58985000D01*
X144945301Y-59081673D01*
X144766673Y-59260302D01*
X144670000Y-59493691D01*
X144661440Y-59493691D01*
X144661440Y-59165500D01*
X144612157Y-58917735D01*
X144524000Y-58785800D01*
X144524000Y-57864301D01*
X145310171Y-58650473D01*
X145310171Y-58650473D01*
G37*
X145310171Y-58650473D02*
X145352571Y-58713929D01*
X145603963Y-58881904D01*
X145825648Y-58926000D01*
X145825652Y-58926000D01*
X145900499Y-58940888D01*
X145975346Y-58926000D01*
X149978822Y-58926000D01*
X150186375Y-59236625D01*
X150505478Y-59449843D01*
X150375642Y-59510817D01*
X149985355Y-59939076D01*
X149815524Y-60349110D01*
X149936845Y-60579000D01*
X151130000Y-60579000D01*
X151130000Y-60559000D01*
X151384000Y-60559000D01*
X151384000Y-60579000D01*
X151404000Y-60579000D01*
X151404000Y-60833000D01*
X151384000Y-60833000D01*
X151384000Y-60853000D01*
X151130000Y-60853000D01*
X151130000Y-60833000D01*
X149936845Y-60833000D01*
X149815524Y-61062890D01*
X149985355Y-61472924D01*
X150375642Y-61901183D01*
X150862874Y-62130000D01*
X149368026Y-62130000D01*
X149493327Y-62004698D01*
X149590000Y-61771309D01*
X149590000Y-60918250D01*
X149431250Y-60759500D01*
X147257000Y-60759500D01*
X147257000Y-60779500D01*
X147003000Y-60779500D01*
X147003000Y-60759500D01*
X144828750Y-60759500D01*
X144670000Y-60918250D01*
X144670000Y-61771309D01*
X144766673Y-62004698D01*
X144891974Y-62130000D01*
X144591759Y-62130000D01*
X144649000Y-61991809D01*
X144649000Y-61899250D01*
X144490250Y-61740500D01*
X143889000Y-61740500D01*
X143889000Y-61762500D01*
X143639000Y-61762500D01*
X143639000Y-61740500D01*
X143037750Y-61740500D01*
X142879000Y-61899250D01*
X142879000Y-61991809D01*
X142936241Y-62130000D01*
X140416984Y-62130000D01*
X140535698Y-62080827D01*
X140714327Y-61902199D01*
X140811000Y-61668810D01*
X140811000Y-61239191D01*
X142879000Y-61239191D01*
X142879000Y-61331750D01*
X143037750Y-61490500D01*
X143639000Y-61490500D01*
X143639000Y-60889250D01*
X143889000Y-60889250D01*
X143889000Y-61490500D01*
X144490250Y-61490500D01*
X144649000Y-61331750D01*
X144649000Y-61239191D01*
X144552327Y-61005802D01*
X144373699Y-60827173D01*
X144140310Y-60730500D01*
X144047750Y-60730500D01*
X143889000Y-60889250D01*
X143639000Y-60889250D01*
X143480250Y-60730500D01*
X143387690Y-60730500D01*
X143154301Y-60827173D01*
X142975673Y-61005802D01*
X142879000Y-61239191D01*
X140811000Y-61239191D01*
X140811000Y-60928250D01*
X140652250Y-60769500D01*
X138303000Y-60769500D01*
X138303000Y-60789500D01*
X138049000Y-60789500D01*
X138049000Y-60769500D01*
X138029000Y-60769500D01*
X138029000Y-60515500D01*
X138049000Y-60515500D01*
X138049000Y-60495500D01*
X138303000Y-60495500D01*
X138303000Y-60515500D01*
X140652250Y-60515500D01*
X140811000Y-60356750D01*
X140811000Y-59917257D01*
X141148750Y-59984440D01*
X142061250Y-59984440D01*
X142402294Y-59916602D01*
X142529802Y-59831404D01*
X142598371Y-59899973D01*
X142640771Y-59963429D01*
X142892163Y-60131404D01*
X143113848Y-60175500D01*
X143113853Y-60175500D01*
X143142967Y-60181291D01*
X143266235Y-60263657D01*
X143514000Y-60312940D01*
X144014000Y-60312940D01*
X144261765Y-60263657D01*
X144471809Y-60123309D01*
X144612157Y-59913265D01*
X144661440Y-59665500D01*
X144661440Y-59493691D01*
X144670000Y-59493691D01*
X144670000Y-60346750D01*
X144828750Y-60505500D01*
X147003000Y-60505500D01*
X147003000Y-59143750D01*
X147257000Y-59143750D01*
X147257000Y-60505500D01*
X149431250Y-60505500D01*
X149590000Y-60346750D01*
X149590000Y-59493691D01*
X149493327Y-59260302D01*
X149314699Y-59081673D01*
X149081310Y-58985000D01*
X147415750Y-58985000D01*
X147257000Y-59143750D01*
X147003000Y-59143750D01*
X146844250Y-58985000D01*
X145178690Y-58985000D01*
X144945301Y-59081673D01*
X144766673Y-59260302D01*
X144670000Y-59493691D01*
X144661440Y-59493691D01*
X144661440Y-59165500D01*
X144612157Y-58917735D01*
X144524000Y-58785800D01*
X144524000Y-57864301D01*
X145310171Y-58650473D01*
G04 #@! TD*
M02*
