G04 #@! TF.GenerationSoftware,KiCad,Pcbnew,(5.0.2)-1*
G04 #@! TF.CreationDate,2020-01-30T16:06:39+01:00*
G04 #@! TF.ProjectId,WS2812B-Protect,57533238-3132-4422-9d50-726f74656374,rev?*
G04 #@! TF.SameCoordinates,Original*
G04 #@! TF.FileFunction,Copper,L2,Bot*
G04 #@! TF.FilePolarity,Positive*
%FSLAX46Y46*%
G04 Gerber Fmt 4.6, Leading zero omitted, Abs format (unit mm)*
G04 Created by KiCad (PCBNEW (5.0.2)-1) date 30.01.2020 16:06:39*
%MOMM*%
%LPD*%
G01*
G04 APERTURE LIST*
G04 #@! TA.AperFunction,ComponentPad*
%ADD10R,1.700000X1.700000*%
G04 #@! TD*
G04 #@! TA.AperFunction,ComponentPad*
%ADD11O,1.700000X1.700000*%
G04 #@! TD*
G04 #@! TA.AperFunction,Conductor*
%ADD12C,0.100000*%
G04 #@! TD*
G04 #@! TA.AperFunction,ComponentPad*
%ADD13C,1.800000*%
G04 #@! TD*
G04 APERTURE END LIST*
D10*
G04 #@! TO.P,J1,1*
G04 #@! TO.N,Net-(D1-Pad1)*
X151193500Y-55626000D03*
D11*
G04 #@! TO.P,J1,2*
G04 #@! TO.N,Net-(J1-Pad2)*
X151257000Y-58166000D03*
G04 #@! TO.P,J1,3*
G04 #@! TO.N,Net-(D2-Pad2)*
X151257000Y-60706000D03*
G04 #@! TD*
D12*
G04 #@! TO.N,Net-(D1-Pad1)*
G04 #@! TO.C,J2*
G36*
X139770108Y-54537667D02*
X139813791Y-54544147D01*
X139856628Y-54554877D01*
X139898208Y-54569754D01*
X139938129Y-54588635D01*
X139976007Y-54611339D01*
X140011477Y-54637645D01*
X140044198Y-54667302D01*
X140073855Y-54700023D01*
X140100161Y-54735493D01*
X140122865Y-54773371D01*
X140141746Y-54813292D01*
X140156623Y-54854872D01*
X140167353Y-54897709D01*
X140173833Y-54941392D01*
X140176000Y-54985500D01*
X140176000Y-55885500D01*
X140173833Y-55929608D01*
X140167353Y-55973291D01*
X140156623Y-56016128D01*
X140141746Y-56057708D01*
X140122865Y-56097629D01*
X140100161Y-56135507D01*
X140073855Y-56170977D01*
X140044198Y-56203698D01*
X140011477Y-56233355D01*
X139976007Y-56259661D01*
X139938129Y-56282365D01*
X139898208Y-56301246D01*
X139856628Y-56316123D01*
X139813791Y-56326853D01*
X139770108Y-56333333D01*
X139726000Y-56335500D01*
X136626000Y-56335500D01*
X136581892Y-56333333D01*
X136538209Y-56326853D01*
X136495372Y-56316123D01*
X136453792Y-56301246D01*
X136413871Y-56282365D01*
X136375993Y-56259661D01*
X136340523Y-56233355D01*
X136307802Y-56203698D01*
X136278145Y-56170977D01*
X136251839Y-56135507D01*
X136229135Y-56097629D01*
X136210254Y-56057708D01*
X136195377Y-56016128D01*
X136184647Y-55973291D01*
X136178167Y-55929608D01*
X136176000Y-55885500D01*
X136176000Y-54985500D01*
X136178167Y-54941392D01*
X136184647Y-54897709D01*
X136195377Y-54854872D01*
X136210254Y-54813292D01*
X136229135Y-54773371D01*
X136251839Y-54735493D01*
X136278145Y-54700023D01*
X136307802Y-54667302D01*
X136340523Y-54637645D01*
X136375993Y-54611339D01*
X136413871Y-54588635D01*
X136453792Y-54569754D01*
X136495372Y-54554877D01*
X136538209Y-54544147D01*
X136581892Y-54537667D01*
X136626000Y-54535500D01*
X139726000Y-54535500D01*
X139770108Y-54537667D01*
X139770108Y-54537667D01*
G37*
D13*
G04 #@! TD*
G04 #@! TO.P,J2,1*
G04 #@! TO.N,Net-(D1-Pad1)*
X138176000Y-55435500D03*
D12*
G04 #@! TO.N,Net-(D1-Pad2)*
G04 #@! TO.C,J2*
G36*
X139770108Y-57141167D02*
X139813791Y-57147647D01*
X139856628Y-57158377D01*
X139898208Y-57173254D01*
X139938129Y-57192135D01*
X139976007Y-57214839D01*
X140011477Y-57241145D01*
X140044198Y-57270802D01*
X140073855Y-57303523D01*
X140100161Y-57338993D01*
X140122865Y-57376871D01*
X140141746Y-57416792D01*
X140156623Y-57458372D01*
X140167353Y-57501209D01*
X140173833Y-57544892D01*
X140176000Y-57589000D01*
X140176000Y-58489000D01*
X140173833Y-58533108D01*
X140167353Y-58576791D01*
X140156623Y-58619628D01*
X140141746Y-58661208D01*
X140122865Y-58701129D01*
X140100161Y-58739007D01*
X140073855Y-58774477D01*
X140044198Y-58807198D01*
X140011477Y-58836855D01*
X139976007Y-58863161D01*
X139938129Y-58885865D01*
X139898208Y-58904746D01*
X139856628Y-58919623D01*
X139813791Y-58930353D01*
X139770108Y-58936833D01*
X139726000Y-58939000D01*
X136626000Y-58939000D01*
X136581892Y-58936833D01*
X136538209Y-58930353D01*
X136495372Y-58919623D01*
X136453792Y-58904746D01*
X136413871Y-58885865D01*
X136375993Y-58863161D01*
X136340523Y-58836855D01*
X136307802Y-58807198D01*
X136278145Y-58774477D01*
X136251839Y-58739007D01*
X136229135Y-58701129D01*
X136210254Y-58661208D01*
X136195377Y-58619628D01*
X136184647Y-58576791D01*
X136178167Y-58533108D01*
X136176000Y-58489000D01*
X136176000Y-57589000D01*
X136178167Y-57544892D01*
X136184647Y-57501209D01*
X136195377Y-57458372D01*
X136210254Y-57416792D01*
X136229135Y-57376871D01*
X136251839Y-57338993D01*
X136278145Y-57303523D01*
X136307802Y-57270802D01*
X136340523Y-57241145D01*
X136375993Y-57214839D01*
X136413871Y-57192135D01*
X136453792Y-57173254D01*
X136495372Y-57158377D01*
X136538209Y-57147647D01*
X136581892Y-57141167D01*
X136626000Y-57139000D01*
X139726000Y-57139000D01*
X139770108Y-57141167D01*
X139770108Y-57141167D01*
G37*
D13*
G04 #@! TD*
G04 #@! TO.P,J2,2*
G04 #@! TO.N,Net-(D1-Pad2)*
X138176000Y-58039000D03*
D12*
G04 #@! TO.N,Net-(D2-Pad2)*
G04 #@! TO.C,J2*
G36*
X139770108Y-59744667D02*
X139813791Y-59751147D01*
X139856628Y-59761877D01*
X139898208Y-59776754D01*
X139938129Y-59795635D01*
X139976007Y-59818339D01*
X140011477Y-59844645D01*
X140044198Y-59874302D01*
X140073855Y-59907023D01*
X140100161Y-59942493D01*
X140122865Y-59980371D01*
X140141746Y-60020292D01*
X140156623Y-60061872D01*
X140167353Y-60104709D01*
X140173833Y-60148392D01*
X140176000Y-60192500D01*
X140176000Y-61092500D01*
X140173833Y-61136608D01*
X140167353Y-61180291D01*
X140156623Y-61223128D01*
X140141746Y-61264708D01*
X140122865Y-61304629D01*
X140100161Y-61342507D01*
X140073855Y-61377977D01*
X140044198Y-61410698D01*
X140011477Y-61440355D01*
X139976007Y-61466661D01*
X139938129Y-61489365D01*
X139898208Y-61508246D01*
X139856628Y-61523123D01*
X139813791Y-61533853D01*
X139770108Y-61540333D01*
X139726000Y-61542500D01*
X136626000Y-61542500D01*
X136581892Y-61540333D01*
X136538209Y-61533853D01*
X136495372Y-61523123D01*
X136453792Y-61508246D01*
X136413871Y-61489365D01*
X136375993Y-61466661D01*
X136340523Y-61440355D01*
X136307802Y-61410698D01*
X136278145Y-61377977D01*
X136251839Y-61342507D01*
X136229135Y-61304629D01*
X136210254Y-61264708D01*
X136195377Y-61223128D01*
X136184647Y-61180291D01*
X136178167Y-61136608D01*
X136176000Y-61092500D01*
X136176000Y-60192500D01*
X136178167Y-60148392D01*
X136184647Y-60104709D01*
X136195377Y-60061872D01*
X136210254Y-60020292D01*
X136229135Y-59980371D01*
X136251839Y-59942493D01*
X136278145Y-59907023D01*
X136307802Y-59874302D01*
X136340523Y-59844645D01*
X136375993Y-59818339D01*
X136413871Y-59795635D01*
X136453792Y-59776754D01*
X136495372Y-59761877D01*
X136538209Y-59751147D01*
X136581892Y-59744667D01*
X136626000Y-59742500D01*
X139726000Y-59742500D01*
X139770108Y-59744667D01*
X139770108Y-59744667D01*
G37*
D13*
G04 #@! TD*
G04 #@! TO.P,J2,3*
G04 #@! TO.N,Net-(D2-Pad2)*
X138176000Y-60642500D03*
M02*
