%FSLAX45Y45*%
G04 Gerber Fmt 4.5, Leading zero omitted, Abs format (unit mm)*
G04 Created by KiCad (PCBNEW (5.0.2)-1) date 16.02.2020 18:45:13*
%MOMM*%
%LPD*%
G01*
G04 APERTURE LIST*
%ADD10C,0.200000*%
%ADD11C,0.300000*%
G04 APERTURE END LIST*
D10*
X27044500Y-16438600D02*
G75*
G03X27044500Y-16438600I-9650000J0D01*
G01*
D10*
D11*
X8020928Y-26564314D02*
X8020928Y-26264314D01*
X8092357Y-26264314D01*
X8135214Y-26278600D01*
X8163786Y-26307171D01*
X8178071Y-26335743D01*
X8192357Y-26392886D01*
X8192357Y-26435743D01*
X8178071Y-26492886D01*
X8163786Y-26521457D01*
X8135214Y-26550029D01*
X8092357Y-26564314D01*
X8020928Y-26564314D01*
X8320928Y-26564314D02*
X8320928Y-26364314D01*
X8320928Y-26421457D02*
X8335214Y-26392886D01*
X8349500Y-26378600D01*
X8378071Y-26364314D01*
X8406643Y-26364314D01*
X8506643Y-26564314D02*
X8506643Y-26364314D01*
X8506643Y-26264314D02*
X8492357Y-26278600D01*
X8506643Y-26292886D01*
X8520928Y-26278600D01*
X8506643Y-26264314D01*
X8506643Y-26292886D01*
X8692357Y-26564314D02*
X8663786Y-26550029D01*
X8649500Y-26521457D01*
X8649500Y-26264314D01*
X8849500Y-26564314D02*
X8820928Y-26550029D01*
X8806643Y-26521457D01*
X8806643Y-26264314D01*
X9192357Y-26564314D02*
X9192357Y-26264314D01*
X9292357Y-26478600D01*
X9392357Y-26264314D01*
X9392357Y-26564314D01*
X9663786Y-26564314D02*
X9663786Y-26407171D01*
X9649500Y-26378600D01*
X9620928Y-26364314D01*
X9563786Y-26364314D01*
X9535214Y-26378600D01*
X9663786Y-26550029D02*
X9635214Y-26564314D01*
X9563786Y-26564314D01*
X9535214Y-26550029D01*
X9520928Y-26521457D01*
X9520928Y-26492886D01*
X9535214Y-26464314D01*
X9563786Y-26450029D01*
X9635214Y-26450029D01*
X9663786Y-26435743D01*
X9806643Y-26364314D02*
X9806643Y-26664314D01*
X9806643Y-26378600D02*
X9835214Y-26364314D01*
X9892357Y-26364314D01*
X9920928Y-26378600D01*
X9935214Y-26392886D01*
X9949500Y-26421457D01*
X9949500Y-26507171D01*
X9935214Y-26535743D01*
X9920928Y-26550029D01*
X9892357Y-26564314D01*
X9835214Y-26564314D01*
X9806643Y-26550029D01*
X10078071Y-26535743D02*
X10092357Y-26550029D01*
X10078071Y-26564314D01*
X10063786Y-26550029D01*
X10078071Y-26535743D01*
X10078071Y-26564314D01*
X10078071Y-26378600D02*
X10092357Y-26392886D01*
X10078071Y-26407171D01*
X10063786Y-26392886D01*
X10078071Y-26378600D01*
X10078071Y-26407171D01*
M02*
