M48
;DRILL file {KiCad (5.0.2)-1} date 16.02.2020 18:45:11
;FORMAT={-:-/ absolute / inch / decimal}
FMAT,2
INCH,TZ
T1C0.0157
T2C0.0236
T3C0.0276
T4C0.0300
T5C0.0315
T6C0.0354
T7C0.0394
T8C0.0433
T9C0.0630
T10C0.0866
T11C0.1693
T12C0.2087
%
G90
G05
T1
X8.4116Y-5.3824
X8.61Y-6.2068
T2
X6.7205Y-7.2599
X6.7577Y-7.1701
X6.7577Y-7.3497
X6.8475Y-7.133
X6.8475Y-7.3869
X6.9373Y-7.1701
X6.9373Y-7.3497
X6.9744Y-7.2599
X7.5079Y-6.4725
X7.5451Y-6.3827
X7.5451Y-6.5623
X7.6349Y-6.3456
X7.6349Y-6.5995
X7.7247Y-6.3827
X7.7247Y-6.5623
X7.7619Y-6.4725
X5.9331Y-6.4725
X5.9703Y-6.3827
X5.9703Y-6.5623
X6.0601Y-6.3456
X6.0601Y-6.5995
X6.1499Y-6.3827
X6.1499Y-6.5623
X6.187Y-6.4725
X6.6907Y-9.8607
X6.7366Y-9.75
X6.7366Y-9.9713
X6.8472Y-9.7042
X6.8472Y-10.0172
X6.9579Y-9.75
X6.9579Y-9.9713
X7.0037Y-9.8607
X6.6907Y-3.088
X6.7366Y-2.9774
X6.7366Y-3.1987
X6.8472Y-2.9315
X6.8472Y-3.2445
X6.9579Y-2.9774
X6.9579Y-3.1987
X7.0037Y-3.088
X6.7238Y-5.6851
X6.761Y-5.5953
X6.761Y-5.7749
X6.8508Y-5.5581
X6.8508Y-5.8121
X6.9406Y-5.5953
X6.9406Y-5.7749
X6.9778Y-5.6851
X3.3049Y-6.472
X3.3508Y-6.3613
X3.3508Y-6.5827
X3.4614Y-6.3155
X3.4614Y-6.6285
X3.5721Y-6.3613
X3.5721Y-6.5827
X3.6179Y-6.472
X6.691Y-6.4725
X6.7368Y-6.3619
X6.7368Y-6.5832
X6.8475Y-6.316
X6.8475Y-6.629
X6.9581Y-6.3619
X6.9581Y-6.5832
X7.004Y-6.4725
X10.0766Y-6.4739
X10.1224Y-6.3632
X10.1224Y-6.5845
X10.2331Y-6.3174
X10.2331Y-6.6304
X10.3437Y-6.3632
X10.3437Y-6.5845
X10.3896Y-6.4739
T3
X6.445Y-3.905
X6.545Y-3.905
T4
X6.8028Y-4.1878
X6.8498Y-4.0995
X6.8911Y-4.2347
X6.9381Y-4.1464
X6.9794Y-4.2817
X7.0264Y-4.1934
X7.0677Y-4.3286
X7.1147Y-4.2403
X7.156Y-4.3756
X7.203Y-4.2873
X7.2443Y-4.4225
X7.2913Y-4.3342
X7.3326Y-4.4695
X7.3796Y-4.3812
X7.4209Y-4.5164
X7.4679Y-4.4281
X7.5092Y-4.5634
X7.5562Y-4.4751
X7.5975Y-4.6103
X7.6444Y-4.522
X7.6858Y-4.6572
X7.7327Y-4.569
X7.7741Y-4.7042
X7.821Y-4.6159
X7.8546Y-3.2747
X7.8624Y-4.7511
X7.9016Y-3.1864
X7.9093Y-4.6628
X7.9429Y-3.3216
X7.9507Y-4.7981
X7.9899Y-3.2333
X7.9976Y-4.7098
X8.0312Y-3.3686
X8.039Y-4.845
X8.0782Y-3.2803
X8.0859Y-4.7567
X8.1195Y-3.4155
X8.1273Y-4.892
X8.1665Y-3.3272
X8.1742Y-4.8037
X8.2078Y-3.4625
X8.2156Y-4.9389
X8.2548Y-3.3742
X8.2625Y-4.8506
X8.2961Y-3.5094
X8.3039Y-4.9859
X8.3431Y-3.4211
X8.3508Y-4.8976
X8.3844Y-3.5564
X8.3922Y-5.0328
X8.4314Y-3.4681
X8.4391Y-4.9445
X8.4727Y-3.6033
X8.4805Y-5.0798
X8.5196Y-3.515
X8.5274Y-4.9915
X8.561Y-3.6503
X8.5687Y-5.1267
X8.6079Y-3.562
X8.6157Y-5.0384
X8.6493Y-3.6972
X8.6962Y-3.6089
X8.7376Y-3.7442
X8.7845Y-3.6559
X8.8259Y-3.7911
X8.8728Y-3.7028
X8.9142Y-3.838
X8.9499Y-4.1968
X8.9611Y-3.7498
X8.9969Y-4.1085
X9.0025Y-3.885
X9.0382Y-4.2438
X9.0438Y-4.0202
X9.0494Y-3.7967
X9.0852Y-4.1555
X9.0908Y-3.9319
X9.1321Y-4.0672
X9.1377Y-3.8436
X9.1791Y-3.9789
X9.226Y-3.8906
X9.195Y-4.9
X9.195Y-5.4
X9.295Y-4.9
X9.295Y-5.4
X9.395Y-4.9
X9.395Y-5.4
X9.495Y-4.9
X9.495Y-5.4
X9.595Y-4.9
X9.595Y-5.4
X9.695Y-4.9
X9.695Y-5.4
X9.795Y-4.9
X9.795Y-5.4
X9.895Y-4.9
X9.895Y-5.4
X9.995Y-4.9
X9.995Y-5.4
X10.095Y-4.9
X10.095Y-5.4
X5.2975Y-6.4225
X5.2975Y-6.5225
X5.3579Y-6.0411
X5.3579Y-6.9039
X5.3888Y-5.946
X5.3888Y-6.999
X5.3975Y-6.3725
X5.3975Y-6.4725
X5.3975Y-6.5725
X5.4375Y-6.1196
X5.4375Y-6.8255
X5.4684Y-6.0244
X5.4684Y-6.9206
X5.4994Y-5.9293
X5.4994Y-7.0157
X5.5641Y-5.6019
X5.5641Y-7.3431
X5.6156Y-5.7011
X5.6156Y-7.2439
X5.6229Y-5.521
X5.6229Y-7.424
X5.6744Y-5.6202
X5.6744Y-7.3248
X5.7332Y-5.5393
X5.7332Y-7.4057
X5.896Y-5.2479
X5.896Y-7.6971
X5.9143Y-5.3582
X5.9143Y-7.5868
X5.9769Y-5.1892
X5.9769Y-7.7559
X5.9952Y-5.2994
X5.9952Y-7.6456
X6.0761Y-5.2407
X6.0761Y-7.7044
X6.3043Y-5.1244
X6.3043Y-7.8206
X6.321Y-5.0138
X6.321Y-7.9312
X6.3994Y-5.0935
X6.3994Y-7.8516
X6.4161Y-4.9829
X6.4161Y-7.9621
X6.4945Y-5.0626
X6.4945Y-7.8825
X6.7475Y-5.0225
X6.7475Y-7.9225
X6.7975Y-4.9225
X6.7975Y-8.0225
X6.8475Y-5.0225
X6.8475Y-7.9225
X6.8975Y-4.9225
X6.8975Y-8.0225
X6.9475Y-5.0225
X6.9475Y-7.9225
X7.2004Y-5.0626
X7.2004Y-7.8825
X7.2789Y-4.9829
X7.2789Y-7.9621
X7.2956Y-5.0935
X7.2956Y-7.8516
X7.374Y-5.0138
X7.374Y-7.9312
X7.3907Y-5.1244
X7.3907Y-7.8206
X7.6189Y-5.2407
X7.6189Y-7.7044
X7.6998Y-5.2994
X7.6998Y-7.6456
X7.7181Y-5.1892
X7.7181Y-7.7559
X7.7807Y-5.3582
X7.7807Y-7.5868
X7.799Y-5.2479
X7.799Y-7.6971
X7.9618Y-5.5393
X7.9618Y-7.4057
X8.0206Y-5.6202
X8.0206Y-7.3248
X8.0721Y-5.521
X8.0721Y-7.424
X8.0793Y-5.7011
X8.0793Y-7.2439
X8.1308Y-5.6019
X8.1308Y-7.3431
X8.1956Y-5.9293
X8.1956Y-7.0157
X8.2265Y-6.0244
X8.2265Y-6.9206
X8.2574Y-6.1196
X8.2574Y-6.8255
X8.2975Y-6.3725
X8.2975Y-6.4725
X8.2975Y-6.5725
X8.3062Y-5.946
X8.3062Y-6.999
X8.3371Y-6.0411
X8.3371Y-6.9039
X8.3975Y-6.4225
X8.3975Y-6.5225
X4.56Y-4.095
X4.56Y-4.295
X5.66Y-3.895
X5.66Y-4.495
T5
X5.945Y-3.9016
X5.945Y-4.
X9.2948Y-5.6484
X9.3735Y-5.6484
X9.4522Y-5.6484
X9.531Y-5.6484
X9.6097Y-5.6484
X9.6885Y-5.6484
X9.7672Y-5.6484
X9.8459Y-5.6484
X10.25Y-5.4
X10.3484Y-5.4
X4.1219Y-6.6269
X4.24Y-6.43
T6
X6.2225Y-3.905
X6.2225Y-4.005
T7
X3.4063Y-5.5931
X3.4063Y-5.79
X3.6031Y-5.5931
X3.6031Y-5.79
X3.8Y-5.5931
X3.8Y-5.79
X5.39Y-4.815
X5.39Y-4.915
X5.49Y-4.815
X5.49Y-4.915
X3.4063Y-7.0931
X3.4063Y-7.29
X3.6031Y-7.0931
X3.6031Y-7.29
X3.8Y-7.0931
X3.8Y-7.29
X3.8063Y-4.6431
X3.8063Y-4.84
X4.0031Y-4.6431
X4.0031Y-4.84
X4.2Y-4.6431
X4.2Y-4.84
T8
X6.225Y-4.1766
X6.225Y-4.4325
X6.4022Y-4.1766
X6.4022Y-4.4325
T9
X5.975Y-4.785
X6.1151Y-4.7167
X8.6296Y-7.1406
X8.67Y-6.99
X7.8623Y-8.0744
X7.99Y-7.985
X4.955Y-6.285
X4.9821Y-6.1315
T10
X9.53Y-6.3575
X8.715Y-9.06
X9.3Y-7.115
T11
X7.6349Y-6.4725
X6.0601Y-6.4725
X6.8508Y-5.6851
X6.8475Y-7.2599
T12
X6.8472Y-9.8607
X6.8472Y-3.088
X3.4614Y-6.472
X6.8475Y-6.4725
X10.2331Y-6.4739
T0
M30
