M48
;DRILL file {KiCad (5.0.2)-1} date 30.01.2020 15:59:31
;FORMAT={-:-/ absolute / inch / decimal}
FMAT,2
INCH,TZ
T1C0.0236
T2C0.0276
T3C0.0300
T4C0.0315
T5C0.0354
T6C0.0394
T7C0.0433
T8C0.0630
T9C0.0866
T10C0.1693
T11C0.2087
%
G90
G05
T1
X3.3049Y-6.472
X3.3508Y-6.3613
X3.3508Y-6.5827
X3.4614Y-6.3155
X3.4614Y-6.6285
X3.5721Y-6.3613
X3.5721Y-6.5827
X3.6179Y-6.472
X6.7205Y-7.2599
X6.7577Y-7.1701
X6.7577Y-7.3497
X6.8475Y-7.133
X6.8475Y-7.3869
X6.9373Y-7.1701
X6.9373Y-7.3497
X6.9744Y-7.2599
X5.9331Y-6.4725
X5.9703Y-6.3827
X5.9703Y-6.5623
X6.0601Y-6.3456
X6.0601Y-6.5995
X6.1499Y-6.3827
X6.1499Y-6.5623
X6.187Y-6.4725
X7.5079Y-6.4725
X7.5451Y-6.3827
X7.5451Y-6.5623
X7.6349Y-6.3456
X7.6349Y-6.5995
X7.7247Y-6.3827
X7.7247Y-6.5623
X7.7619Y-6.4725
X6.7238Y-5.6851
X6.761Y-5.5953
X6.761Y-5.7749
X6.8508Y-5.5581
X6.8508Y-5.8121
X6.9406Y-5.5953
X6.9406Y-5.7749
X6.9778Y-5.6851
X6.691Y-6.4725
X6.7368Y-6.3619
X6.7368Y-6.5832
X6.8475Y-6.316
X6.8475Y-6.629
X6.9581Y-6.3619
X6.9581Y-6.5832
X7.004Y-6.4725
X6.6907Y-3.088
X6.7366Y-2.9774
X6.7366Y-3.1987
X6.8472Y-2.9315
X6.8472Y-3.2445
X6.9579Y-2.9774
X6.9579Y-3.1987
X7.0037Y-3.088
X10.0766Y-6.4739
X10.1224Y-6.3632
X10.1224Y-6.5845
X10.2331Y-6.3174
X10.2331Y-6.6304
X10.3437Y-6.3632
X10.3437Y-6.5845
X10.3896Y-6.4739
X6.6907Y-9.8607
X6.7366Y-9.75
X6.7366Y-9.9713
X6.8472Y-9.7042
X6.8472Y-10.0172
X6.9579Y-9.75
X6.9579Y-9.9713
X7.0037Y-9.8607
T2
X6.Y-3.24
X6.1Y-3.24
T3
X5.2975Y-6.4225
X5.2975Y-6.5225
X5.3579Y-6.0411
X5.3579Y-6.9039
X5.3888Y-5.946
X5.3888Y-6.999
X5.3975Y-6.3725
X5.3975Y-6.4725
X5.3975Y-6.5725
X5.4375Y-6.1196
X5.4375Y-6.8255
X5.4684Y-6.0244
X5.4684Y-6.9206
X5.4994Y-5.9293
X5.4994Y-7.0157
X5.5641Y-5.6019
X5.5641Y-7.3431
X5.6156Y-5.7011
X5.6156Y-7.2439
X5.6229Y-5.521
X5.6229Y-7.424
X5.6744Y-5.6202
X5.6744Y-7.3248
X5.7332Y-5.5393
X5.7332Y-7.4057
X5.896Y-5.2479
X5.896Y-7.6971
X5.9143Y-5.3582
X5.9143Y-7.5868
X5.9769Y-5.1892
X5.9769Y-7.7559
X5.9952Y-5.2994
X5.9952Y-7.6456
X6.0761Y-5.2407
X6.0761Y-7.7044
X6.3043Y-5.1244
X6.3043Y-7.8206
X6.321Y-5.0138
X6.321Y-7.9312
X6.3994Y-5.0935
X6.3994Y-7.8516
X6.4161Y-4.9829
X6.4161Y-7.9621
X6.4945Y-5.0626
X6.4945Y-7.8825
X6.7475Y-5.0225
X6.7475Y-7.9225
X6.7975Y-4.9225
X6.7975Y-8.0225
X6.8475Y-5.0225
X6.8475Y-7.9225
X6.8975Y-4.9225
X6.8975Y-8.0225
X6.9475Y-5.0225
X6.9475Y-7.9225
X7.2004Y-5.0626
X7.2004Y-7.8825
X7.2789Y-4.9829
X7.2789Y-7.9621
X7.2956Y-5.0935
X7.2956Y-7.8516
X7.374Y-5.0138
X7.374Y-7.9312
X7.3907Y-5.1244
X7.3907Y-7.8206
X7.6189Y-5.2407
X7.6189Y-7.7044
X7.6998Y-5.2994
X7.6998Y-7.6456
X7.7181Y-5.1892
X7.7181Y-7.7559
X7.7807Y-5.3582
X7.7807Y-7.5868
X7.799Y-5.2479
X7.799Y-7.6971
X7.9618Y-5.5393
X7.9618Y-7.4057
X8.0206Y-5.6202
X8.0206Y-7.3248
X8.0721Y-5.521
X8.0721Y-7.424
X8.0793Y-5.7011
X8.0793Y-7.2439
X8.1308Y-5.6019
X8.1308Y-7.3431
X8.1956Y-5.9293
X8.1956Y-7.0157
X8.2265Y-6.0244
X8.2265Y-6.9206
X8.2574Y-6.1196
X8.2574Y-6.8255
X8.2975Y-6.3725
X8.2975Y-6.4725
X8.2975Y-6.5725
X8.3062Y-5.946
X8.3062Y-6.999
X8.3371Y-6.0411
X8.3371Y-6.9039
X8.3975Y-6.4225
X8.3975Y-6.5225
X4.56Y-4.095
X4.56Y-4.295
X5.66Y-3.895
X5.66Y-4.495
X6.7075Y-4.1874
X6.7513Y-4.0975
X6.7974Y-4.2312
X6.8412Y-4.1413
X6.8872Y-4.275
X6.9311Y-4.1852
X6.9771Y-4.3189
X7.0209Y-4.229
X7.067Y-4.3627
X7.1108Y-4.2728
X7.1569Y-4.4065
X7.2007Y-4.3167
X7.2468Y-4.4504
X7.2906Y-4.3605
X7.3366Y-4.4942
X7.3805Y-4.4043
X7.4265Y-4.5381
X7.4703Y-4.4482
X7.5164Y-4.5819
X7.5602Y-4.492
X7.6063Y-4.6257
X7.6501Y-4.5359
X7.6961Y-4.6696
X7.7268Y-3.2381
X7.74Y-4.5797
X7.7706Y-3.1482
X7.786Y-4.7134
X7.8166Y-3.282
X7.8299Y-4.6235
X7.8605Y-3.1921
X7.8759Y-4.7572
X7.9065Y-3.3258
X7.9197Y-4.6674
X7.9504Y-3.2359
X7.9658Y-4.8011
X7.9964Y-3.3696
X8.0096Y-4.7112
X8.0402Y-3.2797
X8.0557Y-4.8449
X8.0863Y-3.4135
X8.0995Y-4.755
X8.1301Y-3.3236
X8.1455Y-4.8888
X8.1762Y-3.4573
X8.1894Y-4.7989
X8.22Y-3.3674
X8.2354Y-4.9326
X8.266Y-3.5011
X8.2793Y-4.8427
X8.3099Y-3.4113
X8.3253Y-4.9764
X8.3559Y-3.545
X8.3691Y-4.8866
X8.3997Y-3.4551
X8.4152Y-5.0203
X8.4458Y-3.5888
X8.459Y-4.9304
X8.4896Y-3.4989
X8.5051Y-5.0641
X8.5357Y-3.6326
X8.5489Y-4.9742
X8.5795Y-3.5428
X8.6255Y-3.6765
X8.6344Y-4.5709
X8.6694Y-3.5866
X8.6782Y-4.481
X8.7154Y-3.7203
X8.722Y-4.3911
X8.7242Y-4.6147
X8.7593Y-3.6304
X8.7681Y-4.5248
X8.8053Y-3.7642
X8.8119Y-4.4349
X8.8491Y-3.6743
X8.8536Y-4.1215
X8.8952Y-3.808
X8.8974Y-4.0316
X8.939Y-3.7181
X8.9412Y-3.9417
X8.9434Y-4.1653
X8.9851Y-3.8518
X8.9873Y-4.0754
X9.0289Y-3.762
X9.0311Y-3.9856
X9.0749Y-3.8957
X9.1188Y-3.8058
T4
X5.95Y-3.8916
X5.95Y-3.99
X10.0784Y-5.0038
X10.1645Y-5.0515
X9.2043Y-5.2999
X9.283Y-5.2999
X9.3617Y-5.2999
X9.4405Y-5.2999
X9.5192Y-5.2999
X9.598Y-5.2999
X9.6767Y-5.2999
X9.7554Y-5.2999
X3.9819Y-6.5869
X4.1Y-6.39
T5
X5.85Y-3.09
X5.85Y-3.19
T6
X9.3225Y-4.602
X9.4225Y-4.602
X9.5225Y-4.602
X9.6225Y-4.602
X9.7225Y-4.602
X9.8225Y-4.602
X3.4063Y-5.5931
X3.4063Y-5.79
X3.6031Y-5.5931
X3.6031Y-5.79
X3.8Y-5.5931
X3.8Y-5.79
X3.4063Y-7.0931
X3.4063Y-7.29
X3.6031Y-7.0931
X3.6031Y-7.29
X3.8Y-7.0931
X3.8Y-7.29
X9.3225Y-5.002
X9.4225Y-5.002
X9.5225Y-5.002
X9.6225Y-5.002
X9.7225Y-5.002
X9.8225Y-5.002
X3.8063Y-4.6431
X3.8063Y-4.84
X4.0031Y-4.6431
X4.0031Y-4.84
X4.2Y-4.6431
X4.2Y-4.84
T7
X6.0441Y-2.9128
X6.0441Y-3.09
X6.3Y-2.9128
X6.3Y-3.09
T8
X5.9762Y-4.7859
X6.1175Y-4.72
X4.9576Y-6.2849
X4.9846Y-6.1313
X7.8642Y-8.0739
X7.9919Y-7.9844
X8.624Y-7.14
X8.6722Y-6.9917
T9
X9.44Y-6.3951
X9.44Y-6.011
X9.44Y-8.7967
T10
X6.8475Y-7.2599
X6.0601Y-6.4725
X7.6349Y-6.4725
X6.8508Y-5.6851
T11
X6.8472Y-3.088
X6.8472Y-9.8607
X3.4614Y-6.472
X6.8475Y-6.4725
X10.2331Y-6.4739
T0
M30
