G04 #@! TF.GenerationSoftware,KiCad,Pcbnew,(5.0.2)-1*
G04 #@! TF.CreationDate,2020-01-30T15:59:27+01:00*
G04 #@! TF.ProjectId,HB-OU-RGB-STACKFIRE,48422d4f-552d-4524-9742-2d535441434b,2.0.1*
G04 #@! TF.SameCoordinates,Original*
G04 #@! TF.FileFunction,Legend,Bot*
G04 #@! TF.FilePolarity,Positive*
%FSLAX46Y46*%
G04 Gerber Fmt 4.6, Leading zero omitted, Abs format (unit mm)*
G04 Created by KiCad (PCBNEW (5.0.2)-1) date 30.01.2020 15:59:27*
%MOMM*%
%LPD*%
G01*
G04 APERTURE LIST*
%ADD10C,0.300000*%
%ADD11C,0.200000*%
%ADD12C,0.150000*%
%ADD13C,0.250000*%
%ADD14C,0.010000*%
%ADD15C,0.120000*%
%ADD16C,0.100000*%
%ADD17C,2.900000*%
%ADD18C,9.000000*%
%ADD19C,1.300000*%
%ADD20C,11.000000*%
%ADD21C,2.000000*%
%ADD22R,2.100000X2.100000*%
%ADD23O,2.100000X2.100000*%
%ADD24C,1.750000*%
%ADD25R,2.200000X2.200000*%
%ADD26C,2.200000*%
%ADD27R,1.900000X3.400000*%
%ADD28O,1.900000X3.400000*%
%ADD29C,1.924000*%
%ADD30C,1.800000*%
%ADD31O,1.800000X1.800000*%
%ADD32C,2.400000*%
%ADD33C,3.000000*%
G04 APERTURE END LIST*
D10*
X145771714Y-208958571D02*
X145771714Y-207458571D01*
X144914571Y-208958571D01*
X144914571Y-207458571D01*
X144414571Y-207458571D02*
X143557428Y-207458571D01*
X143986000Y-208958571D02*
X143986000Y-207458571D01*
X141128857Y-208958571D02*
X141986000Y-208958571D01*
X141557428Y-208958571D02*
X141557428Y-207458571D01*
X141700285Y-207672857D01*
X141843142Y-207815714D01*
X141986000Y-207887142D01*
X139414571Y-207387142D02*
X140700285Y-209315714D01*
X139057428Y-207458571D02*
X138128857Y-207458571D01*
X138628857Y-208030000D01*
X138414571Y-208030000D01*
X138271714Y-208101428D01*
X138200285Y-208172857D01*
X138128857Y-208315714D01*
X138128857Y-208672857D01*
X138200285Y-208815714D01*
X138271714Y-208887142D01*
X138414571Y-208958571D01*
X138843142Y-208958571D01*
X138986000Y-208887142D01*
X139057428Y-208815714D01*
D11*
X148340000Y-200506000D02*
G75*
G03X148340000Y-200506000I-6300000J0D01*
G01*
D10*
X140950349Y-203419861D02*
X142064793Y-204459096D01*
X140987953Y-204496700D02*
X142027189Y-203382257D01*
X220393200Y-143139518D02*
X219797800Y-141736844D01*
X220796837Y-142140481D02*
X219394163Y-142735881D01*
D11*
X224486000Y-145456000D02*
G75*
G03X224486000Y-145456000I-6300000J0D01*
G01*
D10*
X225019714Y-153840571D02*
X225019714Y-152340571D01*
X224162571Y-153840571D01*
X224162571Y-152340571D01*
X223662571Y-152340571D02*
X222805428Y-152340571D01*
X223234000Y-153840571D02*
X223234000Y-152340571D01*
X221234000Y-152483428D02*
X221162571Y-152412000D01*
X221019714Y-152340571D01*
X220662571Y-152340571D01*
X220519714Y-152412000D01*
X220448285Y-152483428D01*
X220376857Y-152626285D01*
X220376857Y-152769142D01*
X220448285Y-152983428D01*
X221305428Y-153840571D01*
X220376857Y-153840571D01*
X218662571Y-152269142D02*
X219948285Y-154197714D01*
X218305428Y-152340571D02*
X217376857Y-152340571D01*
X217876857Y-152912000D01*
X217662571Y-152912000D01*
X217519714Y-152983428D01*
X217448285Y-153054857D01*
X217376857Y-153197714D01*
X217376857Y-153554857D01*
X217448285Y-153697714D01*
X217519714Y-153769142D01*
X217662571Y-153840571D01*
X218091142Y-153840571D01*
X218234000Y-153769142D01*
X218305428Y-153697714D01*
X97139047Y-174132761D02*
X96186666Y-174132761D01*
X96186666Y-172132761D01*
X90868571Y-174132761D02*
X90868571Y-172132761D01*
X92011428Y-174132761D01*
X92011428Y-172132761D01*
X90868571Y-136032761D02*
X90868571Y-134032761D01*
X92011428Y-136032761D01*
X92011428Y-134032761D01*
X97139047Y-136032761D02*
X96186666Y-136032761D01*
X96186666Y-134032761D01*
X101028571Y-111902761D02*
X101028571Y-109902761D01*
X102171428Y-111902761D01*
X102171428Y-109902761D01*
X107299047Y-111902761D02*
X106346666Y-111902761D01*
X106346666Y-109902761D01*
X222912423Y-179076759D02*
X223383306Y-177627530D01*
X223872479Y-178587586D02*
X222423250Y-178116703D01*
X203927823Y-205659032D02*
X205176055Y-204785011D01*
X204988950Y-205846137D02*
X204114928Y-204597905D01*
X123181616Y-158228863D02*
X122917009Y-159729522D01*
X122298983Y-158846889D02*
X123799642Y-159111496D01*
X151125146Y-118674532D02*
X149744105Y-119318522D01*
X150112631Y-118306007D02*
X150756620Y-119687047D01*
D11*
X225970000Y-179456000D02*
G75*
G03X225970000Y-179456000I-6300000J0D01*
G01*
X207640000Y-203962000D02*
G75*
G03X207640000Y-203962000I-6300000J0D01*
G01*
X132540000Y-157676000D02*
G75*
G03X132540000Y-157676000I-6300000J0D01*
G01*
X159870000Y-120700000D02*
G75*
G03X159870000Y-120700000I-6300000J0D01*
G01*
D10*
X148057714Y-125138571D02*
X148057714Y-123638571D01*
X147200571Y-125138571D01*
X147200571Y-123638571D01*
X146700571Y-123638571D02*
X145843428Y-123638571D01*
X146272000Y-125138571D02*
X146272000Y-123638571D01*
X143414857Y-125138571D02*
X144272000Y-125138571D01*
X143843428Y-125138571D02*
X143843428Y-123638571D01*
X143986285Y-123852857D01*
X144129142Y-123995714D01*
X144272000Y-124067142D01*
X141700571Y-123567142D02*
X142986285Y-125495714D01*
X140414857Y-125138571D02*
X141272000Y-125138571D01*
X140843428Y-125138571D02*
X140843428Y-123638571D01*
X140986285Y-123852857D01*
X141129142Y-123995714D01*
X141272000Y-124067142D01*
X129007714Y-166540571D02*
X129007714Y-165040571D01*
X128150571Y-166540571D01*
X128150571Y-165040571D01*
X127650571Y-165040571D02*
X126793428Y-165040571D01*
X127222000Y-166540571D02*
X127222000Y-165040571D01*
X124364857Y-166540571D02*
X125222000Y-166540571D01*
X124793428Y-166540571D02*
X124793428Y-165040571D01*
X124936285Y-165254857D01*
X125079142Y-165397714D01*
X125222000Y-165469142D01*
X122650571Y-164969142D02*
X123936285Y-166897714D01*
X122222000Y-165183428D02*
X122150571Y-165112000D01*
X122007714Y-165040571D01*
X121650571Y-165040571D01*
X121507714Y-165112000D01*
X121436285Y-165183428D01*
X121364857Y-165326285D01*
X121364857Y-165469142D01*
X121436285Y-165683428D01*
X122293428Y-166540571D01*
X121364857Y-166540571D01*
X205207714Y-212514571D02*
X205207714Y-211014571D01*
X204350571Y-212514571D01*
X204350571Y-211014571D01*
X203850571Y-211014571D02*
X202993428Y-211014571D01*
X203422000Y-212514571D02*
X203422000Y-211014571D01*
X201422000Y-211157428D02*
X201350571Y-211086000D01*
X201207714Y-211014571D01*
X200850571Y-211014571D01*
X200707714Y-211086000D01*
X200636285Y-211157428D01*
X200564857Y-211300285D01*
X200564857Y-211443142D01*
X200636285Y-211657428D01*
X201493428Y-212514571D01*
X200564857Y-212514571D01*
X198850571Y-210943142D02*
X200136285Y-212871714D01*
X197564857Y-212514571D02*
X198422000Y-212514571D01*
X197993428Y-212514571D02*
X197993428Y-211014571D01*
X198136285Y-211228857D01*
X198279142Y-211371714D01*
X198422000Y-211443142D01*
X223749714Y-187876571D02*
X223749714Y-186376571D01*
X222892571Y-187876571D01*
X222892571Y-186376571D01*
X222392571Y-186376571D02*
X221535428Y-186376571D01*
X221964000Y-187876571D02*
X221964000Y-186376571D01*
X219964000Y-186519428D02*
X219892571Y-186448000D01*
X219749714Y-186376571D01*
X219392571Y-186376571D01*
X219249714Y-186448000D01*
X219178285Y-186519428D01*
X219106857Y-186662285D01*
X219106857Y-186805142D01*
X219178285Y-187019428D01*
X220035428Y-187876571D01*
X219106857Y-187876571D01*
X217392571Y-186305142D02*
X218678285Y-188233714D01*
X216964000Y-186519428D02*
X216892571Y-186448000D01*
X216749714Y-186376571D01*
X216392571Y-186376571D01*
X216249714Y-186448000D01*
X216178285Y-186519428D01*
X216106857Y-186662285D01*
X216106857Y-186805142D01*
X216178285Y-187019428D01*
X217035428Y-187876571D01*
X216106857Y-187876571D01*
D12*
G36*
X167318935Y-244922023D02*
X167318935Y-237175023D01*
X132457435Y-237175023D01*
X132457435Y-244922023D01*
X167318935Y-244922023D01*
G37*
X167318935Y-244922023D02*
X167318935Y-237175023D01*
X132457435Y-237175023D01*
X132457435Y-244922023D01*
X167318935Y-244922023D01*
D13*
X148767196Y-246732142D02*
X148767196Y-247732142D01*
X148767196Y-247255951D02*
X149338625Y-247255951D01*
X149338625Y-246732142D02*
X149338625Y-247732142D01*
X150148149Y-247255951D02*
X150291006Y-247208332D01*
X150338625Y-247160713D01*
X150386244Y-247065475D01*
X150386244Y-246922618D01*
X150338625Y-246827380D01*
X150291006Y-246779761D01*
X150195768Y-246732142D01*
X149814815Y-246732142D01*
X149814815Y-247732142D01*
X150148149Y-247732142D01*
X150243387Y-247684523D01*
X150291006Y-247636903D01*
X150338625Y-247541665D01*
X150338625Y-247446427D01*
X150291006Y-247351189D01*
X150243387Y-247303570D01*
X150148149Y-247255951D01*
X149814815Y-247255951D01*
X150814815Y-247113094D02*
X151576720Y-247113094D01*
X152243387Y-247732142D02*
X152433863Y-247732142D01*
X152529101Y-247684523D01*
X152624339Y-247589284D01*
X152671958Y-247398808D01*
X152671958Y-247065475D01*
X152624339Y-246874999D01*
X152529101Y-246779761D01*
X152433863Y-246732142D01*
X152243387Y-246732142D01*
X152148149Y-246779761D01*
X152052911Y-246874999D01*
X152005292Y-247065475D01*
X152005292Y-247398808D01*
X152052911Y-247589284D01*
X152148149Y-247684523D01*
X152243387Y-247732142D01*
X153100530Y-247732142D02*
X153100530Y-246922618D01*
X153148149Y-246827380D01*
X153195768Y-246779761D01*
X153291006Y-246732142D01*
X153481482Y-246732142D01*
X153576720Y-246779761D01*
X153624339Y-246827380D01*
X153671958Y-246922618D01*
X153671958Y-247732142D01*
X154148149Y-247113094D02*
X154910054Y-247113094D01*
X155957673Y-246732142D02*
X155624339Y-247208332D01*
X155386244Y-246732142D02*
X155386244Y-247732142D01*
X155767196Y-247732142D01*
X155862435Y-247684523D01*
X155910054Y-247636903D01*
X155957673Y-247541665D01*
X155957673Y-247398808D01*
X155910054Y-247303570D01*
X155862435Y-247255951D01*
X155767196Y-247208332D01*
X155386244Y-247208332D01*
X156910054Y-247684523D02*
X156814815Y-247732142D01*
X156671958Y-247732142D01*
X156529101Y-247684523D01*
X156433863Y-247589284D01*
X156386244Y-247494046D01*
X156338625Y-247303570D01*
X156338625Y-247160713D01*
X156386244Y-246970237D01*
X156433863Y-246874999D01*
X156529101Y-246779761D01*
X156671958Y-246732142D01*
X156767196Y-246732142D01*
X156910054Y-246779761D01*
X156957673Y-246827380D01*
X156957673Y-247160713D01*
X156767196Y-247160713D01*
X157719577Y-247255951D02*
X157862435Y-247208332D01*
X157910054Y-247160713D01*
X157957673Y-247065475D01*
X157957673Y-246922618D01*
X157910054Y-246827380D01*
X157862435Y-246779761D01*
X157767196Y-246732142D01*
X157386244Y-246732142D01*
X157386244Y-247732142D01*
X157719577Y-247732142D01*
X157814815Y-247684523D01*
X157862435Y-247636903D01*
X157910054Y-247541665D01*
X157910054Y-247446427D01*
X157862435Y-247351189D01*
X157814815Y-247303570D01*
X157719577Y-247255951D01*
X157386244Y-247255951D01*
X158386244Y-247113094D02*
X159148149Y-247113094D01*
X159576720Y-246779761D02*
X159719577Y-246732142D01*
X159957673Y-246732142D01*
X160052911Y-246779761D01*
X160100530Y-246827380D01*
X160148149Y-246922618D01*
X160148149Y-247017856D01*
X160100530Y-247113094D01*
X160052911Y-247160713D01*
X159957673Y-247208332D01*
X159767196Y-247255951D01*
X159671958Y-247303570D01*
X159624339Y-247351189D01*
X159576720Y-247446427D01*
X159576720Y-247541665D01*
X159624339Y-247636903D01*
X159671958Y-247684523D01*
X159767196Y-247732142D01*
X160005292Y-247732142D01*
X160148149Y-247684523D01*
X160433863Y-247732142D02*
X161005292Y-247732142D01*
X160719577Y-246732142D02*
X160719577Y-247732142D01*
X161291006Y-247017856D02*
X161767196Y-247017856D01*
X161195768Y-246732142D02*
X161529101Y-247732142D01*
X161862435Y-246732142D01*
X162767196Y-246827380D02*
X162719577Y-246779761D01*
X162576720Y-246732142D01*
X162481482Y-246732142D01*
X162338625Y-246779761D01*
X162243387Y-246874999D01*
X162195768Y-246970237D01*
X162148149Y-247160713D01*
X162148149Y-247303570D01*
X162195768Y-247494046D01*
X162243387Y-247589284D01*
X162338625Y-247684523D01*
X162481482Y-247732142D01*
X162576720Y-247732142D01*
X162719577Y-247684523D01*
X162767196Y-247636903D01*
X163195768Y-246732142D02*
X163195768Y-247732142D01*
X163767196Y-246732142D02*
X163338625Y-247303570D01*
X163767196Y-247732142D02*
X163195768Y-247160713D01*
X164529101Y-247255951D02*
X164195768Y-247255951D01*
X164195768Y-246732142D02*
X164195768Y-247732142D01*
X164671958Y-247732142D01*
X165052911Y-246732142D02*
X165052911Y-247732142D01*
X166100530Y-246732142D02*
X165767196Y-247208332D01*
X165529101Y-246732142D02*
X165529101Y-247732142D01*
X165910054Y-247732142D01*
X166005292Y-247684523D01*
X166052911Y-247636903D01*
X166100530Y-247541665D01*
X166100530Y-247398808D01*
X166052911Y-247303570D01*
X166005292Y-247255951D01*
X165910054Y-247208332D01*
X165529101Y-247208332D01*
X166529101Y-247255951D02*
X166862435Y-247255951D01*
X167005292Y-246732142D02*
X166529101Y-246732142D01*
X166529101Y-247732142D01*
X167005292Y-247732142D01*
D14*
G04 #@! TO.C,G\002A\002A\002A*
G36*
X134636272Y-247227931D02*
X134511899Y-247247366D01*
X134459091Y-247261415D01*
X134309572Y-247326629D01*
X134178478Y-247421186D01*
X134068418Y-247541771D01*
X133981998Y-247685071D01*
X133921826Y-247847772D01*
X133895938Y-247977155D01*
X133885302Y-248171680D01*
X133906264Y-248354579D01*
X133958105Y-248522898D01*
X134040108Y-248673681D01*
X134077153Y-248723447D01*
X134200830Y-248849170D01*
X134343954Y-248945463D01*
X134502995Y-249010984D01*
X134674423Y-249044388D01*
X134854707Y-249044330D01*
X134904220Y-249038435D01*
X135057472Y-248998777D01*
X135195775Y-248928187D01*
X135315174Y-248830317D01*
X135411712Y-248708815D01*
X135481431Y-248567331D01*
X135506855Y-248482559D01*
X135529377Y-248387309D01*
X135101529Y-248387309D01*
X135081504Y-248466833D01*
X135046563Y-248543193D01*
X134987668Y-248611641D01*
X134915962Y-248660573D01*
X134883710Y-248672796D01*
X134838328Y-248680347D01*
X134773334Y-248685255D01*
X134723505Y-248686360D01*
X134614874Y-248671968D01*
X134524279Y-248628008D01*
X134448203Y-248552311D01*
X134409221Y-248492795D01*
X134361692Y-248382902D01*
X134333043Y-248258428D01*
X134322702Y-248126933D01*
X134330098Y-247995975D01*
X134354659Y-247873114D01*
X134395814Y-247765908D01*
X134452989Y-247681918D01*
X134471948Y-247663452D01*
X134561452Y-247607819D01*
X134667610Y-247578874D01*
X134781565Y-247577497D01*
X134894463Y-247604571D01*
X134926473Y-247618217D01*
X134987217Y-247661771D01*
X135040288Y-247725208D01*
X135075209Y-247794652D01*
X135082255Y-247824502D01*
X135079808Y-247858825D01*
X135053839Y-247875298D01*
X135037704Y-247878931D01*
X135017951Y-247883772D01*
X135009517Y-247892039D01*
X135015269Y-247908091D01*
X135038076Y-247936285D01*
X135080804Y-247980982D01*
X135146321Y-248046539D01*
X135151097Y-248051288D01*
X135314935Y-248214195D01*
X135478815Y-248051288D01*
X135642696Y-247888380D01*
X135583137Y-247879309D01*
X135544785Y-247869192D01*
X135521471Y-247846726D01*
X135503413Y-247801290D01*
X135499596Y-247788594D01*
X135435947Y-247621715D01*
X135351322Y-247484153D01*
X135244989Y-247375113D01*
X135116216Y-247293800D01*
X135004621Y-247250578D01*
X134896614Y-247229260D01*
X134769171Y-247221804D01*
X134636272Y-247227931D01*
X134636272Y-247227931D01*
G37*
X134636272Y-247227931D02*
X134511899Y-247247366D01*
X134459091Y-247261415D01*
X134309572Y-247326629D01*
X134178478Y-247421186D01*
X134068418Y-247541771D01*
X133981998Y-247685071D01*
X133921826Y-247847772D01*
X133895938Y-247977155D01*
X133885302Y-248171680D01*
X133906264Y-248354579D01*
X133958105Y-248522898D01*
X134040108Y-248673681D01*
X134077153Y-248723447D01*
X134200830Y-248849170D01*
X134343954Y-248945463D01*
X134502995Y-249010984D01*
X134674423Y-249044388D01*
X134854707Y-249044330D01*
X134904220Y-249038435D01*
X135057472Y-248998777D01*
X135195775Y-248928187D01*
X135315174Y-248830317D01*
X135411712Y-248708815D01*
X135481431Y-248567331D01*
X135506855Y-248482559D01*
X135529377Y-248387309D01*
X135101529Y-248387309D01*
X135081504Y-248466833D01*
X135046563Y-248543193D01*
X134987668Y-248611641D01*
X134915962Y-248660573D01*
X134883710Y-248672796D01*
X134838328Y-248680347D01*
X134773334Y-248685255D01*
X134723505Y-248686360D01*
X134614874Y-248671968D01*
X134524279Y-248628008D01*
X134448203Y-248552311D01*
X134409221Y-248492795D01*
X134361692Y-248382902D01*
X134333043Y-248258428D01*
X134322702Y-248126933D01*
X134330098Y-247995975D01*
X134354659Y-247873114D01*
X134395814Y-247765908D01*
X134452989Y-247681918D01*
X134471948Y-247663452D01*
X134561452Y-247607819D01*
X134667610Y-247578874D01*
X134781565Y-247577497D01*
X134894463Y-247604571D01*
X134926473Y-247618217D01*
X134987217Y-247661771D01*
X135040288Y-247725208D01*
X135075209Y-247794652D01*
X135082255Y-247824502D01*
X135079808Y-247858825D01*
X135053839Y-247875298D01*
X135037704Y-247878931D01*
X135017951Y-247883772D01*
X135009517Y-247892039D01*
X135015269Y-247908091D01*
X135038076Y-247936285D01*
X135080804Y-247980982D01*
X135146321Y-248046539D01*
X135151097Y-248051288D01*
X135314935Y-248214195D01*
X135478815Y-248051288D01*
X135642696Y-247888380D01*
X135583137Y-247879309D01*
X135544785Y-247869192D01*
X135521471Y-247846726D01*
X135503413Y-247801290D01*
X135499596Y-247788594D01*
X135435947Y-247621715D01*
X135351322Y-247484153D01*
X135244989Y-247375113D01*
X135116216Y-247293800D01*
X135004621Y-247250578D01*
X134896614Y-247229260D01*
X134769171Y-247221804D01*
X134636272Y-247227931D01*
G36*
X142026764Y-247015817D02*
X141949001Y-247045622D01*
X141912768Y-247073995D01*
X141870420Y-247139562D01*
X141851855Y-247220036D01*
X141856360Y-247304514D01*
X141883222Y-247382090D01*
X141931729Y-247441859D01*
X141937090Y-247445962D01*
X142002391Y-247476051D01*
X142084198Y-247489500D01*
X142165709Y-247484067D01*
X142185401Y-247479098D01*
X142251271Y-247446245D01*
X142293531Y-247392460D01*
X142314599Y-247313559D01*
X142318078Y-247249538D01*
X142316260Y-247182715D01*
X142308211Y-247139405D01*
X142290036Y-247106912D01*
X142266379Y-247080962D01*
X142196214Y-247033698D01*
X142112756Y-247011913D01*
X142026764Y-247015817D01*
X142026764Y-247015817D01*
G37*
X142026764Y-247015817D02*
X141949001Y-247045622D01*
X141912768Y-247073995D01*
X141870420Y-247139562D01*
X141851855Y-247220036D01*
X141856360Y-247304514D01*
X141883222Y-247382090D01*
X141931729Y-247441859D01*
X141937090Y-247445962D01*
X142002391Y-247476051D01*
X142084198Y-247489500D01*
X142165709Y-247484067D01*
X142185401Y-247479098D01*
X142251271Y-247446245D01*
X142293531Y-247392460D01*
X142314599Y-247313559D01*
X142318078Y-247249538D01*
X142316260Y-247182715D01*
X142308211Y-247139405D01*
X142290036Y-247106912D01*
X142266379Y-247080962D01*
X142196214Y-247033698D01*
X142112756Y-247011913D01*
X142026764Y-247015817D01*
G36*
X141952710Y-247589358D02*
X141850496Y-247590565D01*
X141775402Y-247592948D01*
X141722846Y-247596812D01*
X141688250Y-247602460D01*
X141667031Y-247610197D01*
X141657160Y-247617533D01*
X141647308Y-247632317D01*
X141639955Y-247657423D01*
X141634761Y-247697627D01*
X141631384Y-247757704D01*
X141629482Y-247842430D01*
X141628715Y-247956582D01*
X141628650Y-248016676D01*
X141628650Y-248387309D01*
X141828221Y-248387309D01*
X141828221Y-249221880D01*
X142354364Y-249221880D01*
X142354364Y-248387309D01*
X142553935Y-248387309D01*
X142553935Y-248018192D01*
X142553676Y-247892329D01*
X142552623Y-247797750D01*
X142550358Y-247729457D01*
X142546468Y-247682452D01*
X142540537Y-247651734D01*
X142532148Y-247632306D01*
X142520887Y-247619167D01*
X142520757Y-247619049D01*
X142505694Y-247609094D01*
X142482289Y-247601572D01*
X142445825Y-247596155D01*
X142391587Y-247592518D01*
X142314856Y-247590335D01*
X142210918Y-247589279D01*
X142086624Y-247589023D01*
X141952710Y-247589358D01*
X141952710Y-247589358D01*
G37*
X141952710Y-247589358D02*
X141850496Y-247590565D01*
X141775402Y-247592948D01*
X141722846Y-247596812D01*
X141688250Y-247602460D01*
X141667031Y-247610197D01*
X141657160Y-247617533D01*
X141647308Y-247632317D01*
X141639955Y-247657423D01*
X141634761Y-247697627D01*
X141631384Y-247757704D01*
X141629482Y-247842430D01*
X141628715Y-247956582D01*
X141628650Y-248016676D01*
X141628650Y-248387309D01*
X141828221Y-248387309D01*
X141828221Y-249221880D01*
X142354364Y-249221880D01*
X142354364Y-248387309D01*
X142553935Y-248387309D01*
X142553935Y-248018192D01*
X142553676Y-247892329D01*
X142552623Y-247797750D01*
X142550358Y-247729457D01*
X142546468Y-247682452D01*
X142540537Y-247651734D01*
X142532148Y-247632306D01*
X142520887Y-247619167D01*
X142520757Y-247619049D01*
X142505694Y-247609094D01*
X142482289Y-247601572D01*
X142445825Y-247596155D01*
X142391587Y-247592518D01*
X142314856Y-247590335D01*
X142210918Y-247589279D01*
X142086624Y-247589023D01*
X141952710Y-247589358D01*
G36*
X145193073Y-247591227D02*
X145086485Y-247605777D01*
X144994859Y-247633030D01*
X144961604Y-247649372D01*
X144907050Y-247687200D01*
X144856923Y-247731857D01*
X144818016Y-247775930D01*
X144797119Y-247812004D01*
X144797100Y-247828960D01*
X144817066Y-247844364D01*
X144859936Y-247869693D01*
X144909293Y-247895793D01*
X145012292Y-247947752D01*
X145045711Y-247903370D01*
X145085749Y-247864657D01*
X145137271Y-247831296D01*
X145140332Y-247829802D01*
X145215434Y-247812393D01*
X145291029Y-247825736D01*
X145355801Y-247866491D01*
X145384200Y-247901779D01*
X145420139Y-247989584D01*
X145433526Y-248089575D01*
X145425229Y-248190955D01*
X145396117Y-248282925D01*
X145347860Y-248353890D01*
X145309335Y-248385992D01*
X145267903Y-248401304D01*
X145207668Y-248405436D01*
X145201795Y-248405452D01*
X145141962Y-248402587D01*
X145101448Y-248389271D01*
X145063441Y-248358423D01*
X145045001Y-248339405D01*
X144982711Y-248273358D01*
X144891989Y-248315849D01*
X144840125Y-248341919D01*
X144803203Y-248363788D01*
X144792118Y-248373147D01*
X144795716Y-248398812D01*
X144822367Y-248438278D01*
X144865388Y-248484551D01*
X144918096Y-248530639D01*
X144973807Y-248569547D01*
X144987061Y-248577137D01*
X145091981Y-248617201D01*
X145212723Y-248636261D01*
X145334665Y-248633056D01*
X145420507Y-248614516D01*
X145530475Y-248560307D01*
X145621580Y-248475953D01*
X145686313Y-248374272D01*
X145712205Y-248315940D01*
X145727480Y-248262999D01*
X145734769Y-248201826D01*
X145736707Y-248118799D01*
X145736711Y-248113557D01*
X145735190Y-248030824D01*
X145728787Y-247970844D01*
X145714741Y-247920150D01*
X145690289Y-247865270D01*
X145682742Y-247850324D01*
X145612331Y-247746242D01*
X145521803Y-247664806D01*
X145418258Y-247612099D01*
X145397065Y-247605663D01*
X145301105Y-247590737D01*
X145193073Y-247591227D01*
X145193073Y-247591227D01*
G37*
X145193073Y-247591227D02*
X145086485Y-247605777D01*
X144994859Y-247633030D01*
X144961604Y-247649372D01*
X144907050Y-247687200D01*
X144856923Y-247731857D01*
X144818016Y-247775930D01*
X144797119Y-247812004D01*
X144797100Y-247828960D01*
X144817066Y-247844364D01*
X144859936Y-247869693D01*
X144909293Y-247895793D01*
X145012292Y-247947752D01*
X145045711Y-247903370D01*
X145085749Y-247864657D01*
X145137271Y-247831296D01*
X145140332Y-247829802D01*
X145215434Y-247812393D01*
X145291029Y-247825736D01*
X145355801Y-247866491D01*
X145384200Y-247901779D01*
X145420139Y-247989584D01*
X145433526Y-248089575D01*
X145425229Y-248190955D01*
X145396117Y-248282925D01*
X145347860Y-248353890D01*
X145309335Y-248385992D01*
X145267903Y-248401304D01*
X145207668Y-248405436D01*
X145201795Y-248405452D01*
X145141962Y-248402587D01*
X145101448Y-248389271D01*
X145063441Y-248358423D01*
X145045001Y-248339405D01*
X144982711Y-248273358D01*
X144891989Y-248315849D01*
X144840125Y-248341919D01*
X144803203Y-248363788D01*
X144792118Y-248373147D01*
X144795716Y-248398812D01*
X144822367Y-248438278D01*
X144865388Y-248484551D01*
X144918096Y-248530639D01*
X144973807Y-248569547D01*
X144987061Y-248577137D01*
X145091981Y-248617201D01*
X145212723Y-248636261D01*
X145334665Y-248633056D01*
X145420507Y-248614516D01*
X145530475Y-248560307D01*
X145621580Y-248475953D01*
X145686313Y-248374272D01*
X145712205Y-248315940D01*
X145727480Y-248262999D01*
X145734769Y-248201826D01*
X145736707Y-248118799D01*
X145736711Y-248113557D01*
X145735190Y-248030824D01*
X145728787Y-247970844D01*
X145714741Y-247920150D01*
X145690289Y-247865270D01*
X145682742Y-247850324D01*
X145612331Y-247746242D01*
X145521803Y-247664806D01*
X145418258Y-247612099D01*
X145397065Y-247605663D01*
X145301105Y-247590737D01*
X145193073Y-247591227D01*
G36*
X146111888Y-247596584D02*
X146025381Y-247614184D01*
X146016966Y-247616988D01*
X145968470Y-247641056D01*
X145912766Y-247678820D01*
X145858343Y-247723080D01*
X145813686Y-247766633D01*
X145787283Y-247802277D01*
X145783579Y-247815050D01*
X145798455Y-247832697D01*
X145837236Y-247860747D01*
X145891187Y-247892935D01*
X145998580Y-247951919D01*
X146037026Y-247897926D01*
X146096770Y-247842940D01*
X146171935Y-247816784D01*
X146252716Y-247822203D01*
X146277218Y-247830662D01*
X146340023Y-247868709D01*
X146381736Y-247924746D01*
X146405995Y-248005080D01*
X146413655Y-248067188D01*
X146413043Y-248183190D01*
X146389542Y-248274105D01*
X146341936Y-248343949D01*
X146325046Y-248359501D01*
X146259557Y-248395131D01*
X146184848Y-248406384D01*
X146111519Y-248394561D01*
X146050169Y-248360965D01*
X146018148Y-248321805D01*
X145996659Y-248291695D01*
X145969822Y-248281388D01*
X145930053Y-248291265D01*
X145869768Y-248321709D01*
X145855039Y-248330038D01*
X145764715Y-248381625D01*
X145839749Y-248466868D01*
X145926906Y-248549866D01*
X146019349Y-248602251D01*
X146127497Y-248628980D01*
X146191578Y-248634311D01*
X146264740Y-248635057D01*
X146330979Y-248631688D01*
X146373007Y-248625522D01*
X146486164Y-248578041D01*
X146584118Y-248501709D01*
X146659652Y-248403069D01*
X146690623Y-248337475D01*
X146720315Y-248214949D01*
X146725988Y-248080526D01*
X146707683Y-247949476D01*
X146689490Y-247889828D01*
X146641832Y-247800981D01*
X146571866Y-247718343D01*
X146489540Y-247651661D01*
X146404802Y-247610682D01*
X146404499Y-247610591D01*
X146317786Y-247594517D01*
X146214803Y-247589938D01*
X146111888Y-247596584D01*
X146111888Y-247596584D01*
G37*
X146111888Y-247596584D02*
X146025381Y-247614184D01*
X146016966Y-247616988D01*
X145968470Y-247641056D01*
X145912766Y-247678820D01*
X145858343Y-247723080D01*
X145813686Y-247766633D01*
X145787283Y-247802277D01*
X145783579Y-247815050D01*
X145798455Y-247832697D01*
X145837236Y-247860747D01*
X145891187Y-247892935D01*
X145998580Y-247951919D01*
X146037026Y-247897926D01*
X146096770Y-247842940D01*
X146171935Y-247816784D01*
X146252716Y-247822203D01*
X146277218Y-247830662D01*
X146340023Y-247868709D01*
X146381736Y-247924746D01*
X146405995Y-248005080D01*
X146413655Y-248067188D01*
X146413043Y-248183190D01*
X146389542Y-248274105D01*
X146341936Y-248343949D01*
X146325046Y-248359501D01*
X146259557Y-248395131D01*
X146184848Y-248406384D01*
X146111519Y-248394561D01*
X146050169Y-248360965D01*
X146018148Y-248321805D01*
X145996659Y-248291695D01*
X145969822Y-248281388D01*
X145930053Y-248291265D01*
X145869768Y-248321709D01*
X145855039Y-248330038D01*
X145764715Y-248381625D01*
X145839749Y-248466868D01*
X145926906Y-248549866D01*
X146019349Y-248602251D01*
X146127497Y-248628980D01*
X146191578Y-248634311D01*
X146264740Y-248635057D01*
X146330979Y-248631688D01*
X146373007Y-248625522D01*
X146486164Y-248578041D01*
X146584118Y-248501709D01*
X146659652Y-248403069D01*
X146690623Y-248337475D01*
X146720315Y-248214949D01*
X146725988Y-248080526D01*
X146707683Y-247949476D01*
X146689490Y-247889828D01*
X146641832Y-247800981D01*
X146571866Y-247718343D01*
X146489540Y-247651661D01*
X146404802Y-247610682D01*
X146404499Y-247610591D01*
X146317786Y-247594517D01*
X146214803Y-247589938D01*
X146111888Y-247596584D01*
G36*
X134597093Y-246419088D02*
X134351946Y-246458533D01*
X134217292Y-246495114D01*
X133998673Y-246582085D01*
X133793328Y-246701339D01*
X133604639Y-246850246D01*
X133435990Y-247026179D01*
X133305052Y-247204030D01*
X133196014Y-247405428D01*
X133117166Y-247622149D01*
X133068474Y-247849440D01*
X133049906Y-248082544D01*
X133061427Y-248316705D01*
X133103004Y-248547167D01*
X133174605Y-248769176D01*
X133276195Y-248977974D01*
X133317959Y-249045721D01*
X133456770Y-249226591D01*
X133623549Y-249390332D01*
X133812364Y-249532748D01*
X134017280Y-249649638D01*
X134232362Y-249736805D01*
X134337153Y-249766776D01*
X134504781Y-249797601D01*
X134686158Y-249812747D01*
X134867674Y-249811902D01*
X135035718Y-249794756D01*
X135092595Y-249784035D01*
X135326448Y-249718234D01*
X135538847Y-249626045D01*
X135734754Y-249504667D01*
X135919129Y-249351301D01*
X135997770Y-249273077D01*
X136156200Y-249082701D01*
X136281567Y-248877454D01*
X136373644Y-248657902D01*
X136432205Y-248424612D01*
X136457024Y-248178153D01*
X136457935Y-248119263D01*
X136457100Y-248104976D01*
X136146681Y-248104976D01*
X136143177Y-248243877D01*
X136129215Y-248367694D01*
X136123276Y-248398378D01*
X136061290Y-248601673D01*
X135968022Y-248792378D01*
X135847038Y-248967223D01*
X135701902Y-249122941D01*
X135536180Y-249256264D01*
X135353437Y-249363923D01*
X135157237Y-249442649D01*
X134951146Y-249489176D01*
X134930436Y-249491895D01*
X134772585Y-249500702D01*
X134603157Y-249492242D01*
X134441732Y-249467774D01*
X134398864Y-249457774D01*
X134211057Y-249392422D01*
X134028313Y-249296005D01*
X133857500Y-249173702D01*
X133705486Y-249030688D01*
X133579141Y-248872140D01*
X133540383Y-248810762D01*
X133454373Y-248630682D01*
X133395119Y-248432672D01*
X133363624Y-248224368D01*
X133360892Y-248013404D01*
X133387928Y-247807413D01*
X133401069Y-247751279D01*
X133468042Y-247561446D01*
X133566601Y-247379615D01*
X133692119Y-247211425D01*
X133839975Y-247062516D01*
X134005543Y-246938527D01*
X134120416Y-246873996D01*
X134250650Y-246814267D01*
X134365475Y-246772763D01*
X134477492Y-246746587D01*
X134599303Y-246732840D01*
X134743511Y-246728623D01*
X134752507Y-246728610D01*
X134929140Y-246735831D01*
X135083687Y-246759446D01*
X135227684Y-246802203D01*
X135372666Y-246866850D01*
X135405650Y-246884181D01*
X135585118Y-247000602D01*
X135747886Y-247145729D01*
X135889430Y-247314085D01*
X136005227Y-247500195D01*
X136090755Y-247698582D01*
X136098970Y-247723585D01*
X136124124Y-247832249D01*
X136140179Y-247963574D01*
X136146681Y-248104976D01*
X136457100Y-248104976D01*
X136443633Y-247874591D01*
X136399680Y-247648392D01*
X136324505Y-247436157D01*
X136216539Y-247233378D01*
X136085238Y-247049219D01*
X135918152Y-246868358D01*
X135730877Y-246716289D01*
X135526423Y-246593904D01*
X135307806Y-246502098D01*
X135078036Y-246441764D01*
X134840128Y-246413796D01*
X134597093Y-246419088D01*
X134597093Y-246419088D01*
G37*
X134597093Y-246419088D02*
X134351946Y-246458533D01*
X134217292Y-246495114D01*
X133998673Y-246582085D01*
X133793328Y-246701339D01*
X133604639Y-246850246D01*
X133435990Y-247026179D01*
X133305052Y-247204030D01*
X133196014Y-247405428D01*
X133117166Y-247622149D01*
X133068474Y-247849440D01*
X133049906Y-248082544D01*
X133061427Y-248316705D01*
X133103004Y-248547167D01*
X133174605Y-248769176D01*
X133276195Y-248977974D01*
X133317959Y-249045721D01*
X133456770Y-249226591D01*
X133623549Y-249390332D01*
X133812364Y-249532748D01*
X134017280Y-249649638D01*
X134232362Y-249736805D01*
X134337153Y-249766776D01*
X134504781Y-249797601D01*
X134686158Y-249812747D01*
X134867674Y-249811902D01*
X135035718Y-249794756D01*
X135092595Y-249784035D01*
X135326448Y-249718234D01*
X135538847Y-249626045D01*
X135734754Y-249504667D01*
X135919129Y-249351301D01*
X135997770Y-249273077D01*
X136156200Y-249082701D01*
X136281567Y-248877454D01*
X136373644Y-248657902D01*
X136432205Y-248424612D01*
X136457024Y-248178153D01*
X136457935Y-248119263D01*
X136457100Y-248104976D01*
X136146681Y-248104976D01*
X136143177Y-248243877D01*
X136129215Y-248367694D01*
X136123276Y-248398378D01*
X136061290Y-248601673D01*
X135968022Y-248792378D01*
X135847038Y-248967223D01*
X135701902Y-249122941D01*
X135536180Y-249256264D01*
X135353437Y-249363923D01*
X135157237Y-249442649D01*
X134951146Y-249489176D01*
X134930436Y-249491895D01*
X134772585Y-249500702D01*
X134603157Y-249492242D01*
X134441732Y-249467774D01*
X134398864Y-249457774D01*
X134211057Y-249392422D01*
X134028313Y-249296005D01*
X133857500Y-249173702D01*
X133705486Y-249030688D01*
X133579141Y-248872140D01*
X133540383Y-248810762D01*
X133454373Y-248630682D01*
X133395119Y-248432672D01*
X133363624Y-248224368D01*
X133360892Y-248013404D01*
X133387928Y-247807413D01*
X133401069Y-247751279D01*
X133468042Y-247561446D01*
X133566601Y-247379615D01*
X133692119Y-247211425D01*
X133839975Y-247062516D01*
X134005543Y-246938527D01*
X134120416Y-246873996D01*
X134250650Y-246814267D01*
X134365475Y-246772763D01*
X134477492Y-246746587D01*
X134599303Y-246732840D01*
X134743511Y-246728623D01*
X134752507Y-246728610D01*
X134929140Y-246735831D01*
X135083687Y-246759446D01*
X135227684Y-246802203D01*
X135372666Y-246866850D01*
X135405650Y-246884181D01*
X135585118Y-247000602D01*
X135747886Y-247145729D01*
X135889430Y-247314085D01*
X136005227Y-247500195D01*
X136090755Y-247698582D01*
X136098970Y-247723585D01*
X136124124Y-247832249D01*
X136140179Y-247963574D01*
X136146681Y-248104976D01*
X136457100Y-248104976D01*
X136443633Y-247874591D01*
X136399680Y-247648392D01*
X136324505Y-247436157D01*
X136216539Y-247233378D01*
X136085238Y-247049219D01*
X135918152Y-246868358D01*
X135730877Y-246716289D01*
X135526423Y-246593904D01*
X135307806Y-246502098D01*
X135078036Y-246441764D01*
X134840128Y-246413796D01*
X134597093Y-246419088D01*
G36*
X138263438Y-246419071D02*
X138027971Y-246456180D01*
X137801694Y-246523066D01*
X137590097Y-246619035D01*
X137486809Y-246680778D01*
X137287836Y-246831826D01*
X137115458Y-247006254D01*
X136971370Y-247201697D01*
X136857265Y-247415790D01*
X136774838Y-247646168D01*
X136763033Y-247691040D01*
X136737107Y-247834204D01*
X136723084Y-247998677D01*
X136720969Y-248171665D01*
X136730765Y-248340373D01*
X136752480Y-248492007D01*
X136762707Y-248537919D01*
X136832912Y-248758037D01*
X136930217Y-248958173D01*
X137057551Y-249143325D01*
X137217839Y-249318491D01*
X137222491Y-249322975D01*
X137388757Y-249468172D01*
X137556070Y-249583274D01*
X137733052Y-249673672D01*
X137863659Y-249723899D01*
X138092924Y-249784549D01*
X138329994Y-249814279D01*
X138566197Y-249812402D01*
X138725792Y-249792023D01*
X138951104Y-249733404D01*
X139167128Y-249642573D01*
X139370111Y-249522797D01*
X139556304Y-249377344D01*
X139721955Y-249209481D01*
X139863313Y-249022476D01*
X139976627Y-248819597D01*
X140046752Y-248641309D01*
X140080477Y-248526133D01*
X140103175Y-248420353D01*
X140116162Y-248312828D01*
X140120752Y-248192413D01*
X140119326Y-248109676D01*
X139814049Y-248109676D01*
X139805503Y-248286051D01*
X139778607Y-248442434D01*
X139730457Y-248591666D01*
X139679556Y-248704809D01*
X139562188Y-248903128D01*
X139420304Y-249074768D01*
X139253209Y-249220422D01*
X139060209Y-249340784D01*
X139022950Y-249359677D01*
X138911331Y-249410942D01*
X138811310Y-249447467D01*
X138712842Y-249471213D01*
X138605883Y-249484138D01*
X138480387Y-249488205D01*
X138372007Y-249486724D01*
X138256152Y-249482485D01*
X138167514Y-249475896D01*
X138097046Y-249465817D01*
X138035699Y-249451110D01*
X138000470Y-249439920D01*
X137835483Y-249375066D01*
X137692321Y-249298624D01*
X137559261Y-249203285D01*
X137424583Y-249081740D01*
X137421930Y-249079128D01*
X137343598Y-248997691D01*
X137280474Y-248923691D01*
X137235503Y-248861238D01*
X137211628Y-248814444D01*
X137211793Y-248787419D01*
X137212504Y-248786642D01*
X137233225Y-248774755D01*
X137280478Y-248751567D01*
X137347653Y-248720035D01*
X137428143Y-248683120D01*
X137515340Y-248643781D01*
X137602635Y-248604978D01*
X137683419Y-248569669D01*
X137751086Y-248540815D01*
X137799026Y-248521375D01*
X137820588Y-248514309D01*
X137834472Y-248529554D01*
X137851477Y-248566749D01*
X137853235Y-248571658D01*
X137906066Y-248670261D01*
X137988527Y-248755640D01*
X138095004Y-248823198D01*
X138213727Y-248866798D01*
X138299435Y-248888717D01*
X138301559Y-249014477D01*
X138303682Y-249140237D01*
X138499007Y-249140237D01*
X138509577Y-248881683D01*
X138616269Y-248869612D01*
X138711260Y-248848463D01*
X138816025Y-248808837D01*
X138914474Y-248757706D01*
X138978569Y-248712620D01*
X139022704Y-248675484D01*
X138902084Y-248554864D01*
X138781464Y-248434245D01*
X138739795Y-248473390D01*
X138668091Y-248523843D01*
X138579502Y-248561285D01*
X138483638Y-248584102D01*
X138390109Y-248590680D01*
X138308527Y-248579405D01*
X138255852Y-248554652D01*
X138226163Y-248526084D01*
X138212229Y-248489790D01*
X138208721Y-248431760D01*
X138208721Y-248430743D01*
X138210826Y-248376153D01*
X138221795Y-248344536D01*
X138248612Y-248322628D01*
X138272221Y-248310125D01*
X138323080Y-248285669D01*
X138398390Y-248250928D01*
X138494062Y-248207677D01*
X138606009Y-248157693D01*
X138730142Y-248102751D01*
X138862375Y-248044626D01*
X138998620Y-247985094D01*
X139134790Y-247925930D01*
X139266795Y-247868910D01*
X139390550Y-247815810D01*
X139501966Y-247768405D01*
X139596955Y-247728471D01*
X139671430Y-247697783D01*
X139721304Y-247678117D01*
X139742489Y-247671248D01*
X139742856Y-247671323D01*
X139758341Y-247697352D01*
X139774089Y-247751709D01*
X139788812Y-247826465D01*
X139801223Y-247913698D01*
X139810036Y-248005479D01*
X139813961Y-248093884D01*
X139814049Y-248109676D01*
X140119326Y-248109676D01*
X140118262Y-248047967D01*
X140117919Y-248038391D01*
X140097890Y-247808937D01*
X140053948Y-247602037D01*
X139983666Y-247411002D01*
X139946206Y-247342225D01*
X139578305Y-247342225D01*
X139562769Y-247358954D01*
X139522213Y-247383638D01*
X139465391Y-247410955D01*
X139464913Y-247411162D01*
X139401444Y-247438821D01*
X139316806Y-247476014D01*
X139222959Y-247517475D01*
X139147561Y-247550943D01*
X138943401Y-247641799D01*
X138906675Y-247569810D01*
X138841456Y-247481761D01*
X138745147Y-247412007D01*
X138618139Y-247360801D01*
X138557971Y-247345378D01*
X138531856Y-247337778D01*
X138516938Y-247323723D01*
X138510085Y-247294570D01*
X138508166Y-247241680D01*
X138508078Y-247207677D01*
X138508078Y-247081023D01*
X138308507Y-247081023D01*
X138308507Y-247333379D01*
X138240471Y-247344531D01*
X138157821Y-247363685D01*
X138069491Y-247393047D01*
X137988621Y-247427557D01*
X137928351Y-247462156D01*
X137921550Y-247467320D01*
X137871552Y-247507380D01*
X138090314Y-247723486D01*
X138176239Y-247681740D01*
X138268922Y-247647205D01*
X138361460Y-247631034D01*
X138447013Y-247632511D01*
X138518740Y-247650919D01*
X138569801Y-247685542D01*
X138591375Y-247725227D01*
X138595015Y-247766087D01*
X138587485Y-247788996D01*
X138567715Y-247799802D01*
X138518860Y-247823290D01*
X138445032Y-247857633D01*
X138350339Y-247900999D01*
X138238889Y-247951561D01*
X138114793Y-248007487D01*
X137982160Y-248066950D01*
X137845098Y-248128119D01*
X137707717Y-248189165D01*
X137574126Y-248248259D01*
X137448434Y-248303570D01*
X137334751Y-248353271D01*
X137237185Y-248395531D01*
X137159846Y-248428521D01*
X137106844Y-248450411D01*
X137082286Y-248459372D01*
X137081443Y-248459492D01*
X137063193Y-248444206D01*
X137050106Y-248409987D01*
X137027924Y-248247758D01*
X137025408Y-248069116D01*
X137041761Y-247887611D01*
X137076182Y-247716793D01*
X137094632Y-247655092D01*
X137169594Y-247482225D01*
X137275363Y-247314813D01*
X137406462Y-247158651D01*
X137557413Y-247019535D01*
X137722740Y-246903261D01*
X137882187Y-246821716D01*
X138084143Y-246755995D01*
X138295392Y-246722923D01*
X138510372Y-246722045D01*
X138723520Y-246752904D01*
X138929274Y-246815045D01*
X139122069Y-246908012D01*
X139151334Y-246925711D01*
X139206978Y-246964999D01*
X139272941Y-247018643D01*
X139343741Y-247081293D01*
X139413891Y-247147599D01*
X139477907Y-247212210D01*
X139530304Y-247269777D01*
X139565597Y-247314948D01*
X139578305Y-247342225D01*
X139946206Y-247342225D01*
X139884616Y-247229146D01*
X139762892Y-247060325D01*
X139616196Y-246899615D01*
X139449652Y-246755407D01*
X139270617Y-246632962D01*
X139086446Y-246537540D01*
X138970089Y-246493342D01*
X138739986Y-246436959D01*
X138502606Y-246412433D01*
X138263438Y-246419071D01*
X138263438Y-246419071D01*
G37*
X138263438Y-246419071D02*
X138027971Y-246456180D01*
X137801694Y-246523066D01*
X137590097Y-246619035D01*
X137486809Y-246680778D01*
X137287836Y-246831826D01*
X137115458Y-247006254D01*
X136971370Y-247201697D01*
X136857265Y-247415790D01*
X136774838Y-247646168D01*
X136763033Y-247691040D01*
X136737107Y-247834204D01*
X136723084Y-247998677D01*
X136720969Y-248171665D01*
X136730765Y-248340373D01*
X136752480Y-248492007D01*
X136762707Y-248537919D01*
X136832912Y-248758037D01*
X136930217Y-248958173D01*
X137057551Y-249143325D01*
X137217839Y-249318491D01*
X137222491Y-249322975D01*
X137388757Y-249468172D01*
X137556070Y-249583274D01*
X137733052Y-249673672D01*
X137863659Y-249723899D01*
X138092924Y-249784549D01*
X138329994Y-249814279D01*
X138566197Y-249812402D01*
X138725792Y-249792023D01*
X138951104Y-249733404D01*
X139167128Y-249642573D01*
X139370111Y-249522797D01*
X139556304Y-249377344D01*
X139721955Y-249209481D01*
X139863313Y-249022476D01*
X139976627Y-248819597D01*
X140046752Y-248641309D01*
X140080477Y-248526133D01*
X140103175Y-248420353D01*
X140116162Y-248312828D01*
X140120752Y-248192413D01*
X140119326Y-248109676D01*
X139814049Y-248109676D01*
X139805503Y-248286051D01*
X139778607Y-248442434D01*
X139730457Y-248591666D01*
X139679556Y-248704809D01*
X139562188Y-248903128D01*
X139420304Y-249074768D01*
X139253209Y-249220422D01*
X139060209Y-249340784D01*
X139022950Y-249359677D01*
X138911331Y-249410942D01*
X138811310Y-249447467D01*
X138712842Y-249471213D01*
X138605883Y-249484138D01*
X138480387Y-249488205D01*
X138372007Y-249486724D01*
X138256152Y-249482485D01*
X138167514Y-249475896D01*
X138097046Y-249465817D01*
X138035699Y-249451110D01*
X138000470Y-249439920D01*
X137835483Y-249375066D01*
X137692321Y-249298624D01*
X137559261Y-249203285D01*
X137424583Y-249081740D01*
X137421930Y-249079128D01*
X137343598Y-248997691D01*
X137280474Y-248923691D01*
X137235503Y-248861238D01*
X137211628Y-248814444D01*
X137211793Y-248787419D01*
X137212504Y-248786642D01*
X137233225Y-248774755D01*
X137280478Y-248751567D01*
X137347653Y-248720035D01*
X137428143Y-248683120D01*
X137515340Y-248643781D01*
X137602635Y-248604978D01*
X137683419Y-248569669D01*
X137751086Y-248540815D01*
X137799026Y-248521375D01*
X137820588Y-248514309D01*
X137834472Y-248529554D01*
X137851477Y-248566749D01*
X137853235Y-248571658D01*
X137906066Y-248670261D01*
X137988527Y-248755640D01*
X138095004Y-248823198D01*
X138213727Y-248866798D01*
X138299435Y-248888717D01*
X138301559Y-249014477D01*
X138303682Y-249140237D01*
X138499007Y-249140237D01*
X138509577Y-248881683D01*
X138616269Y-248869612D01*
X138711260Y-248848463D01*
X138816025Y-248808837D01*
X138914474Y-248757706D01*
X138978569Y-248712620D01*
X139022704Y-248675484D01*
X138902084Y-248554864D01*
X138781464Y-248434245D01*
X138739795Y-248473390D01*
X138668091Y-248523843D01*
X138579502Y-248561285D01*
X138483638Y-248584102D01*
X138390109Y-248590680D01*
X138308527Y-248579405D01*
X138255852Y-248554652D01*
X138226163Y-248526084D01*
X138212229Y-248489790D01*
X138208721Y-248431760D01*
X138208721Y-248430743D01*
X138210826Y-248376153D01*
X138221795Y-248344536D01*
X138248612Y-248322628D01*
X138272221Y-248310125D01*
X138323080Y-248285669D01*
X138398390Y-248250928D01*
X138494062Y-248207677D01*
X138606009Y-248157693D01*
X138730142Y-248102751D01*
X138862375Y-248044626D01*
X138998620Y-247985094D01*
X139134790Y-247925930D01*
X139266795Y-247868910D01*
X139390550Y-247815810D01*
X139501966Y-247768405D01*
X139596955Y-247728471D01*
X139671430Y-247697783D01*
X139721304Y-247678117D01*
X139742489Y-247671248D01*
X139742856Y-247671323D01*
X139758341Y-247697352D01*
X139774089Y-247751709D01*
X139788812Y-247826465D01*
X139801223Y-247913698D01*
X139810036Y-248005479D01*
X139813961Y-248093884D01*
X139814049Y-248109676D01*
X140119326Y-248109676D01*
X140118262Y-248047967D01*
X140117919Y-248038391D01*
X140097890Y-247808937D01*
X140053948Y-247602037D01*
X139983666Y-247411002D01*
X139946206Y-247342225D01*
X139578305Y-247342225D01*
X139562769Y-247358954D01*
X139522213Y-247383638D01*
X139465391Y-247410955D01*
X139464913Y-247411162D01*
X139401444Y-247438821D01*
X139316806Y-247476014D01*
X139222959Y-247517475D01*
X139147561Y-247550943D01*
X138943401Y-247641799D01*
X138906675Y-247569810D01*
X138841456Y-247481761D01*
X138745147Y-247412007D01*
X138618139Y-247360801D01*
X138557971Y-247345378D01*
X138531856Y-247337778D01*
X138516938Y-247323723D01*
X138510085Y-247294570D01*
X138508166Y-247241680D01*
X138508078Y-247207677D01*
X138508078Y-247081023D01*
X138308507Y-247081023D01*
X138308507Y-247333379D01*
X138240471Y-247344531D01*
X138157821Y-247363685D01*
X138069491Y-247393047D01*
X137988621Y-247427557D01*
X137928351Y-247462156D01*
X137921550Y-247467320D01*
X137871552Y-247507380D01*
X138090314Y-247723486D01*
X138176239Y-247681740D01*
X138268922Y-247647205D01*
X138361460Y-247631034D01*
X138447013Y-247632511D01*
X138518740Y-247650919D01*
X138569801Y-247685542D01*
X138591375Y-247725227D01*
X138595015Y-247766087D01*
X138587485Y-247788996D01*
X138567715Y-247799802D01*
X138518860Y-247823290D01*
X138445032Y-247857633D01*
X138350339Y-247900999D01*
X138238889Y-247951561D01*
X138114793Y-248007487D01*
X137982160Y-248066950D01*
X137845098Y-248128119D01*
X137707717Y-248189165D01*
X137574126Y-248248259D01*
X137448434Y-248303570D01*
X137334751Y-248353271D01*
X137237185Y-248395531D01*
X137159846Y-248428521D01*
X137106844Y-248450411D01*
X137082286Y-248459372D01*
X137081443Y-248459492D01*
X137063193Y-248444206D01*
X137050106Y-248409987D01*
X137027924Y-248247758D01*
X137025408Y-248069116D01*
X137041761Y-247887611D01*
X137076182Y-247716793D01*
X137094632Y-247655092D01*
X137169594Y-247482225D01*
X137275363Y-247314813D01*
X137406462Y-247158651D01*
X137557413Y-247019535D01*
X137722740Y-246903261D01*
X137882187Y-246821716D01*
X138084143Y-246755995D01*
X138295392Y-246722923D01*
X138510372Y-246722045D01*
X138723520Y-246752904D01*
X138929274Y-246815045D01*
X139122069Y-246908012D01*
X139151334Y-246925711D01*
X139206978Y-246964999D01*
X139272941Y-247018643D01*
X139343741Y-247081293D01*
X139413891Y-247147599D01*
X139477907Y-247212210D01*
X139530304Y-247269777D01*
X139565597Y-247314948D01*
X139578305Y-247342225D01*
X139946206Y-247342225D01*
X139884616Y-247229146D01*
X139762892Y-247060325D01*
X139616196Y-246899615D01*
X139449652Y-246755407D01*
X139270617Y-246632962D01*
X139086446Y-246537540D01*
X138970089Y-246493342D01*
X138739986Y-246436959D01*
X138502606Y-246412433D01*
X138263438Y-246419071D01*
G36*
X141904078Y-246420763D02*
X141671014Y-246459277D01*
X141447704Y-246528209D01*
X141254768Y-246618799D01*
X141047673Y-246754582D01*
X140864305Y-246915930D01*
X140706905Y-247099936D01*
X140577709Y-247303694D01*
X140478959Y-247524296D01*
X140427847Y-247692413D01*
X140402616Y-247832704D01*
X140388788Y-247994543D01*
X140386370Y-248165233D01*
X140395367Y-248332080D01*
X140415784Y-248482385D01*
X140427450Y-248536248D01*
X140498806Y-248759543D01*
X140598675Y-248963323D01*
X140729458Y-249151728D01*
X140878715Y-249314623D01*
X141074139Y-249481329D01*
X141283719Y-249614949D01*
X141509392Y-249716565D01*
X141705657Y-249776240D01*
X141806512Y-249794225D01*
X141930715Y-249806258D01*
X142065769Y-249812020D01*
X142199176Y-249811193D01*
X142318440Y-249803459D01*
X142387620Y-249793611D01*
X142619066Y-249734351D01*
X142830689Y-249648089D01*
X143027144Y-249532272D01*
X143213082Y-249384344D01*
X143317979Y-249282787D01*
X143476221Y-249098529D01*
X143600805Y-248905945D01*
X143694132Y-248700764D01*
X143750666Y-248513312D01*
X143769852Y-248403750D01*
X143782252Y-248270904D01*
X143787689Y-248126698D01*
X143787606Y-248119630D01*
X143479102Y-248119630D01*
X143472150Y-248275678D01*
X143451063Y-248416452D01*
X143445176Y-248441436D01*
X143375139Y-248645916D01*
X143272758Y-248838753D01*
X143141389Y-249014790D01*
X142984391Y-249168869D01*
X142957181Y-249191089D01*
X142845641Y-249274821D01*
X142744522Y-249338187D01*
X142640748Y-249388465D01*
X142524867Y-249431722D01*
X142320925Y-249481996D01*
X142106620Y-249501143D01*
X141890704Y-249488878D01*
X141728578Y-249457774D01*
X141539396Y-249391819D01*
X141356974Y-249294679D01*
X141187194Y-249171194D01*
X141035938Y-249026207D01*
X140909088Y-248864559D01*
X140821872Y-248711426D01*
X140768297Y-248586977D01*
X140731517Y-248471582D01*
X140708970Y-248353093D01*
X140698094Y-248219365D01*
X140696060Y-248115166D01*
X140699428Y-247970124D01*
X140712181Y-247848117D01*
X140737236Y-247736476D01*
X140777507Y-247622532D01*
X140835910Y-247493615D01*
X140841895Y-247481376D01*
X140882268Y-247403190D01*
X140921376Y-247338956D01*
X140966383Y-247279130D01*
X141024452Y-247214166D01*
X141100589Y-247136662D01*
X141194577Y-247046991D01*
X141275625Y-246978974D01*
X141352878Y-246925472D01*
X141420185Y-246887229D01*
X141628153Y-246798163D01*
X141844566Y-246743009D01*
X142065369Y-246722067D01*
X142286512Y-246735634D01*
X142503942Y-246784010D01*
X142561280Y-246803005D01*
X142744494Y-246886473D01*
X142917688Y-247000973D01*
X143076118Y-247141637D01*
X143215037Y-247303597D01*
X143329699Y-247481984D01*
X143415359Y-247671930D01*
X143419350Y-247683234D01*
X143452282Y-247811070D01*
X143472339Y-247960648D01*
X143479102Y-248119630D01*
X143787606Y-248119630D01*
X143785987Y-247983056D01*
X143776971Y-247851903D01*
X143761924Y-247751865D01*
X143695811Y-247525744D01*
X143597116Y-247310412D01*
X143468863Y-247109669D01*
X143314077Y-246927318D01*
X143135782Y-246767160D01*
X142937004Y-246632999D01*
X142824913Y-246573988D01*
X142607314Y-246489278D01*
X142377677Y-246435608D01*
X142141449Y-246412821D01*
X141904078Y-246420763D01*
X141904078Y-246420763D01*
G37*
X141904078Y-246420763D02*
X141671014Y-246459277D01*
X141447704Y-246528209D01*
X141254768Y-246618799D01*
X141047673Y-246754582D01*
X140864305Y-246915930D01*
X140706905Y-247099936D01*
X140577709Y-247303694D01*
X140478959Y-247524296D01*
X140427847Y-247692413D01*
X140402616Y-247832704D01*
X140388788Y-247994543D01*
X140386370Y-248165233D01*
X140395367Y-248332080D01*
X140415784Y-248482385D01*
X140427450Y-248536248D01*
X140498806Y-248759543D01*
X140598675Y-248963323D01*
X140729458Y-249151728D01*
X140878715Y-249314623D01*
X141074139Y-249481329D01*
X141283719Y-249614949D01*
X141509392Y-249716565D01*
X141705657Y-249776240D01*
X141806512Y-249794225D01*
X141930715Y-249806258D01*
X142065769Y-249812020D01*
X142199176Y-249811193D01*
X142318440Y-249803459D01*
X142387620Y-249793611D01*
X142619066Y-249734351D01*
X142830689Y-249648089D01*
X143027144Y-249532272D01*
X143213082Y-249384344D01*
X143317979Y-249282787D01*
X143476221Y-249098529D01*
X143600805Y-248905945D01*
X143694132Y-248700764D01*
X143750666Y-248513312D01*
X143769852Y-248403750D01*
X143782252Y-248270904D01*
X143787689Y-248126698D01*
X143787606Y-248119630D01*
X143479102Y-248119630D01*
X143472150Y-248275678D01*
X143451063Y-248416452D01*
X143445176Y-248441436D01*
X143375139Y-248645916D01*
X143272758Y-248838753D01*
X143141389Y-249014790D01*
X142984391Y-249168869D01*
X142957181Y-249191089D01*
X142845641Y-249274821D01*
X142744522Y-249338187D01*
X142640748Y-249388465D01*
X142524867Y-249431722D01*
X142320925Y-249481996D01*
X142106620Y-249501143D01*
X141890704Y-249488878D01*
X141728578Y-249457774D01*
X141539396Y-249391819D01*
X141356974Y-249294679D01*
X141187194Y-249171194D01*
X141035938Y-249026207D01*
X140909088Y-248864559D01*
X140821872Y-248711426D01*
X140768297Y-248586977D01*
X140731517Y-248471582D01*
X140708970Y-248353093D01*
X140698094Y-248219365D01*
X140696060Y-248115166D01*
X140699428Y-247970124D01*
X140712181Y-247848117D01*
X140737236Y-247736476D01*
X140777507Y-247622532D01*
X140835910Y-247493615D01*
X140841895Y-247481376D01*
X140882268Y-247403190D01*
X140921376Y-247338956D01*
X140966383Y-247279130D01*
X141024452Y-247214166D01*
X141100589Y-247136662D01*
X141194577Y-247046991D01*
X141275625Y-246978974D01*
X141352878Y-246925472D01*
X141420185Y-246887229D01*
X141628153Y-246798163D01*
X141844566Y-246743009D01*
X142065369Y-246722067D01*
X142286512Y-246735634D01*
X142503942Y-246784010D01*
X142561280Y-246803005D01*
X142744494Y-246886473D01*
X142917688Y-247000973D01*
X143076118Y-247141637D01*
X143215037Y-247303597D01*
X143329699Y-247481984D01*
X143415359Y-247671930D01*
X143419350Y-247683234D01*
X143452282Y-247811070D01*
X143472339Y-247960648D01*
X143479102Y-248119630D01*
X143787606Y-248119630D01*
X143785987Y-247983056D01*
X143776971Y-247851903D01*
X143761924Y-247751865D01*
X143695811Y-247525744D01*
X143597116Y-247310412D01*
X143468863Y-247109669D01*
X143314077Y-246927318D01*
X143135782Y-246767160D01*
X142937004Y-246632999D01*
X142824913Y-246573988D01*
X142607314Y-246489278D01*
X142377677Y-246435608D01*
X142141449Y-246412821D01*
X141904078Y-246420763D01*
G36*
X145477483Y-246431335D02*
X145279210Y-246472485D01*
X145239988Y-246484246D01*
X145016335Y-246573511D01*
X144807586Y-246692767D01*
X144617469Y-246838699D01*
X144449711Y-247007992D01*
X144308039Y-247197331D01*
X144196180Y-247403399D01*
X144189366Y-247418817D01*
X144112045Y-247638781D01*
X144065474Y-247868698D01*
X144049236Y-248103379D01*
X144062917Y-248337634D01*
X144106103Y-248566274D01*
X144178377Y-248784109D01*
X144279325Y-248985950D01*
X144319777Y-249049523D01*
X144467453Y-249237522D01*
X144638973Y-249402071D01*
X144830420Y-249541539D01*
X145037876Y-249654296D01*
X145257427Y-249738710D01*
X145485154Y-249793151D01*
X145717142Y-249815986D01*
X145949474Y-249805586D01*
X146082721Y-249783707D01*
X146329118Y-249714337D01*
X146556685Y-249613994D01*
X146764788Y-249483094D01*
X146952788Y-249322053D01*
X147120048Y-249131287D01*
X147155718Y-249082970D01*
X147277873Y-248881530D01*
X147369379Y-248664471D01*
X147429711Y-248436406D01*
X147458344Y-248201946D01*
X147456576Y-248085616D01*
X147150507Y-248085616D01*
X147138673Y-248293561D01*
X147094027Y-248498822D01*
X147016351Y-248698152D01*
X146905431Y-248888303D01*
X146847860Y-248965933D01*
X146701238Y-249122632D01*
X146529570Y-249257465D01*
X146339605Y-249366051D01*
X146138095Y-249444004D01*
X146091792Y-249456890D01*
X145947165Y-249482995D01*
X145784931Y-249493724D01*
X145619882Y-249489087D01*
X145466811Y-249469096D01*
X145410516Y-249456352D01*
X145257384Y-249404481D01*
X145097994Y-249329859D01*
X144946420Y-249239788D01*
X144836742Y-249158620D01*
X144683119Y-249008287D01*
X144557759Y-248837721D01*
X144461660Y-248650634D01*
X144395825Y-248450739D01*
X144361252Y-248241749D01*
X144358943Y-248027376D01*
X144389896Y-247811334D01*
X144432681Y-247658771D01*
X144505908Y-247484847D01*
X144604174Y-247324452D01*
X144732202Y-247170310D01*
X144784086Y-247117309D01*
X144952331Y-246974020D01*
X145133290Y-246863828D01*
X145329472Y-246785619D01*
X145543384Y-246738280D01*
X145668382Y-246725077D01*
X145891875Y-246727141D01*
X146107088Y-246763967D01*
X146311389Y-246834573D01*
X146502143Y-246937974D01*
X146676717Y-247073189D01*
X146725041Y-247119311D01*
X146874032Y-247291957D01*
X146991290Y-247478158D01*
X147076599Y-247674667D01*
X147129744Y-247878235D01*
X147150507Y-248085616D01*
X147456576Y-248085616D01*
X147454752Y-247965700D01*
X147418411Y-247732282D01*
X147348794Y-247506302D01*
X147338287Y-247480166D01*
X147228651Y-247259611D01*
X147090787Y-247057982D01*
X146927848Y-246878296D01*
X146742989Y-246723572D01*
X146539362Y-246596827D01*
X146320122Y-246501078D01*
X146312240Y-246498337D01*
X146118551Y-246447125D01*
X145907778Y-246418794D01*
X145690548Y-246413484D01*
X145477483Y-246431335D01*
X145477483Y-246431335D01*
G37*
X145477483Y-246431335D02*
X145279210Y-246472485D01*
X145239988Y-246484246D01*
X145016335Y-246573511D01*
X144807586Y-246692767D01*
X144617469Y-246838699D01*
X144449711Y-247007992D01*
X144308039Y-247197331D01*
X144196180Y-247403399D01*
X144189366Y-247418817D01*
X144112045Y-247638781D01*
X144065474Y-247868698D01*
X144049236Y-248103379D01*
X144062917Y-248337634D01*
X144106103Y-248566274D01*
X144178377Y-248784109D01*
X144279325Y-248985950D01*
X144319777Y-249049523D01*
X144467453Y-249237522D01*
X144638973Y-249402071D01*
X144830420Y-249541539D01*
X145037876Y-249654296D01*
X145257427Y-249738710D01*
X145485154Y-249793151D01*
X145717142Y-249815986D01*
X145949474Y-249805586D01*
X146082721Y-249783707D01*
X146329118Y-249714337D01*
X146556685Y-249613994D01*
X146764788Y-249483094D01*
X146952788Y-249322053D01*
X147120048Y-249131287D01*
X147155718Y-249082970D01*
X147277873Y-248881530D01*
X147369379Y-248664471D01*
X147429711Y-248436406D01*
X147458344Y-248201946D01*
X147456576Y-248085616D01*
X147150507Y-248085616D01*
X147138673Y-248293561D01*
X147094027Y-248498822D01*
X147016351Y-248698152D01*
X146905431Y-248888303D01*
X146847860Y-248965933D01*
X146701238Y-249122632D01*
X146529570Y-249257465D01*
X146339605Y-249366051D01*
X146138095Y-249444004D01*
X146091792Y-249456890D01*
X145947165Y-249482995D01*
X145784931Y-249493724D01*
X145619882Y-249489087D01*
X145466811Y-249469096D01*
X145410516Y-249456352D01*
X145257384Y-249404481D01*
X145097994Y-249329859D01*
X144946420Y-249239788D01*
X144836742Y-249158620D01*
X144683119Y-249008287D01*
X144557759Y-248837721D01*
X144461660Y-248650634D01*
X144395825Y-248450739D01*
X144361252Y-248241749D01*
X144358943Y-248027376D01*
X144389896Y-247811334D01*
X144432681Y-247658771D01*
X144505908Y-247484847D01*
X144604174Y-247324452D01*
X144732202Y-247170310D01*
X144784086Y-247117309D01*
X144952331Y-246974020D01*
X145133290Y-246863828D01*
X145329472Y-246785619D01*
X145543384Y-246738280D01*
X145668382Y-246725077D01*
X145891875Y-246727141D01*
X146107088Y-246763967D01*
X146311389Y-246834573D01*
X146502143Y-246937974D01*
X146676717Y-247073189D01*
X146725041Y-247119311D01*
X146874032Y-247291957D01*
X146991290Y-247478158D01*
X147076599Y-247674667D01*
X147129744Y-247878235D01*
X147150507Y-248085616D01*
X147456576Y-248085616D01*
X147454752Y-247965700D01*
X147418411Y-247732282D01*
X147348794Y-247506302D01*
X147338287Y-247480166D01*
X147228651Y-247259611D01*
X147090787Y-247057982D01*
X146927848Y-246878296D01*
X146742989Y-246723572D01*
X146539362Y-246596827D01*
X146320122Y-246501078D01*
X146312240Y-246498337D01*
X146118551Y-246447125D01*
X145907778Y-246418794D01*
X145690548Y-246413484D01*
X145477483Y-246431335D01*
D15*
G04 #@! TO.C,J1*
X110240000Y-125936000D02*
X93620000Y-125936000D01*
X110240000Y-120236000D02*
X93620000Y-120236000D01*
X110240000Y-117436000D02*
X107670000Y-117436000D01*
X105690000Y-117436000D02*
X102670000Y-117436000D01*
X100690000Y-117436000D02*
X97670000Y-117436000D01*
X95690000Y-117436000D02*
X93620000Y-117436000D01*
X110240000Y-112876000D02*
X93620000Y-112876000D01*
X110240000Y-126996000D02*
X93620000Y-126996000D01*
X110240000Y-112876000D02*
X110240000Y-126996000D01*
X93620000Y-112876000D02*
X93620000Y-126996000D01*
X108180000Y-122336000D02*
X107670000Y-122336000D01*
X105690000Y-122336000D02*
X104180000Y-122336000D01*
X108180000Y-125636000D02*
X104180000Y-125636000D01*
X108180000Y-122336000D02*
X108180000Y-125636000D01*
X104180000Y-122336000D02*
X104180000Y-125636000D01*
X108680000Y-112936000D02*
X103680000Y-112936000D01*
X108680000Y-126936000D02*
X103680000Y-126936000D01*
X108680000Y-112936000D02*
X108680000Y-126936000D01*
X103680000Y-112936000D02*
X103680000Y-126936000D01*
X108180000Y-120236000D02*
X104180000Y-120236000D01*
X108180000Y-121235000D02*
X107670000Y-121235000D01*
X105690000Y-121235000D02*
X104180000Y-121235000D01*
X108180000Y-120236000D02*
X108180000Y-121235000D01*
X104180000Y-120236000D02*
X104180000Y-121235000D01*
X106680000Y-113286000D02*
X105680000Y-113286000D01*
X106680000Y-115786000D02*
X105680000Y-115786000D01*
X106680000Y-113286000D02*
X106680000Y-115786000D01*
X105680000Y-113286000D02*
X105680000Y-115786000D01*
X103180000Y-122336000D02*
X102670000Y-122336000D01*
X100690000Y-122336000D02*
X99180000Y-122336000D01*
X103180000Y-125636000D02*
X99180000Y-125636000D01*
X103180000Y-122336000D02*
X103180000Y-125636000D01*
X99180000Y-122336000D02*
X99180000Y-125636000D01*
X103680000Y-112936000D02*
X98680000Y-112936000D01*
X103680000Y-126936000D02*
X98680000Y-126936000D01*
X103680000Y-112936000D02*
X103680000Y-126936000D01*
X98680000Y-112936000D02*
X98680000Y-126936000D01*
X103180000Y-120236000D02*
X99180000Y-120236000D01*
X103180000Y-121235000D02*
X102670000Y-121235000D01*
X100690000Y-121235000D02*
X99180000Y-121235000D01*
X103180000Y-120236000D02*
X103180000Y-121235000D01*
X99180000Y-120236000D02*
X99180000Y-121235000D01*
X101680000Y-113286000D02*
X100680000Y-113286000D01*
X101680000Y-115786000D02*
X100680000Y-115786000D01*
X101680000Y-113286000D02*
X101680000Y-115786000D01*
X100680000Y-113286000D02*
X100680000Y-115786000D01*
X98180000Y-122336000D02*
X97670000Y-122336000D01*
X95690000Y-122336000D02*
X94180000Y-122336000D01*
X98180000Y-125636000D02*
X94180000Y-125636000D01*
X98180000Y-122336000D02*
X98180000Y-125636000D01*
X94180000Y-122336000D02*
X94180000Y-125636000D01*
X98680000Y-112936000D02*
X93680000Y-112936000D01*
X98680000Y-126936000D02*
X93680000Y-126936000D01*
X98680000Y-112936000D02*
X98680000Y-126936000D01*
X93680000Y-112936000D02*
X93680000Y-126936000D01*
X98180000Y-120236000D02*
X94180000Y-120236000D01*
X98180000Y-121235000D02*
X97670000Y-121235000D01*
X95690000Y-121235000D02*
X94180000Y-121235000D01*
X98180000Y-120236000D02*
X98180000Y-121235000D01*
X94180000Y-120236000D02*
X94180000Y-121235000D01*
X96680000Y-113286000D02*
X95680000Y-113286000D01*
X96680000Y-115786000D02*
X95680000Y-115786000D01*
X96680000Y-113286000D02*
X96680000Y-115786000D01*
X95680000Y-113286000D02*
X95680000Y-115786000D01*
X110480000Y-125996000D02*
X110480000Y-127236000D01*
X110480000Y-127236000D02*
X109480000Y-127236000D01*
G04 #@! TO.C,J2*
X100320000Y-151366000D02*
X99320000Y-151366000D01*
X100320000Y-150126000D02*
X100320000Y-151366000D01*
X85520000Y-137416000D02*
X85520000Y-139916000D01*
X86520000Y-137416000D02*
X86520000Y-139916000D01*
X86520000Y-139916000D02*
X85520000Y-139916000D01*
X86520000Y-137416000D02*
X85520000Y-137416000D01*
X84020000Y-144366000D02*
X84020000Y-145365000D01*
X88020000Y-144366000D02*
X88020000Y-145365000D01*
X85530000Y-145365000D02*
X84020000Y-145365000D01*
X88020000Y-145365000D02*
X87510000Y-145365000D01*
X88020000Y-144366000D02*
X84020000Y-144366000D01*
X83520000Y-137066000D02*
X83520000Y-151066000D01*
X88520000Y-137066000D02*
X88520000Y-151066000D01*
X88520000Y-151066000D02*
X83520000Y-151066000D01*
X88520000Y-137066000D02*
X83520000Y-137066000D01*
X84020000Y-146466000D02*
X84020000Y-149766000D01*
X88020000Y-146466000D02*
X88020000Y-149766000D01*
X88020000Y-149766000D02*
X84020000Y-149766000D01*
X85530000Y-146466000D02*
X84020000Y-146466000D01*
X88020000Y-146466000D02*
X87510000Y-146466000D01*
X90520000Y-137416000D02*
X90520000Y-139916000D01*
X91520000Y-137416000D02*
X91520000Y-139916000D01*
X91520000Y-139916000D02*
X90520000Y-139916000D01*
X91520000Y-137416000D02*
X90520000Y-137416000D01*
X89020000Y-144366000D02*
X89020000Y-145365000D01*
X93020000Y-144366000D02*
X93020000Y-145365000D01*
X90530000Y-145365000D02*
X89020000Y-145365000D01*
X93020000Y-145365000D02*
X92510000Y-145365000D01*
X93020000Y-144366000D02*
X89020000Y-144366000D01*
X88520000Y-137066000D02*
X88520000Y-151066000D01*
X93520000Y-137066000D02*
X93520000Y-151066000D01*
X93520000Y-151066000D02*
X88520000Y-151066000D01*
X93520000Y-137066000D02*
X88520000Y-137066000D01*
X89020000Y-146466000D02*
X89020000Y-149766000D01*
X93020000Y-146466000D02*
X93020000Y-149766000D01*
X93020000Y-149766000D02*
X89020000Y-149766000D01*
X90530000Y-146466000D02*
X89020000Y-146466000D01*
X93020000Y-146466000D02*
X92510000Y-146466000D01*
X95520000Y-137416000D02*
X95520000Y-139916000D01*
X96520000Y-137416000D02*
X96520000Y-139916000D01*
X96520000Y-139916000D02*
X95520000Y-139916000D01*
X96520000Y-137416000D02*
X95520000Y-137416000D01*
X94020000Y-144366000D02*
X94020000Y-145365000D01*
X98020000Y-144366000D02*
X98020000Y-145365000D01*
X95530000Y-145365000D02*
X94020000Y-145365000D01*
X98020000Y-145365000D02*
X97510000Y-145365000D01*
X98020000Y-144366000D02*
X94020000Y-144366000D01*
X93520000Y-137066000D02*
X93520000Y-151066000D01*
X98520000Y-137066000D02*
X98520000Y-151066000D01*
X98520000Y-151066000D02*
X93520000Y-151066000D01*
X98520000Y-137066000D02*
X93520000Y-137066000D01*
X94020000Y-146466000D02*
X94020000Y-149766000D01*
X98020000Y-146466000D02*
X98020000Y-149766000D01*
X98020000Y-149766000D02*
X94020000Y-149766000D01*
X95530000Y-146466000D02*
X94020000Y-146466000D01*
X98020000Y-146466000D02*
X97510000Y-146466000D01*
X83460000Y-137006000D02*
X83460000Y-151126000D01*
X100080000Y-137006000D02*
X100080000Y-151126000D01*
X100080000Y-151126000D02*
X83460000Y-151126000D01*
X100080000Y-137006000D02*
X83460000Y-137006000D01*
X85530000Y-141566000D02*
X83460000Y-141566000D01*
X90530000Y-141566000D02*
X87510000Y-141566000D01*
X95530000Y-141566000D02*
X92510000Y-141566000D01*
X100080000Y-141566000D02*
X97510000Y-141566000D01*
X100080000Y-144366000D02*
X83460000Y-144366000D01*
X100080000Y-150066000D02*
X83460000Y-150066000D01*
D16*
G04 #@! TO.C,J5*
X148086633Y-118435955D02*
X148297942Y-118889109D01*
X148086633Y-118435955D02*
X148539787Y-118224646D01*
X155427726Y-115012747D02*
X154974572Y-115224057D01*
X155427726Y-115012747D02*
X155639035Y-115465901D01*
X159146767Y-122988256D02*
X158935458Y-122535102D01*
X159146767Y-122988256D02*
X158693613Y-123199565D01*
X151805674Y-126411464D02*
X151594364Y-125958310D01*
X151805674Y-126411464D02*
X152258828Y-126200155D01*
G04 #@! TO.C,J6*
X121234957Y-160880795D02*
X121727361Y-160967619D01*
X121234957Y-160880795D02*
X121321781Y-160388391D01*
X122641507Y-152903852D02*
X122554683Y-153396256D01*
X122641507Y-152903852D02*
X123133911Y-152990676D01*
X131307815Y-154431956D02*
X130815411Y-154345132D01*
X131307815Y-154431956D02*
X131220991Y-154924360D01*
X129901265Y-162408898D02*
X129408861Y-162322074D01*
X129901265Y-162408898D02*
X129988089Y-161916495D01*
G04 #@! TO.C,J8*
X207188649Y-205238810D02*
X206901860Y-204829234D01*
X207188649Y-205238810D02*
X206779073Y-205525599D01*
X200553517Y-209884780D02*
X200963093Y-209597991D01*
X200553517Y-209884780D02*
X200266729Y-209475203D01*
X195506044Y-202676242D02*
X195792833Y-203085818D01*
X195506044Y-202676242D02*
X195915620Y-202389453D01*
X202141176Y-198030272D02*
X202427964Y-198439848D01*
X202141176Y-198030272D02*
X201731600Y-198317061D01*
G04 #@! TO.C,J9*
X216719453Y-174289986D02*
X216564945Y-174765514D01*
X216719453Y-174289986D02*
X217194983Y-174444495D01*
X214216416Y-181993544D02*
X214370924Y-181518016D01*
X214216416Y-181993544D02*
X214691944Y-182148052D01*
X222585713Y-184712893D02*
X222110185Y-184558385D01*
X222585713Y-184712893D02*
X222740221Y-184237365D01*
X225088751Y-177009336D02*
X224934242Y-177484864D01*
X225088751Y-177009336D02*
X224613222Y-176854827D01*
D15*
G04 #@! TO.C,J12*
X100080000Y-188166000D02*
X83460000Y-188166000D01*
X100080000Y-182466000D02*
X83460000Y-182466000D01*
X100080000Y-179666000D02*
X97510000Y-179666000D01*
X95530000Y-179666000D02*
X92510000Y-179666000D01*
X90530000Y-179666000D02*
X87510000Y-179666000D01*
X85530000Y-179666000D02*
X83460000Y-179666000D01*
X100080000Y-175106000D02*
X83460000Y-175106000D01*
X100080000Y-189226000D02*
X83460000Y-189226000D01*
X100080000Y-175106000D02*
X100080000Y-189226000D01*
X83460000Y-175106000D02*
X83460000Y-189226000D01*
X98020000Y-184566000D02*
X97510000Y-184566000D01*
X95530000Y-184566000D02*
X94020000Y-184566000D01*
X98020000Y-187866000D02*
X94020000Y-187866000D01*
X98020000Y-184566000D02*
X98020000Y-187866000D01*
X94020000Y-184566000D02*
X94020000Y-187866000D01*
X98520000Y-175166000D02*
X93520000Y-175166000D01*
X98520000Y-189166000D02*
X93520000Y-189166000D01*
X98520000Y-175166000D02*
X98520000Y-189166000D01*
X93520000Y-175166000D02*
X93520000Y-189166000D01*
X98020000Y-182466000D02*
X94020000Y-182466000D01*
X98020000Y-183465000D02*
X97510000Y-183465000D01*
X95530000Y-183465000D02*
X94020000Y-183465000D01*
X98020000Y-182466000D02*
X98020000Y-183465000D01*
X94020000Y-182466000D02*
X94020000Y-183465000D01*
X96520000Y-175516000D02*
X95520000Y-175516000D01*
X96520000Y-178016000D02*
X95520000Y-178016000D01*
X96520000Y-175516000D02*
X96520000Y-178016000D01*
X95520000Y-175516000D02*
X95520000Y-178016000D01*
X93020000Y-184566000D02*
X92510000Y-184566000D01*
X90530000Y-184566000D02*
X89020000Y-184566000D01*
X93020000Y-187866000D02*
X89020000Y-187866000D01*
X93020000Y-184566000D02*
X93020000Y-187866000D01*
X89020000Y-184566000D02*
X89020000Y-187866000D01*
X93520000Y-175166000D02*
X88520000Y-175166000D01*
X93520000Y-189166000D02*
X88520000Y-189166000D01*
X93520000Y-175166000D02*
X93520000Y-189166000D01*
X88520000Y-175166000D02*
X88520000Y-189166000D01*
X93020000Y-182466000D02*
X89020000Y-182466000D01*
X93020000Y-183465000D02*
X92510000Y-183465000D01*
X90530000Y-183465000D02*
X89020000Y-183465000D01*
X93020000Y-182466000D02*
X93020000Y-183465000D01*
X89020000Y-182466000D02*
X89020000Y-183465000D01*
X91520000Y-175516000D02*
X90520000Y-175516000D01*
X91520000Y-178016000D02*
X90520000Y-178016000D01*
X91520000Y-175516000D02*
X91520000Y-178016000D01*
X90520000Y-175516000D02*
X90520000Y-178016000D01*
X88020000Y-184566000D02*
X87510000Y-184566000D01*
X85530000Y-184566000D02*
X84020000Y-184566000D01*
X88020000Y-187866000D02*
X84020000Y-187866000D01*
X88020000Y-184566000D02*
X88020000Y-187866000D01*
X84020000Y-184566000D02*
X84020000Y-187866000D01*
X88520000Y-175166000D02*
X83520000Y-175166000D01*
X88520000Y-189166000D02*
X83520000Y-189166000D01*
X88520000Y-175166000D02*
X88520000Y-189166000D01*
X83520000Y-175166000D02*
X83520000Y-189166000D01*
X88020000Y-182466000D02*
X84020000Y-182466000D01*
X88020000Y-183465000D02*
X87510000Y-183465000D01*
X85530000Y-183465000D02*
X84020000Y-183465000D01*
X88020000Y-182466000D02*
X88020000Y-183465000D01*
X84020000Y-182466000D02*
X84020000Y-183465000D01*
X86520000Y-175516000D02*
X85520000Y-175516000D01*
X86520000Y-178016000D02*
X85520000Y-178016000D01*
X86520000Y-175516000D02*
X86520000Y-178016000D01*
X85520000Y-175516000D02*
X85520000Y-178016000D01*
X100320000Y-188226000D02*
X100320000Y-189466000D01*
X100320000Y-189466000D02*
X99320000Y-189466000D01*
G04 #@! TO.C,Cp1*
X162826435Y-248596665D02*
X162576435Y-249496665D01*
X162326435Y-248596665D01*
X161790720Y-249453808D02*
X161862149Y-249496665D01*
X162005006Y-249496665D01*
X162076435Y-249453808D01*
X162112149Y-249368094D01*
X162112149Y-249025237D01*
X162076435Y-248939523D01*
X162005006Y-248896665D01*
X161862149Y-248896665D01*
X161790720Y-248939523D01*
X161755006Y-249025237D01*
X161755006Y-249110951D01*
X162112149Y-249196665D01*
X161433577Y-249496665D02*
X161433577Y-248896665D01*
X161433577Y-249068094D02*
X161397863Y-248982380D01*
X161362149Y-248939523D01*
X161290720Y-248896665D01*
X161219292Y-248896665D01*
X161005006Y-249453808D02*
X160933577Y-249496665D01*
X160790720Y-249496665D01*
X160719292Y-249453808D01*
X160683577Y-249368094D01*
X160683577Y-249325237D01*
X160719292Y-249239523D01*
X160790720Y-249196665D01*
X160897863Y-249196665D01*
X160969292Y-249153808D01*
X161005006Y-249068094D01*
X161005006Y-249025237D01*
X160969292Y-248939523D01*
X160897863Y-248896665D01*
X160790720Y-248896665D01*
X160719292Y-248939523D01*
X160362149Y-249496665D02*
X160362149Y-248896665D01*
X160362149Y-248596665D02*
X160397863Y-248639523D01*
X160362149Y-248682380D01*
X160326435Y-248639523D01*
X160362149Y-248596665D01*
X160362149Y-248682380D01*
X159897863Y-249496665D02*
X159969292Y-249453808D01*
X160005006Y-249410951D01*
X160040720Y-249325237D01*
X160040720Y-249068094D01*
X160005006Y-248982380D01*
X159969292Y-248939523D01*
X159897863Y-248896665D01*
X159790720Y-248896665D01*
X159719292Y-248939523D01*
X159683577Y-248982380D01*
X159647863Y-249068094D01*
X159647863Y-249325237D01*
X159683577Y-249410951D01*
X159719292Y-249453808D01*
X159790720Y-249496665D01*
X159897863Y-249496665D01*
X159326435Y-248896665D02*
X159326435Y-249496665D01*
X159326435Y-248982380D02*
X159290720Y-248939523D01*
X159219292Y-248896665D01*
X159112149Y-248896665D01*
X159040720Y-248939523D01*
X159005006Y-249025237D01*
X159005006Y-249496665D01*
X158112149Y-248682380D02*
X158076435Y-248639523D01*
X158005006Y-248596665D01*
X157826435Y-248596665D01*
X157755006Y-248639523D01*
X157719292Y-248682380D01*
X157683577Y-248768094D01*
X157683577Y-248853808D01*
X157719292Y-248982380D01*
X158147863Y-249496665D01*
X157683577Y-249496665D01*
X157362149Y-249410951D02*
X157326435Y-249453808D01*
X157362149Y-249496665D01*
X157397863Y-249453808D01*
X157362149Y-249410951D01*
X157362149Y-249496665D01*
X156862149Y-248596665D02*
X156790720Y-248596665D01*
X156719292Y-248639523D01*
X156683577Y-248682380D01*
X156647863Y-248768094D01*
X156612149Y-248939523D01*
X156612149Y-249153808D01*
X156647863Y-249325237D01*
X156683577Y-249410951D01*
X156719292Y-249453808D01*
X156790720Y-249496665D01*
X156862149Y-249496665D01*
X156933577Y-249453808D01*
X156969292Y-249410951D01*
X157005006Y-249325237D01*
X157040720Y-249153808D01*
X157040720Y-248939523D01*
X157005006Y-248768094D01*
X156969292Y-248682380D01*
X156933577Y-248639523D01*
X156862149Y-248596665D01*
X156290720Y-249410951D02*
X156255006Y-249453808D01*
X156290720Y-249496665D01*
X156326435Y-249453808D01*
X156290720Y-249410951D01*
X156290720Y-249496665D01*
X155540720Y-249496665D02*
X155969292Y-249496665D01*
X155755006Y-249496665D02*
X155755006Y-248596665D01*
X155826435Y-248725237D01*
X155897863Y-248810951D01*
X155969292Y-248853808D01*
X154647863Y-249153808D02*
X154076435Y-249153808D01*
X153005006Y-248596665D02*
X152933577Y-248596665D01*
X152862149Y-248639523D01*
X152826435Y-248682380D01*
X152790720Y-248768094D01*
X152755006Y-248939523D01*
X152755006Y-249153808D01*
X152790720Y-249325237D01*
X152826435Y-249410951D01*
X152862149Y-249453808D01*
X152933577Y-249496665D01*
X153005006Y-249496665D01*
X153076435Y-249453808D01*
X153112149Y-249410951D01*
X153147863Y-249325237D01*
X153183577Y-249153808D01*
X153183577Y-248939523D01*
X153147863Y-248768094D01*
X153112149Y-248682380D01*
X153076435Y-248639523D01*
X153005006Y-248596665D01*
X152040720Y-249496665D02*
X152469292Y-249496665D01*
X152255006Y-249496665D02*
X152255006Y-248596665D01*
X152326435Y-248725237D01*
X152397863Y-248810951D01*
X152469292Y-248853808D01*
X151183577Y-248553808D02*
X151826435Y-249710951D01*
X150969292Y-248682380D02*
X150933577Y-248639523D01*
X150862149Y-248596665D01*
X150683577Y-248596665D01*
X150612149Y-248639523D01*
X150576435Y-248682380D01*
X150540720Y-248768094D01*
X150540720Y-248853808D01*
X150576435Y-248982380D01*
X151005006Y-249496665D01*
X150540720Y-249496665D01*
X150076435Y-248596665D02*
X150005006Y-248596665D01*
X149933577Y-248639523D01*
X149897863Y-248682380D01*
X149862149Y-248768094D01*
X149826435Y-248939523D01*
X149826435Y-249153808D01*
X149862149Y-249325237D01*
X149897863Y-249410951D01*
X149933577Y-249453808D01*
X150005006Y-249496665D01*
X150076435Y-249496665D01*
X150147863Y-249453808D01*
X150183577Y-249410951D01*
X150219292Y-249325237D01*
X150255006Y-249153808D01*
X150255006Y-248939523D01*
X150219292Y-248768094D01*
X150183577Y-248682380D01*
X150147863Y-248639523D01*
X150076435Y-248596665D01*
X149540720Y-248682380D02*
X149505006Y-248639523D01*
X149433577Y-248596665D01*
X149255006Y-248596665D01*
X149183577Y-248639523D01*
X149147863Y-248682380D01*
X149112149Y-248768094D01*
X149112149Y-248853808D01*
X149147863Y-248982380D01*
X149576435Y-249496665D01*
X149112149Y-249496665D01*
X148647863Y-248596665D02*
X148576435Y-248596665D01*
X148505006Y-248639523D01*
X148469292Y-248682380D01*
X148433577Y-248768094D01*
X148397863Y-248939523D01*
X148397863Y-249153808D01*
X148433577Y-249325237D01*
X148469292Y-249410951D01*
X148505006Y-249453808D01*
X148576435Y-249496665D01*
X148647863Y-249496665D01*
X148719292Y-249453808D01*
X148755006Y-249410951D01*
X148790720Y-249325237D01*
X148826435Y-249153808D01*
X148826435Y-248939523D01*
X148790720Y-248768094D01*
X148755006Y-248682380D01*
X148719292Y-248639523D01*
X148647863Y-248596665D01*
D12*
X158421435Y-250715951D02*
X158492863Y-250673094D01*
X158635720Y-250673094D01*
X158707149Y-250715951D01*
X158778577Y-250801665D01*
X158814292Y-250887380D01*
X158814292Y-251058808D01*
X158778577Y-251144523D01*
X158707149Y-251230237D01*
X158635720Y-251273094D01*
X158492863Y-251273094D01*
X158421435Y-251230237D01*
X158564292Y-250373094D02*
X158742863Y-250415951D01*
X158921435Y-250544523D01*
X159028577Y-250758808D01*
X159064292Y-250973094D01*
X159028577Y-251187380D01*
X158921435Y-251401665D01*
X158742863Y-251530237D01*
X158564292Y-251573094D01*
X158385720Y-251530237D01*
X158207149Y-251401665D01*
X158100006Y-251187380D01*
X158064292Y-250973094D01*
X158100006Y-250758808D01*
X158207149Y-250544523D01*
X158385720Y-250415951D01*
X158564292Y-250373094D01*
X157207149Y-251358808D02*
X157100006Y-251401665D01*
X156921435Y-251401665D01*
X156850006Y-251358808D01*
X156814292Y-251315951D01*
X156778577Y-251230237D01*
X156778577Y-251144523D01*
X156814292Y-251058808D01*
X156850006Y-251015951D01*
X156921435Y-250973094D01*
X157064292Y-250930237D01*
X157135720Y-250887380D01*
X157171435Y-250844523D01*
X157207149Y-250758808D01*
X157207149Y-250673094D01*
X157171435Y-250587380D01*
X157135720Y-250544523D01*
X157064292Y-250501665D01*
X156885720Y-250501665D01*
X156778577Y-250544523D01*
X156457149Y-251401665D02*
X156457149Y-250801665D01*
X156457149Y-250501665D02*
X156492863Y-250544523D01*
X156457149Y-250587380D01*
X156421435Y-250544523D01*
X156457149Y-250501665D01*
X156457149Y-250587380D01*
X155992863Y-251401665D02*
X156064292Y-251358808D01*
X156100006Y-251273094D01*
X156100006Y-250501665D01*
X155778577Y-250801665D02*
X155600006Y-251401665D01*
X155421435Y-250801665D01*
X155135720Y-251401665D02*
X155135720Y-250801665D01*
X155135720Y-250501665D02*
X155171435Y-250544523D01*
X155135720Y-250587380D01*
X155100006Y-250544523D01*
X155135720Y-250501665D01*
X155135720Y-250587380D01*
X154671435Y-251401665D02*
X154742863Y-251358808D01*
X154778577Y-251315951D01*
X154814292Y-251230237D01*
X154814292Y-250973094D01*
X154778577Y-250887380D01*
X154742863Y-250844523D01*
X154671435Y-250801665D01*
X154564292Y-250801665D01*
X154492863Y-250844523D01*
X154457149Y-250887380D01*
X154421435Y-250973094D01*
X154421435Y-251230237D01*
X154457149Y-251315951D01*
X154492863Y-251358808D01*
X154564292Y-251401665D01*
X154671435Y-251401665D01*
X153564292Y-251358808D02*
X153457149Y-251401665D01*
X153278577Y-251401665D01*
X153207149Y-251358808D01*
X153171435Y-251315951D01*
X153135720Y-251230237D01*
X153135720Y-251144523D01*
X153171435Y-251058808D01*
X153207149Y-251015951D01*
X153278577Y-250973094D01*
X153421435Y-250930237D01*
X153492863Y-250887380D01*
X153528577Y-250844523D01*
X153564292Y-250758808D01*
X153564292Y-250673094D01*
X153528577Y-250587380D01*
X153492863Y-250544523D01*
X153421435Y-250501665D01*
X153242863Y-250501665D01*
X153135720Y-250544523D01*
X152921435Y-250801665D02*
X152635720Y-250801665D01*
X152814292Y-250501665D02*
X152814292Y-251273094D01*
X152778577Y-251358808D01*
X152707149Y-251401665D01*
X152635720Y-251401665D01*
X152100006Y-251358808D02*
X152171435Y-251401665D01*
X152314292Y-251401665D01*
X152385720Y-251358808D01*
X152421435Y-251273094D01*
X152421435Y-250930237D01*
X152385720Y-250844523D01*
X152314292Y-250801665D01*
X152171435Y-250801665D01*
X152100006Y-250844523D01*
X152064292Y-250930237D01*
X152064292Y-251015951D01*
X152421435Y-251101665D01*
X151742863Y-251401665D02*
X151742863Y-250801665D01*
X151742863Y-250973094D02*
X151707149Y-250887380D01*
X151671435Y-250844523D01*
X151600006Y-250801665D01*
X151528577Y-250801665D01*
X151278577Y-250801665D02*
X151278577Y-251401665D01*
X151278577Y-250887380D02*
X151242863Y-250844523D01*
X151171435Y-250801665D01*
X151064292Y-250801665D01*
X150992863Y-250844523D01*
X150957149Y-250930237D01*
X150957149Y-251401665D01*
X150600006Y-251401665D02*
X150600006Y-250801665D01*
X150600006Y-250501665D02*
X150635720Y-250544523D01*
X150600006Y-250587380D01*
X150564292Y-250544523D01*
X150600006Y-250501665D01*
X150600006Y-250587380D01*
X150350006Y-250801665D02*
X150064292Y-250801665D01*
X150242863Y-250501665D02*
X150242863Y-251273094D01*
X150207149Y-251358808D01*
X150135720Y-251401665D01*
X150064292Y-251401665D01*
X149885720Y-250801665D02*
X149492863Y-250801665D01*
X149885720Y-251401665D01*
X149492863Y-251401665D01*
X149207149Y-251401665D02*
X149207149Y-250501665D01*
X149135720Y-251058808D02*
X148921435Y-251401665D01*
X148921435Y-250801665D02*
X149207149Y-251144523D01*
X148314292Y-251358808D02*
X148385720Y-251401665D01*
X148528577Y-251401665D01*
X148600006Y-251358808D01*
X148635720Y-251273094D01*
X148635720Y-250930237D01*
X148600006Y-250844523D01*
X148528577Y-250801665D01*
X148385720Y-250801665D01*
X148314292Y-250844523D01*
X148278577Y-250930237D01*
X148278577Y-251015951D01*
X148635720Y-251101665D01*
G04 #@! TO.C,J1*
X103596666Y-128833619D02*
X103549047Y-128786000D01*
X103453809Y-128738380D01*
X103215714Y-128738380D01*
X103120476Y-128786000D01*
X103072857Y-128833619D01*
X103025238Y-128928857D01*
X103025238Y-129024095D01*
X103072857Y-129166952D01*
X103644285Y-129738380D01*
X103025238Y-129738380D01*
X102691904Y-128738380D02*
X102072857Y-128738380D01*
X102406190Y-129119333D01*
X102263333Y-129119333D01*
X102168095Y-129166952D01*
X102120476Y-129214571D01*
X102072857Y-129309809D01*
X102072857Y-129547904D01*
X102120476Y-129643142D01*
X102168095Y-129690761D01*
X102263333Y-129738380D01*
X102549047Y-129738380D01*
X102644285Y-129690761D01*
X102691904Y-129643142D01*
X101453809Y-128738380D02*
X101358571Y-128738380D01*
X101263333Y-128786000D01*
X101215714Y-128833619D01*
X101168095Y-128928857D01*
X101120476Y-129119333D01*
X101120476Y-129357428D01*
X101168095Y-129547904D01*
X101215714Y-129643142D01*
X101263333Y-129690761D01*
X101358571Y-129738380D01*
X101453809Y-129738380D01*
X101549047Y-129690761D01*
X101596666Y-129643142D01*
X101644285Y-129547904D01*
X101691904Y-129357428D01*
X101691904Y-129119333D01*
X101644285Y-128928857D01*
X101596666Y-128833619D01*
X101549047Y-128786000D01*
X101453809Y-128738380D01*
X100834761Y-128738380D02*
X100501428Y-129738380D01*
X100168095Y-128738380D01*
G04 #@! TO.C,J2*
X96770000Y-152963619D02*
X96722380Y-152916000D01*
X96627142Y-152868380D01*
X96389047Y-152868380D01*
X96293809Y-152916000D01*
X96246190Y-152963619D01*
X96198571Y-153058857D01*
X96198571Y-153154095D01*
X96246190Y-153296952D01*
X96817619Y-153868380D01*
X96198571Y-153868380D01*
X95865238Y-152868380D02*
X95246190Y-152868380D01*
X95579523Y-153249333D01*
X95436666Y-153249333D01*
X95341428Y-153296952D01*
X95293809Y-153344571D01*
X95246190Y-153439809D01*
X95246190Y-153677904D01*
X95293809Y-153773142D01*
X95341428Y-153820761D01*
X95436666Y-153868380D01*
X95722380Y-153868380D01*
X95817619Y-153820761D01*
X95865238Y-153773142D01*
X94627142Y-152868380D02*
X94531904Y-152868380D01*
X94436666Y-152916000D01*
X94389047Y-152963619D01*
X94341428Y-153058857D01*
X94293809Y-153249333D01*
X94293809Y-153487428D01*
X94341428Y-153677904D01*
X94389047Y-153773142D01*
X94436666Y-153820761D01*
X94531904Y-153868380D01*
X94627142Y-153868380D01*
X94722380Y-153820761D01*
X94770000Y-153773142D01*
X94817619Y-153677904D01*
X94865238Y-153487428D01*
X94865238Y-153249333D01*
X94817619Y-153058857D01*
X94770000Y-152963619D01*
X94722380Y-152916000D01*
X94627142Y-152868380D01*
X94008095Y-152868380D02*
X93674761Y-153868380D01*
X93341428Y-152868380D01*
X91960476Y-154249333D02*
X92008095Y-154201714D01*
X92103333Y-154058857D01*
X92150952Y-153963619D01*
X92198571Y-153820761D01*
X92246190Y-153582666D01*
X92246190Y-153392190D01*
X92198571Y-153154095D01*
X92150952Y-153011238D01*
X92103333Y-152916000D01*
X92008095Y-152773142D01*
X91960476Y-152725523D01*
X91389047Y-152868380D02*
X91198571Y-152868380D01*
X91103333Y-152916000D01*
X91008095Y-153011238D01*
X90960476Y-153201714D01*
X90960476Y-153535047D01*
X91008095Y-153725523D01*
X91103333Y-153820761D01*
X91198571Y-153868380D01*
X91389047Y-153868380D01*
X91484285Y-153820761D01*
X91579523Y-153725523D01*
X91627142Y-153535047D01*
X91627142Y-153201714D01*
X91579523Y-153011238D01*
X91484285Y-152916000D01*
X91389047Y-152868380D01*
X90531904Y-152868380D02*
X90531904Y-153677904D01*
X90484285Y-153773142D01*
X90436666Y-153820761D01*
X90341428Y-153868380D01*
X90150952Y-153868380D01*
X90055714Y-153820761D01*
X90008095Y-153773142D01*
X89960476Y-153677904D01*
X89960476Y-152868380D01*
X89627142Y-152868380D02*
X89055714Y-152868380D01*
X89341428Y-153868380D02*
X89341428Y-152868380D01*
X87436666Y-153868380D02*
X88008095Y-153868380D01*
X87722380Y-153868380D02*
X87722380Y-152868380D01*
X87817619Y-153011238D01*
X87912857Y-153106476D01*
X88008095Y-153154095D01*
X87103333Y-154249333D02*
X87055714Y-154201714D01*
X86960476Y-154058857D01*
X86912857Y-153963619D01*
X86865238Y-153820761D01*
X86817619Y-153582666D01*
X86817619Y-153392190D01*
X86865238Y-153154095D01*
X86912857Y-153011238D01*
X86960476Y-152916000D01*
X87055714Y-152773142D01*
X87103333Y-152725523D01*
G04 #@! TO.C,J12*
X96770000Y-190555619D02*
X96722380Y-190508000D01*
X96627142Y-190460380D01*
X96389047Y-190460380D01*
X96293809Y-190508000D01*
X96246190Y-190555619D01*
X96198571Y-190650857D01*
X96198571Y-190746095D01*
X96246190Y-190888952D01*
X96817619Y-191460380D01*
X96198571Y-191460380D01*
X95865238Y-190460380D02*
X95246190Y-190460380D01*
X95579523Y-190841333D01*
X95436666Y-190841333D01*
X95341428Y-190888952D01*
X95293809Y-190936571D01*
X95246190Y-191031809D01*
X95246190Y-191269904D01*
X95293809Y-191365142D01*
X95341428Y-191412761D01*
X95436666Y-191460380D01*
X95722380Y-191460380D01*
X95817619Y-191412761D01*
X95865238Y-191365142D01*
X94627142Y-190460380D02*
X94531904Y-190460380D01*
X94436666Y-190508000D01*
X94389047Y-190555619D01*
X94341428Y-190650857D01*
X94293809Y-190841333D01*
X94293809Y-191079428D01*
X94341428Y-191269904D01*
X94389047Y-191365142D01*
X94436666Y-191412761D01*
X94531904Y-191460380D01*
X94627142Y-191460380D01*
X94722380Y-191412761D01*
X94770000Y-191365142D01*
X94817619Y-191269904D01*
X94865238Y-191079428D01*
X94865238Y-190841333D01*
X94817619Y-190650857D01*
X94770000Y-190555619D01*
X94722380Y-190508000D01*
X94627142Y-190460380D01*
X94008095Y-190460380D02*
X93674761Y-191460380D01*
X93341428Y-190460380D01*
X91960476Y-191841333D02*
X92008095Y-191793714D01*
X92103333Y-191650857D01*
X92150952Y-191555619D01*
X92198571Y-191412761D01*
X92246190Y-191174666D01*
X92246190Y-190984190D01*
X92198571Y-190746095D01*
X92150952Y-190603238D01*
X92103333Y-190508000D01*
X92008095Y-190365142D01*
X91960476Y-190317523D01*
X91389047Y-190460380D02*
X91198571Y-190460380D01*
X91103333Y-190508000D01*
X91008095Y-190603238D01*
X90960476Y-190793714D01*
X90960476Y-191127047D01*
X91008095Y-191317523D01*
X91103333Y-191412761D01*
X91198571Y-191460380D01*
X91389047Y-191460380D01*
X91484285Y-191412761D01*
X91579523Y-191317523D01*
X91627142Y-191127047D01*
X91627142Y-190793714D01*
X91579523Y-190603238D01*
X91484285Y-190508000D01*
X91389047Y-190460380D01*
X90531904Y-190460380D02*
X90531904Y-191269904D01*
X90484285Y-191365142D01*
X90436666Y-191412761D01*
X90341428Y-191460380D01*
X90150952Y-191460380D01*
X90055714Y-191412761D01*
X90008095Y-191365142D01*
X89960476Y-191269904D01*
X89960476Y-190460380D01*
X89627142Y-190460380D02*
X89055714Y-190460380D01*
X89341428Y-191460380D02*
X89341428Y-190460380D01*
X88008095Y-190555619D02*
X87960476Y-190508000D01*
X87865238Y-190460380D01*
X87627142Y-190460380D01*
X87531904Y-190508000D01*
X87484285Y-190555619D01*
X87436666Y-190650857D01*
X87436666Y-190746095D01*
X87484285Y-190888952D01*
X88055714Y-191460380D01*
X87436666Y-191460380D01*
X87103333Y-191841333D02*
X87055714Y-191793714D01*
X86960476Y-191650857D01*
X86912857Y-191555619D01*
X86865238Y-191412761D01*
X86817619Y-191174666D01*
X86817619Y-190984190D01*
X86865238Y-190746095D01*
X86912857Y-190603238D01*
X86960476Y-190508000D01*
X87055714Y-190365142D01*
X87103333Y-190317523D01*
G04 #@! TD*
%LPC*%
D17*
G04 #@! TO.C,MH3*
X239776000Y-223436000D03*
G04 #@! TD*
G04 #@! TO.C,MH2*
X239776000Y-162436000D03*
G04 #@! TD*
D18*
G04 #@! TO.C,P12*
X173926000Y-184402000D03*
D19*
X177151000Y-184402000D03*
X176206419Y-186682419D03*
X173926000Y-187627000D03*
X171645581Y-186682419D03*
X170701000Y-184402000D03*
X171645581Y-182121581D03*
X173926000Y-181177000D03*
X176206419Y-182121581D03*
G04 #@! TD*
G04 #@! TO.C,P14*
X176290419Y-142121581D03*
X174010000Y-141177000D03*
X171729581Y-142121581D03*
X170785000Y-144402000D03*
X171729581Y-146682419D03*
X174010000Y-147627000D03*
X176290419Y-146682419D03*
X177235000Y-144402000D03*
D18*
X174010000Y-144402000D03*
G04 #@! TD*
G04 #@! TO.C,P13*
X193926000Y-164402000D03*
D19*
X197151000Y-164402000D03*
X196206419Y-166682419D03*
X193926000Y-167627000D03*
X191645581Y-166682419D03*
X190701000Y-164402000D03*
X191645581Y-162121581D03*
X193926000Y-161177000D03*
X196206419Y-162121581D03*
G04 #@! TD*
D20*
G04 #@! TO.C,P5*
X259920000Y-164436000D03*
D19*
X263895000Y-164436000D03*
X262730749Y-167246749D03*
X259920000Y-168411000D03*
X257109251Y-167246749D03*
X255945000Y-164436000D03*
X257109251Y-161625251D03*
X259920000Y-160461000D03*
X262730749Y-161625251D03*
G04 #@! TD*
G04 #@! TO.C,P2*
X176736749Y-161591251D03*
X173926000Y-160427000D03*
X171115251Y-161591251D03*
X169951000Y-164402000D03*
X171115251Y-167212749D03*
X173926000Y-168377000D03*
X176736749Y-167212749D03*
X177901000Y-164402000D03*
D20*
X173926000Y-164402000D03*
G04 #@! TD*
G04 #@! TO.C,P4*
X87920000Y-164389000D03*
D19*
X91895000Y-164389000D03*
X90730749Y-167199749D03*
X87920000Y-168364000D03*
X85109251Y-167199749D03*
X83945000Y-164389000D03*
X85109251Y-161578251D03*
X87920000Y-160414000D03*
X90730749Y-161578251D03*
G04 #@! TD*
D20*
G04 #@! TO.C,P1*
X173920000Y-78436000D03*
D19*
X177895000Y-78436000D03*
X176730749Y-81246749D03*
X173920000Y-82411000D03*
X171109251Y-81246749D03*
X169945000Y-78436000D03*
X171109251Y-75625251D03*
X173920000Y-74461000D03*
X176730749Y-75625251D03*
G04 #@! TD*
D20*
G04 #@! TO.C,P3*
X173920000Y-250461000D03*
D19*
X177895000Y-250461000D03*
X176730749Y-253271749D03*
X173920000Y-254436000D03*
X171109251Y-253271749D03*
X169945000Y-250461000D03*
X171109251Y-247650251D03*
X173920000Y-246486000D03*
X176730749Y-247650251D03*
G04 #@! TD*
D21*
G04 #@! TO.C,C2*
X258178000Y-128308000D03*
D16*
G36*
X259537429Y-127918190D02*
X258567810Y-129667429D01*
X256818571Y-128697810D01*
X257788190Y-126948571D01*
X259537429Y-127918190D01*
X259537429Y-127918190D01*
G37*
D21*
X255991451Y-127095976D03*
G04 #@! TD*
D22*
G04 #@! TO.C,J3*
X249491000Y-116891000D03*
D23*
X246951000Y-116891000D03*
X244411000Y-116891000D03*
X241871000Y-116891000D03*
X239331000Y-116891000D03*
X236791000Y-116891000D03*
G04 #@! TD*
G04 #@! TO.C,J4*
X236791000Y-127051000D03*
X239331000Y-127051000D03*
X241871000Y-127051000D03*
X244411000Y-127051000D03*
X246951000Y-127051000D03*
D22*
X249491000Y-127051000D03*
G04 #@! TD*
D24*
G04 #@! TO.C,U2*
X233788000Y-134618001D03*
X247788000Y-134618000D03*
X245788000Y-134618000D03*
X243788000Y-134618001D03*
X241788000Y-134618001D03*
X239788001Y-134617999D03*
X237788000Y-134618000D03*
X235788000Y-134618000D03*
G04 #@! TD*
D21*
G04 #@! TO.C,C1*
X151130000Y-101346000D03*
X151130000Y-98846000D03*
G04 #@! TD*
D25*
G04 #@! TO.C,D1*
X148590000Y-78486000D03*
D26*
X148590000Y-81026000D03*
G04 #@! TD*
D27*
G04 #@! TO.C,J1*
X106680000Y-122936000D03*
X106680000Y-117936000D03*
D28*
X101680000Y-122936000D03*
X101680000Y-117936000D03*
X96680000Y-122936000D03*
X96680000Y-117936000D03*
G04 #@! TD*
G04 #@! TO.C,J2*
X86520000Y-142066000D03*
X86520000Y-147066000D03*
X91520000Y-142066000D03*
X91520000Y-147066000D03*
D27*
X96520000Y-142066000D03*
X96520000Y-147066000D03*
G04 #@! TD*
D29*
G04 #@! TO.C,PS1*
X115824000Y-104013000D03*
X115824000Y-109093000D03*
X143764000Y-98933000D03*
X143764000Y-114173000D03*
G04 #@! TD*
D30*
G04 #@! TO.C,R1*
X152400000Y-82296000D03*
D31*
X154940000Y-82296000D03*
G04 #@! TD*
D21*
G04 #@! TO.C,RV1*
X104140000Y-162306000D03*
X101140000Y-167306000D03*
G04 #@! TD*
D32*
G04 #@! TO.C,SW1*
X160020000Y-73986000D03*
X160020000Y-78486000D03*
X153520000Y-73986000D03*
X153520000Y-78486000D03*
G04 #@! TD*
D33*
G04 #@! TO.C,J5*
X155384000Y-119888000D03*
X151795021Y-121561568D03*
G04 #@! TD*
G04 #@! TO.C,J6*
X126610000Y-155736000D03*
X125922353Y-159635839D03*
G04 #@! TD*
G04 #@! TO.C,J8*
X199750000Y-205076000D03*
X202993842Y-202804637D03*
G04 #@! TD*
G04 #@! TO.C,J9*
X220273707Y-177589816D03*
X219050000Y-181356000D03*
G04 #@! TD*
D29*
G04 #@! TO.C,B1*
X170369855Y-106358994D03*
X172652792Y-107472457D03*
X174935729Y-108585920D03*
X177218666Y-109699382D03*
X179501602Y-110812845D03*
X181784539Y-111926308D03*
X184067476Y-113039770D03*
X186350413Y-114153233D03*
X188633350Y-115266696D03*
X190916287Y-116380159D03*
X193199224Y-117493621D03*
X195482161Y-118607084D03*
X197765097Y-119720547D03*
X200048034Y-120834009D03*
X202330971Y-121947472D03*
X204613908Y-123060935D03*
X206896845Y-124174398D03*
X209179782Y-125287860D03*
X211462719Y-126401323D03*
X213745656Y-127514786D03*
X216028592Y-128628248D03*
X171483318Y-104076057D03*
X173766255Y-105189520D03*
X176049191Y-106302983D03*
X178332128Y-107416445D03*
X180615065Y-108529908D03*
X182898002Y-109643371D03*
X185180939Y-110756834D03*
X187463876Y-111870296D03*
X189746813Y-112983759D03*
X192029750Y-114097222D03*
X194312686Y-115210684D03*
X196595623Y-116324147D03*
X198878560Y-117437610D03*
X201161497Y-118551073D03*
X203444434Y-119664535D03*
X205727371Y-120777998D03*
X208010308Y-121891461D03*
X210293245Y-123004922D03*
X212576181Y-124118386D03*
X214859118Y-125231849D03*
X217142055Y-126345312D03*
X221595906Y-117213564D03*
X222709369Y-114930627D03*
X223822831Y-112647690D03*
X219312969Y-116100101D03*
X220426432Y-113817164D03*
X221539896Y-111534228D03*
X227163221Y-105798880D03*
X228276682Y-103515943D03*
X229390145Y-101233006D03*
X224880283Y-104685417D03*
X225993745Y-102402480D03*
X227107208Y-100119543D03*
X230503608Y-98950069D03*
X221371860Y-94496218D03*
X219088922Y-93382755D03*
X216805987Y-92269293D03*
X214523050Y-91155830D03*
X212240113Y-90042367D03*
X209957176Y-88928905D03*
X207674239Y-87815442D03*
X205391302Y-86701979D03*
X203108365Y-85588516D03*
X200825428Y-84475054D03*
X198542491Y-83361591D03*
X196259555Y-82248128D03*
X231617070Y-96667132D03*
X222485323Y-92213281D03*
X220202386Y-91099819D03*
X217919449Y-89986356D03*
X215636512Y-88872893D03*
X213353575Y-87759430D03*
X211070639Y-86645968D03*
X208787702Y-85532505D03*
X206504765Y-84419042D03*
X204221828Y-83305580D03*
X201938891Y-82192117D03*
X199655954Y-81078654D03*
X197373017Y-79965191D03*
X224768260Y-93326744D03*
X223654797Y-95609681D03*
X227051197Y-94440207D03*
X225937734Y-96723144D03*
X229334134Y-95553668D03*
X228220671Y-97836606D03*
G04 #@! TD*
D19*
G04 #@! TO.C,P11*
X156206419Y-162121581D03*
X153926000Y-161177000D03*
X151645581Y-162121581D03*
X150701000Y-164402000D03*
X151645581Y-166682419D03*
X153926000Y-167627000D03*
X156206419Y-166682419D03*
X157151000Y-164402000D03*
D18*
X153926000Y-164402000D03*
G04 #@! TD*
D29*
G04 #@! TO.C,J11*
X176466000Y-127572000D03*
X175196000Y-125032000D03*
X173926000Y-127572000D03*
X171386000Y-127572000D03*
X172656000Y-125032000D03*
X160129221Y-130159492D03*
X150222966Y-136098879D03*
X142636930Y-144808772D03*
X138113685Y-155436588D03*
X137096000Y-166942000D03*
X139683492Y-178198779D03*
X145622879Y-188105034D03*
X154332772Y-195691070D03*
X164960588Y-200214315D03*
X176466000Y-201232000D03*
X187722779Y-198644508D03*
X197629034Y-192705121D03*
X205215070Y-183995228D03*
X209738315Y-173367412D03*
X210756000Y-161862000D03*
X208168508Y-150605221D03*
X202229121Y-140698966D03*
X193519228Y-133112930D03*
X182891412Y-128589685D03*
X162544904Y-129374589D03*
X152277869Y-134605904D03*
X144129904Y-142753869D03*
X138898589Y-153020904D03*
X137096000Y-164402000D03*
X138898589Y-175783096D03*
X144129904Y-186050131D03*
X152277869Y-194198096D03*
X162544904Y-199429411D03*
X173926000Y-201232000D03*
X185307096Y-199429411D03*
X195574131Y-194198096D03*
X203722096Y-186050131D03*
X208953411Y-175783096D03*
X210756000Y-164402000D03*
X208953411Y-153020904D03*
X203722096Y-142753869D03*
X195574131Y-134605904D03*
X185307096Y-129374589D03*
X160552159Y-127351357D03*
X149757443Y-133297488D03*
X141328514Y-142288346D03*
X136090453Y-153443843D03*
X134556000Y-165672000D03*
X136875357Y-177775841D03*
X142821488Y-188570557D03*
X151812346Y-196999486D03*
X162967843Y-202237547D03*
X175196000Y-203772000D03*
X187299841Y-201452643D03*
X198094557Y-195506512D03*
X206523486Y-186515654D03*
X211761547Y-175360157D03*
X213296000Y-163132000D03*
X210976643Y-151028159D03*
X205030512Y-140233443D03*
X196039654Y-131804514D03*
X184884157Y-126566453D03*
X164960588Y-128589685D03*
X154332772Y-133112930D03*
X145622879Y-140698966D03*
X139683492Y-150605221D03*
X137096000Y-161862000D03*
X138113685Y-173367412D03*
X142636930Y-183995228D03*
X150222966Y-192705121D03*
X160129221Y-198644508D03*
X171386000Y-201232000D03*
X182891412Y-200214315D03*
X193519228Y-195691070D03*
X202229121Y-188105034D03*
X208168508Y-178198779D03*
X210756000Y-166942000D03*
X209738315Y-155436588D03*
X205215070Y-144808772D03*
X197629034Y-136098879D03*
X187722779Y-130159492D03*
X162967843Y-126566453D03*
X151812346Y-131804514D03*
X142821488Y-140233443D03*
X136875357Y-151028159D03*
X134556000Y-163132000D03*
X136090453Y-175360157D03*
X141328514Y-186515654D03*
X149757443Y-195506512D03*
X160552159Y-201452643D03*
X172656000Y-203772000D03*
X184884157Y-202237547D03*
X196039654Y-196999486D03*
X205030512Y-188570557D03*
X210976643Y-177775841D03*
X213296000Y-165672000D03*
X211761547Y-153443843D03*
X206523486Y-142288346D03*
X198094557Y-133297488D03*
X187299841Y-127351357D03*
G04 #@! TD*
D27*
G04 #@! TO.C,J12*
X96520000Y-185166000D03*
X96520000Y-180166000D03*
D28*
X91520000Y-185166000D03*
X91520000Y-180166000D03*
X86520000Y-185166000D03*
X86520000Y-180166000D03*
G04 #@! TD*
D17*
G04 #@! TO.C,MH1*
X239776000Y-152679000D03*
G04 #@! TD*
M02*
